<svg width="24" height="25" viewBox="0 0 24 25" fill="none" xmlns="http://www.w3.org/2000/svg">
<mask id="path-1-inside-1" fill="white">
<path fill-rule="evenodd" clip-rule="evenodd" d="M9.41421 12.8282L4.00015 18.2423L2.58594 16.8281L10.5858 8.82825L10.5856 8.8281L11.9998 7.41388L12 7.41403L12.0002 7.41388L13.4144 8.8281L13.4142 8.82825L21.4141 16.8281L19.9998 18.2423L14.5858 12.8282H9.41421Z"/>
</mask>
<path fill-rule="evenodd" clip-rule="evenodd" d="M9.41421 12.8282L4.00015 18.2423L2.58594 16.8281L10.5858 8.82825L10.5856 8.8281L11.9998 7.41388L12 7.41403L12.0002 7.41388L13.4144 8.8281L13.4142 8.82825L21.4141 16.8281L19.9998 18.2423L14.5858 12.8282H9.41421Z" fill="#4F5565"/>
<path d="M9.41421 12.8282L8 11.414L8.58579 10.8282H9.41421V12.8282ZM4.00015 18.2423L5.41436 19.6565L4.00015 21.0707L2.58594 19.6565L4.00015 18.2423ZM2.58594 16.8281L1.17172 18.2423L-0.24249 16.8281L1.17172 15.4139L2.58594 16.8281ZM10.5858 8.82825L12 7.41403L13.4142 8.82825L12 10.2425L10.5858 8.82825ZM10.5856 8.8281L9.17142 10.2423L7.75721 8.8281L9.17142 7.41388L10.5856 8.8281ZM11.9998 7.41388L10.5856 5.99967L11.9998 4.58546L13.4141 5.99967L11.9998 7.41388ZM12 7.41403L13.4142 8.82825L12 10.2425L10.5858 8.82825L12 7.41403ZM12.0002 7.41388L10.5859 5.99967L12.0002 4.58546L13.4144 5.99967L12.0002 7.41388ZM13.4144 8.8281L14.8286 7.41388L16.2428 8.8281L14.8286 10.2423L13.4144 8.8281ZM13.4142 8.82825L12 10.2425L10.5858 8.82825L12 7.41403L13.4142 8.82825ZM21.4141 16.8281L22.8283 15.4139L24.2425 16.8281L22.8283 18.2423L21.4141 16.8281ZM19.9998 18.2423L21.4141 19.6565L19.9998 21.0707L18.5856 19.6565L19.9998 18.2423ZM14.5858 12.8282V10.8282H15.4142L16 11.414L14.5858 12.8282ZM10.8284 14.2425L5.41436 19.6565L2.58594 16.8281L8 11.414L10.8284 14.2425ZM2.58594 19.6565L1.17172 18.2423L4.00015 15.4139L5.41436 16.8281L2.58594 19.6565ZM1.17172 15.4139L9.17157 7.41403L12 10.2425L4.00015 18.2423L1.17172 15.4139ZM9.17157 10.2425L9.17142 10.2423L11.9998 7.41388L12 7.41403L9.17157 10.2425ZM9.17142 7.41388L10.5856 5.99967L13.4141 8.8281L11.9998 10.2423L9.17142 7.41388ZM13.4141 5.99967L13.4142 5.99982L10.5858 8.82825L10.5856 8.8281L13.4141 5.99967ZM10.5858 5.99982L10.5859 5.99967L13.4144 8.8281L13.4142 8.82825L10.5858 5.99982ZM13.4144 5.99967L14.8286 7.41388L12.0002 10.2423L10.5859 8.8281L13.4144 5.99967ZM14.8286 10.2423L14.8284 10.2425L12 7.41403L12.0002 7.41388L14.8286 10.2423ZM14.8284 7.41403L22.8283 15.4139L19.9998 18.2423L12 10.2425L14.8284 7.41403ZM22.8283 18.2423L21.4141 19.6565L18.5856 16.8281L19.9998 15.4139L22.8283 18.2423ZM18.5856 19.6565L13.1716 14.2425L16 11.414L21.4141 16.8281L18.5856 19.6565ZM9.41421 10.8282H14.5858V14.8282H9.41421V10.8282Z" fill="#4F5565" mask="url(#path-1-inside-1)"/>
</svg>
