<svg width="16" height="16" viewBox="0 0 16 16" fill="none" xmlns="http://www.w3.org/2000/svg">
<path d="M8.75 10L8.75 4L7.25 4L7.25 10L8.75 10Z" fill="#4F5565"/>
<path fill-rule="evenodd" clip-rule="evenodd" d="M3.5 8L3.5 14L2 14L2 8L3.5 8Z" fill="#4F5565"/>
<path fill-rule="evenodd" clip-rule="evenodd" d="M14 14H2V12.5H14V14Z" fill="#4F5565"/>
<path fill-rule="evenodd" clip-rule="evenodd" d="M14 8L14 14L12.5 14L12.5 8L14 8Z" fill="#4F5565"/>
<mask id="path-5-inside-1" fill="white">
<path d="M2.75 10.0679L5.93198 13.2499L3.81066 13.2499L2.75 12.1892L2.75 10.0679Z"/>
</mask>
<path d="M2.75 10.0679L5.93198 13.2499L3.81066 13.2499L2.75 12.1892L2.75 10.0679Z" fill="#4F5565"/>
<path d="M2.75 10.0679L4.16421 8.65366L0.75 5.23944L0.75 10.0679H2.75ZM5.93198 13.2499L5.93198 15.2499L10.7604 15.2499L7.34619 11.8356L5.93198 13.2499ZM3.81066 13.2499L2.39645 14.6641L2.98223 15.2499H3.81066L3.81066 13.2499ZM2.75 12.1892L0.75 12.1892L0.75 13.0176L1.33579 13.6034L2.75 12.1892ZM1.33579 11.4821L4.51777 14.6641L7.34619 11.8356L4.16421 8.65366L1.33579 11.4821ZM5.93198 11.2499L3.81066 11.2499L3.81066 15.2499L5.93198 15.2499L5.93198 11.2499ZM5.22487 11.8356L4.16421 10.775L1.33579 13.6034L2.39645 14.6641L5.22487 11.8356ZM4.75 12.1892L4.75 10.0679H0.75L0.75 12.1892L4.75 12.1892Z" fill="#4F5565" mask="url(#path-5-inside-1)"/>
<mask id="path-7-inside-2" fill="white">
<path d="M13.25 10.0679L10.068 13.2499L12.1893 13.2499L13.25 12.1892L13.25 10.0679Z"/>
</mask>
<path d="M13.25 10.0679L10.068 13.2499L12.1893 13.2499L13.25 12.1892L13.25 10.0679Z" fill="#4F5565"/>
<path d="M13.25 10.0679L11.8358 8.65366L15.25 5.23944L15.25 10.0679H13.25ZM10.068 13.2499L10.068 15.2499L5.23959 15.2499L8.65381 11.8356L10.068 13.2499ZM12.1893 13.2499L13.6036 14.6641L13.0178 15.2499H12.1893L12.1893 13.2499ZM13.25 12.1892L15.25 12.1892L15.25 13.0176L14.6642 13.6034L13.25 12.1892ZM14.6642 11.4821L11.4822 14.6641L8.65381 11.8356L11.8358 8.65366L14.6642 11.4821ZM10.068 11.2499L12.1893 11.2499L12.1893 15.2499L10.068 15.2499L10.068 11.2499ZM10.7751 11.8356L11.8358 10.775L14.6642 13.6034L13.6036 14.6641L10.7751 11.8356ZM11.25 12.1892L11.25 10.0679H15.25L15.25 12.1892L11.25 12.1892Z" fill="#4F5565" mask="url(#path-7-inside-2)"/>
<path d="M8 2L11 5" stroke="#4F5565" stroke-width="1.5" stroke-linecap="square" stroke-linejoin="round"/>
<path d="M8 2L5 5" stroke="#4F5565" stroke-width="1.5" stroke-linecap="square" stroke-linejoin="round"/>
<mask id="path-11-inside-3" fill="white">
<path d="M10.2598 4.50635L5.75976 4.50635L7.45228 3.00635L8.56726 3.00635L10.2598 4.50635Z"/>
</mask>
<path d="M10.2598 4.50635L5.75976 4.50635L7.45228 3.00635L8.56726 3.00635L10.2598 4.50635Z" fill="#4F5565"/>
<path d="M10.2598 4.50635L10.2598 6.50635L15.5318 6.50635L11.5863 3.00958L10.2598 4.50635ZM5.75976 4.50635L4.43324 3.00957L0.487689 6.50635L5.75976 6.50635L5.75976 4.50635ZM7.45228 3.00635L7.45228 1.00635L6.69356 1.00635L6.12575 1.50957L7.45228 3.00635ZM8.56726 3.00635L9.89378 1.50957L9.32597 1.00635L8.56726 1.00635L8.56726 3.00635ZM10.2598 2.50635L5.75976 2.50635L5.75976 6.50635L10.2598 6.50635L10.2598 2.50635ZM7.08629 6.00312L8.7788 4.50312L6.12575 1.50957L4.43324 3.00957L7.08629 6.00312ZM7.45228 5.00635L8.56725 5.00635L8.56726 1.00635L7.45228 1.00635L7.45228 5.00635ZM7.24073 4.50312L8.93324 6.00312L11.5863 3.00958L9.89378 1.50957L7.24073 4.50312Z" fill="#4F5565" mask="url(#path-11-inside-3)"/>
</svg>
