<svg width="24" height="24" viewBox="0 0 24 24" fill="none" xmlns="http://www.w3.org/2000/svg">
<mask id="path-1-inside-1" fill="white">
<path d="M12 9L15 12L13 12L12 11V9Z"/>
</mask>
<path d="M12 9L15 12L13 12L12 11V9Z" fill="#4F5565"/>
<path d="M12 9L13.4142 7.58579L10 4.17157V9H12ZM15 12L15 14L19.8284 14L16.4142 10.5858L15 12ZM13 12L11.5858 13.4142L12.1716 14L13 14L13 12ZM12 11L10 11L10 11.8284L10.5858 12.4142L12 11ZM10.5858 10.4142L13.5858 13.4142L16.4142 10.5858L13.4142 7.58579L10.5858 10.4142ZM15 10L13 10L13 14L15 14L15 10ZM14.4142 10.5858L13.4142 9.58579L10.5858 12.4142L11.5858 13.4142L14.4142 10.5858ZM14 11L14 9H10L10 11H14Z" fill="#4F5565" mask="url(#path-1-inside-1)"/>
<mask id="path-3-inside-2" fill="white">
<path d="M12 9L9 12L11 12L12 11V9Z"/>
</mask>
<path d="M12 9L9 12L11 12L12 11V9Z" fill="#4F5565"/>
<path d="M12 9L10.5858 7.58579L14 4.17157V9H12ZM9 12L9 14L4.17157 14L7.58579 10.5858L9 12ZM11 12L12.4142 13.4142L11.8284 14L11 14L11 12ZM12 11L14 11L14 11.8284L13.4142 12.4142L12 11ZM13.4142 10.4142L10.4142 13.4142L7.58579 10.5858L10.5858 7.58579L13.4142 10.4142ZM9 10L11 10L11 14L9 14L9 10ZM9.58579 10.5858L10.5858 9.58579L13.4142 12.4142L12.4142 13.4142L9.58579 10.5858ZM10 11L10 9H14L14 11H10Z" fill="#4F5565" mask="url(#path-3-inside-2)"/>
<mask id="path-5-inside-3" fill="white">
<path d="M12 15L9 12L11 12L12 13L12 15Z"/>
</mask>
<path d="M12 15L9 12L11 12L12 13L12 15Z" fill="#4F5565"/>
<path d="M12 15L10.5858 16.4142L14 19.8284L14 15L12 15ZM9 12L9 10L4.17157 10L7.58579 13.4142L9 12ZM11 12L12.4142 10.5858L11.8284 10L11 10L11 12ZM12 13L14 13L14 12.1716L13.4142 11.5858L12 13ZM13.4142 13.5858L10.4142 10.5858L7.58579 13.4142L10.5858 16.4142L13.4142 13.5858ZM9 14L11 14L11 10L9 10L9 14ZM9.58579 13.4142L10.5858 14.4142L13.4142 11.5858L12.4142 10.5858L9.58579 13.4142ZM10 13L10 15L14 15L14 13L10 13Z" fill="#4F5565" mask="url(#path-5-inside-3)"/>
<mask id="path-7-inside-4" fill="white">
<path d="M12 15L15 12L13 12L12 13L12 15Z"/>
</mask>
<path d="M12 15L15 12L13 12L12 13L12 15Z" fill="#4F5565"/>
<path d="M12 15L13.4142 16.4142L10 19.8284L10 15L12 15ZM15 12L15 10L19.8284 10L16.4142 13.4142L15 12ZM13 12L11.5858 10.5858L12.1716 10L13 10L13 12ZM12 13L10 13L10 12.1716L10.5858 11.5858L12 13ZM10.5858 13.5858L13.5858 10.5858L16.4142 13.4142L13.4142 16.4142L10.5858 13.5858ZM15 14L13 14L13 10H15L15 14ZM14.4142 13.4142L13.4142 14.4142L10.5858 11.5858L11.5858 10.5858L14.4142 13.4142ZM14 13L14 15L10 15L10 13L14 13Z" fill="#4F5565" mask="url(#path-7-inside-4)"/>
<line x1="12" y1="2" x2="12" y2="22" stroke="#4F5565" stroke-width="2"/>
<line x1="22" y1="12" x2="2" y2="12" stroke="#4F5565" stroke-width="2"/>
</svg>
