<svg fill="none" height="120" viewBox="0 0 120 120" width="120" xmlns="http://www.w3.org/2000/svg"><path d="m60 2c31.98 0 58 26.02 58 58s-26.02 58-58 58-58-26.02-58-58 26.02-58 58-58zm0-2c-33.14 0-60 26.86-60 60s26.86 60 60 60 60-26.86 60-60-26.86-60-60-60zm-51.03 56.77 1.5.12.5-.43.13-1.62 1.14.09-.39 4.96-1.14-.09.1-1.21-.43-.5-4.17-.33-.5.43-.09 1.21-1.15-.1.34-4.25c.16-1.97.99-2.93 2.37-2.82 1.41.11 2.06 1.19 1.9 3.16zm-1.14-.09.11-1.35c.1-1.2-.24-1.69-.87-1.74-.62-.05-1.03.37-1.13 1.58l-.11 1.35zm1.94-11.62c.01-.06.04-.13.06-.16-.04.02-.1.04-.17.09-.11.08-.22.24-.29.53-.2.82.25 1.67 1.14 2.94l1.15.29.57-.34.5-1.99 1.11.28-1.21 4.85-1.11-.28.2-.81-.34-.57-2.22-.55-.57.34-.2.81-1.11-.29.6-2.4 1.32.33c-.71-.91-1.12-1.89-.89-2.83.33-1.31 1.35-1.61 2.11-1.42.57.14 1.13.67.95 1.39-.13.52-.48.87-1.09.72-.41-.11-.62-.49-.51-.93zm1.01-6.54c.72-1.66 2.44-2.4 3.96-1.73s2.15 2.43 1.42 4.08c-.72 1.66-2.44 2.4-3.96 1.73s-2.15-2.43-1.42-4.08zm1.09.47c-.44 1-.06 1.95.87 2.35.93.41 1.88.04 2.32-.96s.06-1.95-.87-2.35-1.88-.04-2.32.96zm8.8-6.55-3.47-2.27c-.15-.1-.36-.11-.5.11-.13.2-.11.47.26.98l2.01 1.32.29-.06.2-.3.96.63-.92 1.41-3.47-2.27c-.15-.1-.36-.11-.5.11-.13.2-.11.47.26.98l2.01 1.32.29-.06.2-.3.96.63-1.37 2.1-.96-.63.33-.51-.06-.29-2.35-1.54-.29.06-.33.51-.96-.63 1.06-1.62.6.39c-.36-.44-.48-.9-.18-1.36.32-.49.86-.54 1.29-.43-.32-.41-.39-.94-.08-1.42.38-.58 1.02-.61 1.56-.25l2.65 1.73.29-.06.39-.6.96.63zm-.2-8.78c1.22-1.33 3.09-1.47 4.31-.34s1.24 2.99.01 4.32c-1.22 1.33-3.09 1.47-4.31.34s-1.23-2.99-.01-4.32zm.88.81c-.74.8-.69 1.82.06 2.51s1.77.65 2.51-.15.69-1.82-.06-2.51-1.77-.66-2.51.15zm4.69-4.4-.91.71-.7-.9 1.28-1-1.23-1.58.96-.75 1.23 1.58 2.25-1.75.7.9-1.89 1.47-.08.66.83 1.07c.58.75 1.22 1.01 1.98.42.67-.52.79-1.14.85-2.06l1.06.11c.04 1.09-.34 2.23-1.18 2.88-1.24.97-2.46.93-3.55-.48l-.94-1.2zm11.78-3.96 1.46-.79.55 1.01-5.12 2.78-.55-1.01 1.81-.98.19-.63-1.09-2.01-.63-.19-1.81.98-.55-1.01 3.25-1.76 1.86 3.43zm-4.7-5.97c.57-.31 1.22-.12 1.53.46.29.54.1 1.19-.47 1.5-.54.29-1.19.1-1.48-.44-.31-.57-.12-1.22.42-1.52zm9.57 3.33.59.29.57-.19.37 1.08-3.12 1.07-.37-1.08.57-.19.29-.59-.74-2.16-.59-.29-.57.19-.37-1.08 2.12-.72.26.75c.21-.52.66-1.25 1.53-1.55 1.11-.38 2.29 0 2.73 1.26l.65 1.89.59.29.57-.19.37 1.08-3.14 1.06-.37-1.08.57-.19.29-.59-.49-1.43c-.21-.61-.53-1.32-1.47-1-.82.28-1.25.85-1.39 1.77zm9.81 1.77c-2.28.37-3.58-.11-3.76-1.25-.09-.53.13-.9.5-1.23-.25-.18-.39-.5-.42-.71-.09-.56.12-.98.58-1.36-.36-.3-.62-.7-.7-1.19-.19-1.13.63-2.17 2.03-2.4.36-.06.7-.05 1 .01.32-.71.89-1.34 1.77-1.49.86-.14 1.58.32 1.71 1.12.1.62-.24 1.08-.73 1.16-.54.09-.93-.27-.99-.68-.04-.22.04-.49.24-.61-.03-.03-.12-.06-.23-.04-.4.06-.74.37-.95.85.47.29.78.75.87 1.31.19 1.13-.63 2.17-2.03 2.4-.42.07-.81.05-1.17-.03-.23.2-.34.4-.32.57.03.17.16.25.39.21l3.12-.51c1.17-.19 2.03.14 2.2 1.21.2 1.15-1.03 2.32-3.11 2.66zm-1.59-7.05c-.6.1-1.03.54-.94 1.1s.64.84 1.24.74 1.03-.54.94-1.1-.64-.84-1.24-.74zm-.79 4.98c-.14.18-.17.33-.14.5.09.55.87.7 2.34.46 1.39-.23 2.2-.78 2.12-1.3-.05-.32-.38-.31-.7-.25zm16.35-6.48c1.66.21 2.46 1.2 2.31 2.32l-.28 2.23c-.03.25 0 .42.26.45.18.02.35-.09.78-.33l.47.92c-.69.48-1.09.64-1.67.56-.57-.07-1.09-.5-1.13-1.2-.65.39-1.68.85-2.67.73-1.11-.14-1.77-.75-1.65-1.71.1-.83.8-1.14 1.72-1.3l2.93-.5.01-.05c.07-.58-.51-1.03-1.43-1.15-.63-.08-.84-.05-1.22 0 .18.1.37.32.32.71-.04.43-.43.69-.95.63s-.87-.45-.81-.99c.16-1.18 1.69-1.48 3.01-1.32zm.97 3.06-2.66.57c-.2.04-.48.15-.51.42-.04.33.2.52.6.57.76.1 1.69-.29 2.48-.76zm15.39 1-.5-.22.46-1.05 2.96 1.31-.46 1.05-.5-.22-.62.24-1.69 3.83.24.62.5.22-.46 1.05-2.96-1.31.46-1.05.5.22.62-.24.68-1.53-2.64-1.17-.68 1.53.24.62.5.22-.46 1.05-2.96-1.31.46-1.05.5.22.62-.24 1.7-3.83-.24-.62-.5-.22.46-1.05 2.96 1.31-.46 1.05-.5-.22-.62.24-.55 1.25 2.64 1.17.55-1.25zm8.84 6.03-2.15 3.25.13.65.5.33-.63.95-1.87-1.23.44-.66c-.54.16-1.38.26-2.15-.25-1.01-.67-1.41-1.82-.68-2.94l1.1-1.67-.13-.65-.5-.33.63-.95 1.87 1.23-1.72 2.6c-.49.74-.61 1.3.11 1.77.73.48 1.44.46 2.25.02l.94-1.42-.13-.65-.5-.33.63-.95zm2.16 9.14 2.82-3.04c.12-.13.17-.34-.02-.51-.17-.16-.45-.19-1.01.09l-1.64 1.76.02.29.27.25-.78.84-1.24-1.15 2.82-3.04c.12-.13.17-.34-.02-.51-.17-.16-.45-.19-1.01.09l-1.64 1.76.01.29.27.25-.78.84-1.84-1.71.78-.84.46.42.29-.01 1.91-2.06-.01-.29-.45-.42.78-.84 1.42 1.32-.49.52c.5-.29.97-.32 1.37.05.43.4.38.94.21 1.34.46-.25.99-.23 1.41.16.5.47.43 1.11-.02 1.58l-2.16 2.32.01.29.52.49-.78.84zm8.51 1.06c1.03 1.33.88 2.59-.01 3.28l-1.78 1.38c-.2.15-.3.3-.14.5.11.14.31.19.78.31l-.32.99c-.82-.15-1.22-.32-1.58-.79-.35-.45-.41-1.13.05-1.65-.74-.19-1.79-.59-2.4-1.38-.68-.88-.72-1.78.05-2.37.66-.51 1.37-.24 2.14.3l2.42 1.73.04-.03c.46-.36.37-1.09-.19-1.82-.39-.5-.56-.64-.86-.86.06.2.03.49-.28.72-.34.26-.8.18-1.12-.24-.32-.41-.3-.94.14-1.27.95-.73 2.25.14 3.06 1.2zm-1.48 2.84-2.28-1.49c-.17-.11-.44-.23-.66-.07-.27.21-.23.51.01.83.47.61 1.39.99 2.29 1.22zm2.28 5.63-.19.63.28.53-1.01.54-1.56-2.91 1.01-.54.28.53.63.19 2.02-1.08.19-.63-.28-.53 1.01-.54 1.06 1.97-.7.38c.55.12 1.35.44 1.78 1.26.55 1.03.37 2.26-.81 2.9l-1.76.95-.19.63.28.53-1.01.54-1.56-2.91 1.01-.54.28.53.63.19 1.33-.71c.57-.31 1.21-.74.74-1.61-.41-.77-1.04-1.09-1.97-1.08zm2.24 9.44c-.63-1.86.15-3.53 1.73-4.07s3.21.33 3.79 2.04c.7 2.08-.62 3.58-2.19 4.11l-1.61-4.78c-.62.4-.99 1.2-.62 2.32.25.75.72 1.32 1.47 1.84l-.59.89c-1.04-.66-1.68-1.45-1.98-2.35zm3.81.36c.55-.42.91-1.16.62-2.02-.27-.8-.95-1.38-1.8-1.33l1.14 3.37zm4.47 12.73c.05 1.68-.8 2.62-1.93 2.65l-2.25.07c-.25.01-.41.07-.41.33.01.18.14.33.45.71l-.84.61c-.58-.61-.8-.98-.82-1.56-.02-.57.33-1.16 1.01-1.31-.49-.58-1.1-1.53-1.13-2.53-.04-1.12.46-1.86 1.44-1.89.83-.03 1.26.61 1.56 1.5l.95 2.82h.05c.58-.02.94-.67.91-1.59-.02-.64-.08-.84-.19-1.2-.07.2-.26.41-.65.42-.43.01-.75-.33-.77-.85s.31-.93.85-.95c1.19-.03 1.73 1.43 1.77 2.77zm-2.87 1.43-.98-2.55c-.07-.19-.22-.45-.5-.44-.34.01-.49.28-.47.68.02.77.55 1.62 1.14 2.33zm-1.44 5.9-.53.4-.08.59-1.13-.15.43-3.27 1.13.15-.08.59.4.53 2.27.3.53-.4.08-.59 1.13.15-.29 2.22-.79-.1c.38.42.83 1.15.71 2.06-.15 1.16-1.02 2.06-2.35 1.88l-1.99-.26-.53.4-.08.59-1.13-.15.43-3.28 1.13.15-.08.59.4.53 1.5.2c.64.09 1.42.11 1.55-.87.11-.86-.21-1.5-.96-2.03zm3.36 13.72-6.32-1.95-.26.14-.18.6-1.09-.34.59-1.91.76.23c-.28-.43-.64-1.23-.34-2.21.48-1.56 2.08-2.34 3.65-1.85s2.45 2.02 1.97 3.59c-.3.98-1.06 1.44-1.52 1.64l1.81.56.26-.14.34-1.09 1.09.34zm-4.06-2.48c.79-.23 1.42-.58 1.69-1.46.31-.99-.25-1.8-1.22-2.1s-1.88.06-2.19 1.05c-.27.88.05 1.52.57 2.16zm-4.15 14.54.31-.45.95.64-1.81 2.69-.95-.64.31-.45-.13-.65-3.47-2.34-.65.13-.31.45-.95-.64 1.81-2.69.95.64-.31.45.13.65 1.39.94 1.61-2.4-1.39-.94-.65.13-.3.45-.95-.64 1.81-2.69.95.64-.3.45.13.65 3.47 2.34.65-.13.3-.45.95.64-1.81 2.69-.95-.64.31-.45-.13-.65-1.13-.76-1.61 2.4 1.13.76zm-9.91 1.92c1.35-1.43 3.2-1.52 4.41-.38s1.21 2.99-.03 4.31c-1.51 1.6-3.46 1.13-4.66-.01l3.47-3.67c-.64-.36-1.53-.32-2.34.54-.55.58-.83 1.26-.93 2.16l-1.06-.11c.09-1.22.49-2.15 1.14-2.84zm1.47 3.54c.62.29 1.45.26 2.08-.4.58-.61.78-1.48.33-2.22l-2.45 2.59zm-3.46 6.11c-1.34 1.01-2.6.86-3.28-.05l-1.36-1.79c-.15-.2-.29-.3-.5-.14-.15.11-.19.31-.32.78l-.98-.33c.16-.82.34-1.22.8-1.57.46-.34 1.13-.4 1.65.07.19-.73.61-1.78 1.41-2.38.89-.67 1.78-.7 2.37.08.5.66.23 1.38-.32 2.14l-1.75 2.4.03.04c.35.47 1.09.38 1.82-.17.51-.38.64-.55.87-.85-.2.06-.49.03-.72-.29-.26-.34-.17-.8.25-1.12.41-.31.94-.29 1.27.15.71.94-.17 2.22-1.24 3.03zm-2.82-1.51 1.51-2.27c.12-.17.24-.44.07-.66-.2-.27-.51-.24-.83.01-.61.46-1.01 1.38-1.24 2.28zm-8.23 3.05-1.47.77-.53-1.01 5.16-2.7.53 1.01-1.82.95-.2.63 2.2 4.21.63.2 1.82-.95.53 1.01-3.27 1.71-2.95-5.63zm-3.14 4.89 1.1-.36.35 1.09-1.54.5.62 1.9-1.16.38-.62-1.9-2.71.88-.35-1.09 2.27-.74.3-.59-.42-1.29c-.29-.9-.8-1.37-1.72-1.07-.8.26-1.13.81-1.5 1.65l-.95-.45c.33-1.04 1.08-1.98 2.09-2.31 1.5-.49 2.63-.04 3.18 1.66l.47 1.45zm-9.74-.22-.53-.39-.59.09-.17-1.13 3.27-.49.17 1.13-.59.09-.39.53.7 4.7.53.39.59-.09.17 1.13-2.21.33-.48-3.22c-.3.48-.87 1.12-1.79 1.25-1.16.17-2.26-.41-2.46-1.74l-.3-1.98-.53-.39-.59.09-.17-1.13 3.27-.49.17 1.13-.59.09-.39.53.22 1.49c.1.64.29 1.39 1.26 1.24.86-.13 1.38-.61 1.68-1.49zm-6.86-.25c-.55-.01-1-.35-.99-.93.01-.56.44-.93 1.12-.85-.09-.34-.41-.44-.68-.44-.56-.01-.99.71-1.56 1.78l2.25 4.22.68.01-.02 1.14-3-.05.02-1.14.43.01.32-.32-1.35-2.66-1.43 2.62.31.33.43.01-.02 1.14-2.87-.05.02-1.14.68.01 2.56-4.48c.74-1.3 1.34-2.45 2.6-2.43 1.07.02 1.82.76 1.8 1.85-.04.75-.58 1.38-1.3 1.37zm-18.43-.26.51-1.42-.28-.6-1.53-.55.39-1.08 4.68 1.69-.39 1.08-1.14-.41-.6.28-1.43 3.94.28.6 1.14.41-.39 1.08-4.01-1.45c-1.86-.67-2.57-1.73-2.09-3.04.48-1.33 1.7-1.67 3.55-.99zm-.39 1.08-1.27-.46c-1.14-.41-1.69-.21-1.91.37-.21.59.09 1.1 1.22 1.51l1.27.46zm-8.33-7.3-1.45-.82.56-1 5.07 2.86-.56 1-1.79-1.01-.64.18-2.33 4.13.18.64 1.79 1.01-.56 1-3.22-1.82 3.13-5.54zm-8.2-.21c-1.3-1.06-1.45-2.31-.74-3.19l1.42-1.75c.16-.19.22-.36.02-.52-.14-.11-.34-.11-.84-.12l.09-1.04c.84-.04 1.26.03 1.71.4.44.36.66 1 .33 1.62.76.01 1.87.16 2.65.79.87.7 1.11 1.57.49 2.32-.52.65-1.28.55-2.15.2l-2.75-1.12-.03.04c-.37.45-.11 1.15.61 1.73.5.4.69.49 1.04.64-.1-.18-.14-.47.1-.77.27-.33.74-.35 1.14-.03s.5.84.16 1.27c-.75.92-2.21.37-3.25-.47zm.79-3.1 2.56.92c.19.07.48.12.66-.09.21-.26.11-.55-.2-.8-.6-.48-1.58-.65-2.51-.66zm-3.51-4.95.04-.66-.4-.45.86-.76 2.19 2.47-.85.76-.4-.45-.66-.04-1.71 1.52-.04.66.4.45-.86.76-1.48-1.67.59-.53c-.56.01-1.41-.12-2.02-.81-.78-.88-.89-2.11.12-3l1.48-1.33.04-.66-.4-.45.86-.76 2.19 2.47-.85.76-.4-.45-.66-.04-1.13 1c-.49.43-1.01 1-.35 1.74.58.65 1.27.82 2.16.6zm-4.39-8.68c1.04 1.66.68 3.48-.73 4.36s-3.2.43-4.16-1.1c-1.17-1.86-.24-3.63 1.17-4.51l2.68 4.27c.51-.53.69-1.4.06-2.4-.42-.67-1.01-1.12-1.86-1.44l.37-1c1.17.4 1.97 1.02 2.47 1.82zm-3.79.54c-.43.53-.62 1.34-.13 2.11.45.72 1.24 1.12 2.06.87l-1.89-3.02zm-3.07-3.56.44 1.07-1.06.44-.62-1.5-1.85.77-.47-1.13 1.85-.77-1.09-2.63 1.06-.44.92 2.21.61.25 1.25-.52c.88-.36 1.3-.91.93-1.79-.32-.78-.89-1.07-1.76-1.37l.39-.99c1.06.25 2.06.92 2.47 1.9.6 1.45.24 2.62-1.4 3.3l-1.4.58zm-1.62-10.79c-.16-.7.28-1.4.97-1.56.7-.16 1.4.28 1.56.97.16.7-.28 1.4-.97 1.56-.7.16-1.4-.28-1.56-.97z" fill="#4f8386"/></svg>