<svg fill="none" height="121" viewBox="0 0 120 121" width="120" xmlns="http://www.w3.org/2000/svg"><path d="m60 .177734c-33.14 0-60 26.859966-60 59.999966s26.86 60.0003 60 60.0003 60-26.8603 60-60.0003-26.86-59.999966-60-59.999966zm0 118.000266c-31.98 0-58-26.0203-58-58.0003s26.02-57.99997 58-57.99997 58 26.01997 58 57.99997-26.02 58.0003-58 58.0003zm-47.63-62.2703c-.06.75-.44 1.5-.91 1.95l.15.29.39.03-.09 1.21-2.99-.24.08-1.04c1.4-.35 2.11-1.44 2.18-2.29.07-.86-.33-1.25-.95-1.3-.58-.05-.82.43-.97.85l-.58 1.62c-.43 1.2-.97 2.04-2.26 1.93-1.22-.1-1.98-1.13-1.87-2.61.05-.66.35-1.24.8-1.68l-.11-.29-.35-.03.1-1.2 2.67.21-.08 1.04c-1.22.37-1.77 1.28-1.83 2.06-.08.72.25 1.16.72 1.2.57.05.75-.41.95-1.01l.61-1.62c.39-1.09 1.06-1.87 2.2-1.78 1.39.11 2.26 1.11 2.14 2.7zm.89-11.47 1.11.28-.8 3.21-1.11-.28.14-.58-.34-.57-1.46-.36c-.63-.16-1.39-.27-1.63.69-.21.85.04 1.51.73 2.13l1.65.41.57-.34.15-.58 1.11.28-.8 3.21-1.11-.28.14-.58-.34-.57-4.61-1.15-.57.34-.14.58-1.11-.28.54-2.17 3.15.79c-.33-.46-.7-1.23-.48-2.13.28-1.14 1.24-1.93 2.54-1.6l1.94.48.57-.34zm2.9-6.71 1.05.46-2.33 5.34-1.05-.46.82-1.89-.24-.62-2.1-.92-.62.24-.82 1.88-1.05-.46 1.48-3.38 3.58 1.56.62-.24zm-8.04-.29c.26-.6.89-.84 1.49-.58.56.24.81.88.55 1.47-.24.56-.88.81-1.44.56-.6-.26-.85-.89-.6-1.45zm11.45-5.23.96.63-2.47 3.79-.96-.63.49-.75-.14-.65-1.73-1.13-.65.14-.49.75-.96-.63.75-1.14c-1.31-.85-1.82-2.45-.71-4.14.78-1.2 1.95-1.49 2.69-1 .54.36.69.99.32 1.55-.35.53-.9.67-1.29.41-.35-.23-.44-.66-.28-1.02-.26.11-.47.3-.64.56-.65.99-.45 2.02.55 2.67l1.09-1.66.96.63-.83 1.27.14.65 1.73 1.13.65-.14zm2.13-4.81-1.12-1.03-.66.03-.78.85-.84-.77 1.1-1.2-1.47-1.36.83-.9 1.47 1.36 1.93-2.1.84.77-1.62 1.76.03.66 1 .92c.7.64 1.37.8 2.02.09.57-.62.59-1.26.5-2.17l1.06-.06c.22 1.07.03 2.25-.69 3.04-1.08 1.16-2.29 1.32-3.6.11zm3.22-7.73 2.91-2.27 2.4 3.08.66.08 1.31-1.02.7.9-4.59 3.58-.7-.9 1.62-1.26.08-.66-1.41-1.8-.66-.08-1.62 1.26zm.19-2.66c-.4-.51-.32-1.19.17-1.56.51-.4 1.19-.32 1.59.2.38.48.29 1.16-.22 1.56-.49.36-1.17.28-1.54-.2zm6.86-1.21-.55-1.01 1.97-1.07.38.7c.12-.55.44-1.35 1.25-1.79 1.03-.56 2.26-.38 2.9.79l.95 1.76.63.19.53-.29.55 1.01-2.9 1.57-.54-1.01.53-.29.19-.63-.72-1.33c-.31-.57-.74-1.21-1.61-.74-.77.42-1.09 1.05-1.07 1.97l.81 1.5.63.19.53-.29.55 1.01-2.9 1.57-.55-1.01.53-.28.19-.63-1.09-2.01-.63-.19zm15.87-1.68c-.35-1.02-1.25-1.21-2.37-.82l-2.99 1.02c-.22.08-.37.02-.42-.14s.02-.38.22-.61c.37.03.75-.02 1.15-.16 1.34-.46 1.97-1.62 1.6-2.71-.18-.53-.57-.92997-1.08-1.13997.13-.51.42-.87.8-1 .11-.04.2-.03.23 0-.18.16-.21.43-.14.64.13.39001.58.68 1.09.51.47-.16.73-.68.53-1.27-.26-.76-1.05-1.1-1.87-.81-.85.29-1.3 1.01-1.5 1.76-.3-.01-.65.04-.99.16-1.34.45997-1.97 1.61997-1.6 2.70997.16.47.48.83.88 1.06-.4.45-.53.9-.35 1.44.07.2.25.49.53.63-.31.38-.46.79-.29 1.29.38 1.09 1.73 1.36 3.92.61 2.01-.7 3.03-2.07 2.65-3.17zm-6.12-2.29c-.19-.54.16-1.05.74-1.24.58-.2 1.16-.01 1.35.53s-.16 1.05-.74 1.24-1.16.01-1.35-.53zm3.12 4.37c-1.41.48-2.2.47-2.38-.06-.05-.16-.05-.31.06-.51l3.47-1.19c.31-.1.63-.17.73.13.16.49-.55 1.18-1.88 1.63zm16.17-11.41997 2.95.05-.02 1.15-.35-.01-.48.46-.07 4.18997.46.48.35.01-.02 1.14-2.99-.05.02-1.14.55.01.48-.46.07-4.53997h-.26l-.88 3.5-1.4-.02-.76-3.52h-.26l-.07 4.53997.46.48.55.01-.02 1.14-2.99-.05.02-1.14.35.01.48-.46.07-4.18997-.46-.48-.35-.01.02-1.14 3 .05.71 3.76zm9.76 7.49997c-.26-.04-.28-.22-.24-.46l.37-2.21997c.19-1.11-.56-2.14-2.22-2.41-1.32-.22-2.86.02-3.06 1.19-.09.54.25.94.76 1.02.51.09.91-.16.98-.59.06-.38-.11-.61-.29-.72.38-.04.59-.06 1.22.05.91.15 1.48.63 1.38 1.21l-.01.05-2.95.38c-.93.12-1.64.40997-1.77 1.22997-.16.96.47 1.59 1.57 1.78.99.17 2.03-.25 2.7-.61.01.7.52 1.15 1.08 1.25.58.1.98-.05 1.69-.49l-.44-.94c-.41.21-.59.31-.77.28zm-1.38-1.21c-.81.44-1.75.79-2.51.66-.4-.07-.63-.26-.57-.6.04-.27.33-.37.53-.4l2.69-.46zm9.55 1.97c-.5-.17-.82-.56-.62-1.15.14-.41.55-.58.98-.43.05.02.12.05.15.08-.01-.05-.03-.11-.08-.18-.07-.12-.22-.24-.5-.34-.8-.28-1.69.1-3.03.88l-.39 1.12.29.6 1.94.67-.38 1.08-4.72-1.63.38-1.08.79.27.6-.29.75-2.16-.29-.59997-.79-.27.37-1.08 2.33.81-.45 1.28997c.97-.62997 1.98-.94997 2.9-.62997 1.28.43997 1.48 1.48997 1.22 2.22997-.18.54-.75 1.05-1.45.81zm9.65 1.77-.55 1-.46-.25-2.63.06.53 2.47 1.22.67-.55 1-2.61-1.43.55-1.02-.35-1.67-1.16.03-.12.23.19.63.41.22-.55 1-2.67-1.46.55-1 .41.22.64-.19 2.27-4.17-.19-.63-.52-.29.55-.99997 1.96 1.06997-2.43 4.45 2.63-.02.09-.17-.49-.27.55-1zm5.02 7.8c1.03-1.31 1.31-3.29-.42-4.64-1.42-1.12-3.26-.94-4.29.37s-.76 3.14.78 4.35c.75.59 1.71.9 2.94.89l.01-1.07c-.91-.02-1.61-.24-2.24-.73-.93-.73-1.05-1.6-.76-2.28zm-1.12-3.74c.72.56.81 1.38.59 2.03l-.02.05-2.8-2.2c.68-.52 1.56-.4 2.23.12zm3.31 9.61c-1.06-1.16-1.11-2.38.2-3.58l1.12-1.02.03-.66-.78-.85.84-.77 1.1 1.2 1.48-1.35.82.9-1.48 1.35 1.92 2.1-.84.77-1.61-1.77-.66-.03-1 .91c-.7.64-.91 1.29-.27 2 .57.62 1.2.7 2.12.69l-.03 1.07c-1.07.12-2.24-.18-2.96-.96zm5.3 2.83c-.22.87-.32 1.91.3 2.87.3.47.72.77 1.1.53.26-.17.17-.46 0-.88l-.73-1.9c-.41-1.07-.38-1.92.41-2.43.82-.53 1.85-.13 2.45.8.44.68.61 1.42.54 2l.21.19.32-.21.6.93-1.69 1.1-.48-.74c.26-.79.14-1.89-.27-2.52-.3-.46-.67-.68-.93-.51-.31.2-.18.58.03 1.1l.76 2.01c.31.84.32 1.59-.48 2.11-.94.61-1.97.16-2.68-.94-.6-.93-.66-1.79-.57-2.37l-.31-.11-.36.23-.6-.93 1.83-1.19zm6.14 16.6 2.32-.57-.58-2.33 1.11-.27.58 2.33 2.33-.58.27 1.11-2.33.58.58 2.33-1.11.27-.58-2.33-2.32.57zm8.02 16.47-3.8.44 3.66 1.12-.26 2.94-1.14-.1.03-.35-.42-.51-4.17-.37-.51.43-.03.35-1.14-.1.26-2.98 1.14.1-.05.54.42.51 4.52.4.02-.26-3.43-1.12.12-1.4 3.57-.51.02-.26-4.52-.4-.51.43-.05.54-1.14-.1.26-2.98 1.14.1-.03.35.43.51 4.17.37.51-.42.03-.35 1.14.1zm-.48 10.2c-.16.63-.75.97-1.38.81-.59-.15-.94-.74-.77-1.37.15-.59.74-.94 1.33-.78.63.17.97.75.82 1.34zm-3.4-3.85 1.11.29-.93 3.57-3.77-.98-.57.33-.42 1.61-1.11-.29 1.47-5.63 1.11.29-.52 1.99.33.57 2.21.58.57-.33zm-2.14 7.65 1.04.47-.92 2.04-.72-.33c.24.51.47 1.34.09 2.18-.48 1.07-1.57 1.68-2.79 1.13l-1.83-.82-.62.24-.24.54-1.04-.47 1.35-3.01 1.04.47-.25.55.24.62 1.38.62c.59.27 1.32.51 1.73-.39.36-.79.23-1.49-.34-2.22l-1.55-.7-.62.23-.25.55-1.04-.47 1.35-3.01 1.04.47-.25.55.24.62 2.09.94.62-.23zm-4.31 13.26-.29.06-1.58-1.05c.5-.05 1.36-.28 1.93-1.14.91-1.36.5-3.09-.86-4s-3.12-.62-4.03.74c-.57.85-.45 1.73-.31 2.22l-.66-.44-1.11 1.67.95.64.35-.52.29-.06 5.51 3.67 1.4-2.1-.95-.64zm-4-2.42c-.32-.76-.44-1.47.07-2.24.58-.87 1.56-.95 2.4-.39s1.14 1.5.57 2.36c-.51.77-1.21.93-2.04.92zm-.98 4.48c.71.67.57 1.77-.19 2.57-.55.59-1.23.93-1.82 1l-.13.25.27.26-.76.81-1.47-1.38.6-.64c.83.07 1.87-.32 2.38-.87.37-.4.5-.82.27-1.03-.27-.25-.61-.04-1.06.29l-1.77 1.22c-.74.5-1.47.69-2.16.04-.81-.77-.63-1.87.27-2.83.76-.81 1.58-1.07 2.16-1.13l.04-.32-.31-.29.76-.81 1.59 1.49-.7.75c-.9-.01-1.94.14-2.72.98-.38.41-.58.88-.25 1.19.23.21.49.05.86-.21l1.66-1.17c.96-.64 1.8-.81 2.48-.17zm-12.25 12.1303-1.21.64c.73 1.38.41 3.02-1.38 3.97-1.26.67-2.43.36-2.84-.42-.3-.57-.12-1.2.46-1.51.56-.3 1.11-.15 1.33.27.19.37.06.79-.25 1.03.28.03.56-.03.83-.18 1.05-.55 1.37-1.55.81-2.61l-1.76.93-.54-1.01 1.34-.71.19-.63-.97-1.83-.63-.19-1.34.71-.54-1.01 4-2.12.54 1.01-.79.42-.19.63.97 1.83.63.19.79-.42zm-12.64-.25c-1.72.57-2.61 2.21-2.09 3.79s2.22 2.36 3.94 1.79 2.61-2.21 2.09-3.79-2.23-2.36-3.94-1.79zm1.47 4.44c-1.04.34-1.94-.12-2.26-1.09s.13-1.88 1.17-2.22 1.94.12 2.26 1.09-.13 1.88-1.17 2.22zm-5.22 1.41.17 1.13-2.44.38-.21-1.35c-.57 1.01-1.31 1.77-2.27 1.92-1.34.21-2-.62-2.12-1.4-.09-.58.18-1.3.91-1.42.53-.08.99.11 1.09.73.07.42-.21.77-.66.84-.05.01-.13.01-.17 0 .03.03.08.08.15.12.12.07.31.11.6.06.84-.13 1.44-.88 2.27-2.19l-.18-1.17-.53-.39-2.03.31-.17-1.13 4.93-.76.17 1.13-.82.13-.39.53.35 2.26.53.39zm-16.96.28c-.38 2.13-1.94 3.59-4.03 3.22-.52-.09-1.11-.45-1.37-.86l-.23.05-.06.33-1.14-.2.45-2.53.91.16c.16.75.7 1.66 1.6 1.82 1.38.25 2.23-.79 2.48-2.23.25-1.42-.22-2.72-1.59-2.96-.64-.11-1.26.24-1.87.69l-.08.44.25.4.93.17-.2 1.13-3.23-.57.2-1.13.42.07.5-.35.43-2.41 1.14.2-.07.4.18.2c.6-.47 1.31-.53 1.83-.44 1.93.33 2.92 2.28 2.55 4.4zm-10.45-6.49c-1.7-.61-3.42.13-3.98 1.7s.3 3.23 2 3.83c1.7.61 3.42-.13 3.98-1.7s-.3-3.22-2-3.83zm.72 3.38c-.34.95-1.26 1.4-2.29 1.03s-1.46-1.29-1.11-2.25c.34-.95 1.26-1.4 2.29-1.03 1.02.36 1.45 1.29 1.11 2.25zm-7.92-6.65c-1.58-.88-3.39-.44-4.2 1.02s-.24 3.23 1.34 4.11 3.39.44 4.2-1.02.24-3.23-1.34-4.11zm.14 3.44c-.5.89-1.48 1.17-2.43.64s-1.22-1.52-.73-2.4 1.48-1.17 2.43-.64 1.23 1.52.73 2.4zm-6.31-7.5503c-.8-.64-1.69-.6-2.18-.5l.5-.62-1.56-1.25-.72.89.49.39.03.29-4.14 5.1703 1.97 1.58.72-.89-.9-.72-.03-.29 1.19-1.48c.01.51.16 1.38.96 2.02 1.28 1.02 3.04.77 4.06-.51s.89-3.0503-.39-4.0803zm-.64 3.2603c-.63.79-1.59 1.01-2.4.36-.72-.58-.82-1.29-.74-2.1103l.75-.93c.79-.25 1.5-.31 2.22.26.81.64.81 1.6303.17 2.4203zm-7.46-7.3003c-.48-.53-.43-1.36.1-1.84s1.36-.43 1.84.1.43 1.36-.1 1.84c-.54.48-1.37.43-1.84-.1z" fill="#ba4430"/></svg>