<svg width="1152" height="170" viewBox="0 0 1152 170" fill="none" xmlns="http://www.w3.org/2000/svg">
<path d="M0 17.24C1.92012 17.29 3.55022 17.26 3.90024 17.2C4.67028 16.67 5.49033 16.1 6.36039 15.5C8.81053 15.32 11.2907 15.34 13.4808 15.48C14.8809 15.94 15.5009 17.17 16.811 17.29C17.8311 17.48 18.6311 16.71 19.6612 16.48C21.0813 16.36 22.5714 16.24 23.9215 16.63C24.8515 17.24 25.6816 17.79 26.5816 18.39C30.1918 18.39 33.8521 18.39 37.1823 18.39C38.2823 18.8 39.0524 19.08 39.8924 19.39C41.6825 19.39 43.5026 19.39 45.1527 19.39C46.1128 19.74 46.8928 20.02 47.6629 20.3C49.333 20.36 50.9931 20.41 52.1932 20.45C54.4533 21.02 54.2033 22.93 55.0333 24.02C56.1934 24.82 57.4135 25.29 58.7336 25.56C59.0336 25.62 59.2936 25.9 59.6536 26.14C60.2337 27.01 60.8737 27.97 61.4337 28.8C63.0238 29.6 64.4839 29.44 65.734 29.14C67.5241 28.3 68.1141 26.6 69.1642 25.63C70.9243 24.94 72.2544 25.99 73.7245 26.17C74.5345 25.62 75.3546 25.06 76.2246 24.46C77.0147 24.46 77.8347 24.46 78.4148 24.46C80.8949 25.4 82.795 26.64 83.7451 28.99C83.8651 29.29 84.1151 29.54 84.3551 29.77C85.9852 31.42 87.6753 33.01 88.9754 34.95C89.0454 35.05 89.2654 35.05 89.4354 35.09C90.7255 34.95 91.2755 33.77 92.1656 33.08C92.7156 32.66 93.2857 32.4 94.2457 32.41C94.7858 32.62 95.5258 33.03 96.3158 33.2C98.326 33.63 100.026 34.58 101.576 35.88C101.816 36.08 102.176 36.13 102.526 36.26C103.156 36.26 103.816 36.26 104.426 36.26C105.386 35.79 106.276 35.36 107.176 34.92C109.397 33.62 110.037 30.87 112.067 29.46C113.317 29.46 114.467 29.46 115.517 29.46C116.447 30.1 117.267 30.66 118.107 31.24C118.927 31.24 119.747 31.24 120.267 31.24C122.187 30.64 122.197 28.71 123.477 27.84C124.538 27.46 125.598 27.01 126.708 26.7C127.808 26.39 128.958 26.23 129.808 26.06C131.318 24.85 132.608 23.82 134.008 22.7C135.048 21.18 136.168 19.54 137.338 17.82C139.518 17.21 141.639 16.28 143.739 16.13C144.609 15.49 145.279 15 145.839 14.58C146.809 14.46 147.629 14.35 148.539 14.24C149.499 13.74 150.519 13.21 151.069 12.93C152.339 11.8 152.299 10.32 153.599 9.91C155.859 10.59 158.16 10.46 159.88 10.33C163.05 9.47 164.73 7.03 167.69 6.45C168.4 6.66 169.34 6.93 170.4 7.25C171.3 6.67 172.25 6.05 173.141 5.47C174.091 5.47 174.921 5.44 175.741 5.48C176.061 5.49 176.371 5.65 176.911 5.81C177.201 6.15 177.631 6.63 178.071 7.13C178.131 9 178.201 10.82 178.261 12.51C179.251 14.01 180.161 15.39 181.011 16.66C181.961 17.26 182.801 17.78 183.601 18.28C184.151 19.4 184.651 20.43 184.861 20.87C185.261 22.32 185.041 23.2 185.801 24.43C186.471 25.09 187.521 26.13 188.351 26.95C189.942 27.57 190.922 27.15 191.682 26.1C192.592 23.96 193.102 21.71 193.492 19.5C194.322 18.76 195.052 18.1 195.742 17.49C196.542 17.44 197.202 17.42 197.862 17.35C198.512 17.29 199.152 17.18 199.852 17.08C200.282 16.51 200.692 16 201.062 15.47C201.442 14.93 201.782 14.37 201.972 14.08C202.952 13.38 203.802 13.33 204.622 13.34C205.622 13.35 206.383 12.33 207.453 12.72C208.683 13.56 208.543 15.51 210.223 16.07C210.813 15.57 211.423 15.05 212.203 14.38C213.023 14.38 214.033 14.28 215.013 14.41C216.143 14.55 217.253 14.89 218.313 15.13C220.083 14.54 221.803 13.96 223.624 13.35C225.034 13.35 226.534 13.35 227.624 13.35C228.824 13.1 229.484 12.45 230.414 12.63C231.754 13.29 232.574 14.63 233.754 15.53C234.934 16.43 236.114 17.4 237.454 18.01C238.824 18.63 239.705 20.03 242.185 20.46C242.335 20.49 243.115 19.64 244.085 19.47C244.825 19.34 245.945 19.68 246.315 20.28C247.085 21.54 247.825 22.82 248.525 24C250.145 24.5 251.615 24.4 252.925 24.19C254.835 22.63 256.606 21.16 258.416 19.74C258.616 19.59 259.026 19.72 259.396 19.72C260.016 20.15 260.276 21.1 261.556 21.29C262.866 21.33 264.516 21.39 265.996 21.44C267.576 22.23 268.516 23.33 269.146 24.75C269.416 25.35 269.846 25.85 270.606 25.88C270.876 25.7 271.186 25.56 271.426 25.35C272.187 24.69 272.737 23.88 273.157 22.95C273.427 22.34 273.927 21.87 274.647 21.59C275.877 21.33 277.187 21.2 278.427 21.67C280.787 23.75 280.787 23.75 282.527 28.38C282.887 28.63 283.287 28.92 283.597 29.13C285.317 29.61 287.047 29 288.838 29.86C290.798 32.09 293.428 33.8 296.118 35.44C297.248 36.12 298.368 36.83 299.428 37.62C300.488 38.41 301.458 39.32 302.378 40.1C303.898 40.24 304.989 40.93 306.029 41.81C306.849 42.5 308.019 42.41 308.789 41.75C309.419 41.22 309.969 40.6 310.399 40.17C310.759 39.18 311.029 38.41 311.269 37.76C312.269 37.23 313.019 36.48 314.509 36.57C315.729 37.93 317.409 39.26 319.369 40.3C319.699 41.61 320.649 42.6 320.879 43.98C321.009 44.77 321.449 45.52 321.82 46.26C321.94 46.49 322.28 46.61 322.57 46.81C323.58 46 324.6 45.18 325.48 44.47C326.53 44.36 327.36 44.22 328.33 44.79C328.61 45.12 329.05 45.61 329.4 46.02C330.51 46.25 331.54 46.3 332.43 46.69C334.52 47.61 336.66 47.29 338.811 47.19C338.961 47.18 339.111 47.06 339.261 47C340.501 46.44 340.711 45.29 340.941 43.99C341.451 43.29 342.121 42.54 342.591 41.67C343.071 40.77 343.531 39.92 344.751 39.44C345.691 39.44 346.841 39.44 347.531 39.44C348.961 39.71 349.361 41.04 350.531 40.8C351.581 40.36 351.601 39.17 352.261 38.45C352.921 37.72 353.691 37.09 354.301 36.51C354.992 36.51 355.482 36.51 355.882 36.51C357.232 37.47 357.242 39.29 358.782 40.24C361.062 40.31 363.532 40.38 365.782 40.44C367.362 41.17 368.882 41.61 369.752 42.92C371.113 44.97 373.253 46.45 374.003 48.93C374.193 49.56 374.553 50.14 374.883 50.71C375.523 51.8 376.423 52.43 377.953 52.12C378.763 51.59 379.723 50.96 380.513 50.44C381.563 50.31 382.383 50.22 383.223 50.62C383.853 51.06 384.523 51.55 385.213 52.01C385.333 52.09 385.533 52.06 385.753 52.09C387.164 51.88 387.894 49.92 389.744 50.46C389.954 50.55 390.314 50.62 390.554 50.82C391.954 52.05 393.514 52.91 395.344 53.34C396.644 53.65 397.804 54.3 398.844 55.09C401.044 58.51 401.044 58.51 405.085 61.36C405.865 62.94 405.835 64.95 407.595 66.13C408.015 66.11 408.575 66.22 408.975 66.02C411.065 64.98 413.095 64.97 415.185 66.01C415.775 66.3 416.475 66.28 417.375 65.79C418.495 64.78 419.855 63.57 421.036 62.51C421.616 62.41 421.946 62.33 422.266 62.3C424.286 62.16 426.006 63.78 428.086 63.32C429.496 63.77 430.916 64.22 432.286 64.66C433.456 65.67 434.626 66.61 435.326 67.93C435.486 68.95 435.646 69.92 435.766 70.67C436.536 71.88 437.347 72.69 438.477 73.13C440.617 73.44 442.797 73.04 445.067 73.45C445.747 74.07 446.427 74.82 447.227 75.38C448.167 76.05 449.227 76.54 450.217 77.15C450.637 77.4 451.097 77.68 451.357 78.06C451.747 78.63 452.247 79 452.807 79.37C453.498 79.83 454.078 80.43 454.728 80.95C455.238 81.37 455.758 81.76 456.228 82.13C456.828 82.1 457.318 82.08 457.838 82.06C458.998 81.12 460.148 80.19 461.208 79.34C463.038 79.34 464.698 79.32 466.358 79.36C466.668 79.37 466.968 79.59 467.478 79.79C467.738 80.18 468.118 80.71 468.458 81.27C468.878 81.96 469.148 82.79 470.399 82.71C471.699 81.42 473.269 80.19 474.149 78.78C474.659 77.17 474.149 75.76 474.789 74.65C475.699 73.52 476.759 72.59 477.299 71.43C477.919 70.09 479.139 69.57 480.089 68.68C480.369 67.91 480.639 67.14 480.929 66.34C481.619 65.63 482.339 64.94 482.999 64.19C483.759 63.33 484.459 62.41 485.249 61.45C485.689 61.45 486.24 61.3 486.65 61.48C487.71 61.94 488.71 62.52 489.71 63.11C490.57 63.61 491.42 64.13 492.21 64.72C493.13 65.41 493.97 66.19 494.61 66.73C496.55 66.47 498.17 66.25 499.68 66.05C501.15 65.41 502.5 64.81 503.831 64.24C505.741 64.78 507.291 65.69 508.721 66.85C508.941 67.03 509.341 66.99 509.701 67.06C510.871 66.51 512.071 65.95 513.401 65.33C514.931 65.33 516.591 65.33 518.151 65.33C519.031 65.64 519.802 65.91 520.362 66.1C521.372 65.92 522.042 65.05 523.062 65.9C523.292 66.31 523.622 66.88 523.962 67.44C524.302 68 524.652 68.55 524.912 68.96C526.592 69.54 527.612 68.53 528.872 67.88C529.642 66.72 530.372 65.4 531.662 64.67C532.812 64.25 533.892 63.83 534.992 63.49C535.453 63.35 535.972 63.4 536.513 63.36C537.323 63.91 538.133 64.48 538.953 65.03C539.073 65.11 539.273 65.06 539.703 65.08C540.383 64.73 541.263 64.3 542.123 63.82C542.403 63.66 542.593 63.36 542.943 63.01C543.703 62.09 542.843 60.41 544.173 59.53C545.853 59.12 547.413 59.38 549.013 60.08C550.303 60.65 551.563 59.89 552.164 58.43C552.414 57.83 552.354 57.1 552.934 56.68C554.364 55.82 555.444 57.19 556.714 57.19C558.364 57.19 560.014 57.19 561.434 57.19C562.544 56.6 563.664 56.39 564.134 55.48C564.794 54.2 566.164 54.49 567.084 53.86C568.834 52.54 570.145 50.84 571.035 49.09C572.485 48.16 573.735 47.35 575.055 46.5C576.135 46.39 577.285 46.28 578.285 46.18C579.215 45.55 579.205 44.69 579.275 43.87C579.375 42.78 579.935 42.02 580.925 41.56C581.895 41.38 582.925 41.34 583.825 40.98C584.935 40.53 586.036 40.32 587.216 40.34C588.716 40.37 590.206 40.36 591.706 40.4C592.026 40.41 592.346 40.55 592.666 40.63C593.706 41.2 594.516 42.01 595.056 43.08C595.256 43.88 595.256 44.74 596.096 45.61C597.086 46.25 598.326 47.06 599.626 47.91C600.656 47.53 601.716 47.14 602.857 46.72C603.867 47.57 604.867 48.41 605.647 49.07C606.967 49.56 607.847 48.81 608.817 48.82C610.407 49.4 609.897 51.12 611.087 52.78C611.017 52.72 611.507 53.17 612.027 53.59C612.287 53.79 612.587 53.93 612.907 54.13C614.347 54.4 615.817 54.41 617.387 54.09C617.967 53.37 618.588 52.61 619.218 51.84C621.128 50.84 623.048 49.86 624.948 48.85C625.228 48.7 625.428 48.41 625.678 48.17C625.988 47.23 626.298 46.29 626.618 45.34C627.258 44.79 627.818 44.13 628.528 43.74C629.228 43.35 630.078 43.22 630.898 42.96C631.978 41.95 633.048 40.91 634.158 39.92C634.388 39.72 634.758 39.68 635.078 39.56C635.849 39.77 636.629 39.98 637.329 40.17C638.479 39.66 639.539 39.18 640.579 38.71C642.379 39.51 644.139 39.66 646.069 38.86C646.379 38.38 646.759 37.85 647.089 37.29C647.669 36.29 648.169 35.24 648.799 34.27C649.179 33.7 649.809 33.46 650.63 33.69C651.59 34.45 652.61 35.28 653.66 36.09C653.77 36.17 653.98 36.13 654.15 36.14C655.39 35.87 656.07 34.9 656.73 33.95C657.2 33.28 657.57 32.54 657.99 31.84C659.72 31.52 660.56 29.65 662.47 29.55C662.87 30.54 663.23 31.44 663.63 32.46C664.51 33.31 665.46 34.23 666.32 35.05C667.141 35.26 667.82 35.33 668.401 35.61C669.131 35.97 669.781 36.5 670.451 36.96C670.761 36.78 671.131 36.69 671.311 36.45C671.701 35.93 671.991 35.32 672.341 34.77C673.041 33.66 674.021 33.22 675.581 33.64C676.021 34.02 676.621 34.59 677.261 35.11C678.031 35.73 678.831 36.31 679.691 36.96C680.381 38.18 681.111 39.47 681.761 40.61C683.601 41.42 683.602 41.42 685.852 40.91C687.322 39.5 688.882 38.01 690.232 36.72C691.322 36.41 692.112 36.19 692.902 35.97C693.582 34.95 694.152 33.94 694.882 33.05C695.612 32.15 696.532 31.41 697.302 30.54C698.182 29.56 698.982 28.52 699.802 27.52C700.863 27.03 701.793 26.2 703.403 26.63C704.043 27.18 704.883 27.96 705.793 28.67C706.163 28.96 706.653 29.09 707.113 29.3C707.993 28.71 708.803 28.15 709.633 27.63C709.753 27.55 709.963 27.62 710.223 27.62C711.113 28.19 712.073 28.81 713.053 29.43C714.433 29.37 715.763 29.31 717.083 29.25C718.704 28.21 720.614 28.52 722.124 28.27C723.494 27.43 724.454 26.57 725.844 26.25C727.284 25.92 728.604 25.11 730.504 25.72C730.984 26.16 731.714 26.82 732.354 27.39C732.794 28.62 733.245 29.69 733.555 30.8C733.865 31.9 734.035 33.04 734.235 33.99C735.435 35.61 736.865 35.51 738.145 35.19C739.975 34.35 740.555 32.64 741.785 31.5C742.275 31.55 742.755 31.59 743.165 31.64C743.845 32.46 744.475 33.2 745.045 33.89C746.135 33.73 747.085 33.59 747.895 33.47C749.015 34.71 749.906 35.93 751.036 36.87C752.166 37.81 753.536 38.47 754.876 39.31C756.796 39.31 758.786 39.31 760.616 39.31C761.876 38.98 762.856 38.14 764.436 38.69C765.166 39.36 766.096 40.3 767.127 41.13C768.147 41.96 769.267 42.67 770.287 43.39C771.017 44.78 771.707 46.1 772.647 47.88C773.147 48.34 774.087 49.05 774.837 49.93C775.577 50.8 776.137 51.83 776.687 52.66C777.387 53.12 777.937 53.48 778.367 53.76C779.207 54.98 779.957 56.07 780.677 57.11C780.777 58.33 780.867 59.49 780.947 60.55C781.357 61.39 781.597 62.26 782.117 62.86C783.248 64.15 783.758 65.7 784.228 67.19C784.708 67.56 785.108 67.86 785.518 68.17C786.018 68.17 786.508 68.17 786.528 68.17C788.138 67.86 788.648 66.44 790.208 66.53C790.578 66.82 791.108 67.2 791.598 67.63C792.478 68.39 793.308 69.2 794.208 69.93C794.418 70.1 794.828 70.02 795.148 70.06C796.528 69.47 797.178 67.85 798.858 67.48C799.208 67.68 799.709 67.85 800.009 68.19C800.429 68.68 800.669 69.34 801.049 69.87C802.119 71.33 803.619 72.48 804.289 74.24C805.679 75.65 806.889 77.26 808.849 78.3C810.389 78.3 812.049 78.27 813.709 78.32C814.349 78.34 814.989 78.56 815.539 78.67C816.26 79.55 816.89 80.3 817.59 81.16C819.02 81.23 820.5 81.31 822.09 81.39C822.8 82.03 823.53 82.69 824.2 83.3C824.51 84.18 824.79 84.95 825.07 85.74C826.15 86.5 827.22 87.26 828.41 88.1C828.78 87.85 829.34 87.67 829.49 87.32C829.8 86.58 829.88 85.74 830.08 84.95C830.12 84.81 830.3 84.71 830.42 84.59C831.2 84.18 832.02 84.28 832.841 84.4C834.041 85.27 834.041 85.27 835.411 88.01C837.421 88.59 839.611 87.97 841.421 88.34C842.561 88.76 842.701 89.72 843.301 90.27C844.021 90.93 844.821 91.51 845.291 91.89C845.981 93.42 845.181 94.93 846.461 96.01C846.891 96.04 847.381 96.08 847.751 96.11C848.962 95.72 849.531 94.4 850.962 94.45C852.812 95.34 854.742 96.27 856.412 97.06C857.852 97.34 859.062 97.04 860.372 97.64C861.202 98.36 862.202 99.22 862.962 99.87C864.322 100.4 865.182 99.83 866.133 99.53C867.063 99.23 868.073 99.16 868.943 99C870.243 98.41 871.433 97.86 872.493 97.37C873.943 97.84 875.193 98.25 876.363 98.64C877.503 99.52 878.273 100.55 878.883 101.78C879.773 103.55 880.443 105.46 881.784 106.99C882.104 107.35 882.284 107.83 882.454 108.12C882.754 109.75 882.354 111.28 882.844 112.69C884.164 114.81 886.494 115.58 888.294 117C888.404 117.09 888.614 117.07 888.904 117.12C890.504 117.48 891.184 115.41 892.634 115.37C894.244 115.86 894.894 117.47 896.364 118.03C896.804 118.03 897.364 118.18 897.784 118C899.165 117.44 900.515 116.81 901.635 115.76C901.935 115.48 902.525 115.5 902.995 115.37C903.575 115.83 904.045 116.32 904.615 116.63C905.185 116.94 905.875 117.02 906.465 117.3C907.055 117.57 907.625 117.92 908.155 118.31C908.695 118.71 909.225 119.09 909.925 119.11C913.135 118.23 913.135 118.23 915.786 118.37C918.046 119.94 920.656 121.16 922.206 123.67C922.436 124.46 922.666 125.25 922.866 125.9C924.086 127.23 925.206 128.45 926.416 129.75C926.476 131.54 926.406 133.4 927.356 135.04C927.276 136.75 928.126 138.24 928.556 139.83C929.036 141.59 929.916 143.19 931.036 144.76C932.567 145.13 934.157 145.51 935.737 145.89C936.577 145.57 937.087 144.95 937.367 144.1C937.457 142.14 937.537 140.15 937.647 138.16C937.657 138.02 937.817 137.89 938.027 137.56C938.757 137.27 939.677 136.94 940.577 136.55C941.637 136.09 942.667 135.58 943.327 135.27C944.697 135.13 945.367 135.57 946.027 136.34C946.407 137.1 946.857 137.99 947.237 138.74C947.597 139.81 947.217 140.92 947.997 141.68C948.618 142.15 949.268 142.14 949.888 141.85C950.328 141.64 950.738 141.33 951.108 141C952.758 139.55 954.548 140.17 955.478 142.19C955.968 143.25 956.328 144.33 956.678 145.44C956.918 146.24 957.538 146.85 958.678 146.92C959.378 146.46 960.188 145.92 961.018 145.4C961.138 145.32 961.338 145.36 961.498 145.34C962.498 145.54 963.328 146.06 964.168 146.77C964.508 147.42 964.899 148.15 965.199 148.71C965.559 149.81 965.199 150.91 966.059 151.74C966.769 152.01 967.539 152.3 968.079 152.51C969.569 153.34 969.069 155.16 970.439 156C972.109 156.07 973.919 156.14 975.469 156.2C976.519 156.67 977.259 157.2 977.609 157.91C978.659 160.06 980.469 161.55 981.89 163.16C983.87 167.03 984.41 167.84 986.42 169.89C988.99 168.48 991.9 169.39 994.48 168.93C997.43 167.7 999.661 165.64 1002.31 164.15C1003.91 164.09 1005.64 164.3 1007.2 163.88C1008.79 163.46 1010.41 163.17 1012.01 162.79C1013.58 161.24 1015.18 159.78 1017.46 159.15C1018.16 159.1 1018.99 158.99 1020.05 159.5C1020.83 160.18 1021.83 161.04 1022.86 161.94C1023.71 161.94 1024.53 161.94 1025.57 161.94C1028.8 159.39 1032.66 157.48 1036.29 155.18C1038.01 155.2 1039.54 154.67 1040.63 153.76C1041.43 152.75 1041.93 151.83 1042.68 151.22C1043.95 150.18 1045.34 149.25 1046.76 148.42C1047.45 148.02 1048.32 147.93 1049.05 147.72C1049.83 146.96 1050.62 146.32 1051.24 145.55C1051.96 144.66 1052.53 143.65 1053.11 142.78C1055.22 141.91 1057.2 141.1 1059.37 140.21C1060.49 140.15 1061.82 140.09 1063.14 140.01C1063.3 140 1063.45 139.91 1063.61 139.85C1065.24 138.72 1065.53 138.58 1066.62 138.39C1069.15 140.52 1069.15 140.52 1071.08 143.33C1071.92 144.14 1072.79 144.22 1073.55 143.87C1074.63 143.38 1075.73 143.1 1076.9 143.02C1077.22 143 1077.52 142.82 1077.87 142.71C1078.9 141.94 1079.96 141.16 1080.95 140.43C1081.11 139.84 1081.25 139.37 1081.4 138.84C1082.15 138.26 1082.97 137.7 1083.71 137.05C1084.46 136.39 1085.13 135.65 1085.84 134.95C1086.91 133.9 1087.98 132.86 1089.07 131.83C1089.3 131.61 1089.63 131.49 1089.95 131.3C1090.73 131.2 1091.56 131.1 1092.36 130.99C1093.73 130.35 1095.08 129.73 1096.12 129.25C1097.32 129.14 1098.14 129.13 1099.2 129.79C1100.24 131.04 1101.07 132.9 1102.65 134.17C1104.19 135.41 1105.28 137.17 1107.14 138.07C1110.15 138.07 1113.14 138.07 1115.97 138.07C1116.9 137.71 1117.67 137.42 1118.13 137.24C1119.46 137.24 1120.45 137.24 1121.32 137.24C1122.26 137.89 1123.08 138.45 1123.32 138.62C1125.01 139.38 1125.85 138.66 1126.82 138.33C1129.65 139.07 1132.58 139.55 1135.33 140.72C1135.63 140.85 1135.95 141 1136.27 141.02C1138.63 141.16 1140.73 142.18 1142.91 142.94C1143.21 143.04 1143.56 142.98 1143.94 143C1145.3 142.53 1146.69 142.05 1147.94 141.62C1148.67 140.72 1149.29 139.96 1149.78 139.36C1150.69 139.11 1151.36 139.32 1152 139.59V0H0V17.24Z" fill="#4F5565"/>
</svg>
