<svg width="1152" height="312" viewBox="0 0 1152 312" fill="none" xmlns="http://www.w3.org/2000/svg">
<path d="M0 69.77C0.149995 69.88 0.309989 69.97 0.499983 70.06C1.66994 70.02 2.95986 70.32 4.20981 69.73C4.5498 69.57 4.99985 69.66 5.39984 69.61C6.95978 69.41 8.40972 69.96 9.63968 70.18C11.4496 71.22 13.0396 72.12 14.5095 72.96C15.4695 72.96 16.2794 72.96 17.0694 72.96C19.6093 71.28 21.8892 69.41 22.9391 66.96C24.5991 65.04 25.9691 63.47 27.1591 62.1C28.369 61.78 29.3389 61.63 30.2089 61.26C31.2389 60.82 32.2289 60.82 33.2989 61.03C33.6589 61.46 34.0188 61.88 34.3488 62.27C35.1388 62.27 35.8487 62.27 36.4887 62.27C37.1487 61.77 37.6887 61.27 38.3087 60.91C38.9987 60.51 39.8586 60.37 40.4586 59.89C41.1085 59.36 41.8686 59.6 42.5286 59.24C42.9985 58.84 43.4885 58.43 43.9684 58.03C44.4084 58.03 44.8084 58.03 45.2484 58.03C45.7984 58.48 46.3483 58.94 46.9483 59.44C47.5783 59.4 48.2183 59.37 48.8683 59.33C49.6783 58.48 50.5982 57.75 51.1982 56.82C52.0081 55.57 53.0781 54.63 54.2081 53.6C55.218 53.78 56.218 53.96 56.978 54.09C58.078 53.59 58.9479 53.19 59.5879 52.9C60.3879 53 60.9379 53.12 61.4979 53.13C62.1278 53.15 62.7678 53.07 63.2778 53.04C64.0578 52.35 64.7177 51.76 65.3377 51.22C67.2976 51.22 69.1576 51.22 70.9975 51.22C72.2375 50.8 73.4574 50.4 74.7174 49.97C75.2374 49.2 75.5673 48.22 76.6973 47.83C76.8973 47.87 77.2074 47.93 77.5574 48C77.8874 48.57 78.2073 49.12 78.3773 49.42C78.7073 50.45 78.2573 51.32 78.9173 52.06C79.1073 51.94 79.2972 51.82 79.4372 51.73C79.6672 50.4 79.2772 49.09 79.8172 47.67C81.6171 47.02 82.8372 45.26 84.8071 44.62C85.1971 44.49 85.537 43.98 85.757 43.56C86.117 42.89 86.587 42.39 87.237 42.01C87.577 41.82 87.867 41.55 88.057 41.41C88.487 40.07 87.947 38.81 88.5169 37.65C89.6469 36.7 91.0368 37.44 92.3368 37.03C92.6567 36.81 93.0567 36.54 93.4367 36.28C94.0867 36.21 94.7266 36.14 95.4366 36.06C96.2366 35.19 97.0566 34.31 97.8866 33.41C99.2566 33.16 100.676 32.9 101.966 32.66C102.746 32.19 103.436 31.78 104.306 31.26C105.626 31.91 106.926 30.54 108.446 30.99C108.806 31.42 109.166 31.84 109.506 32.25C109.946 32.25 110.346 32.25 110.736 32.25C112.306 31.06 113.356 29.34 114.766 28.67C115.746 27.5 116.466 26.64 117.196 25.78C117.306 25.4 117.426 25.01 117.446 24.93C118.216 24.04 118.796 23.37 119.276 22.81C120.546 22.55 121.626 22.32 122.666 22.11C123.566 23.82 123.566 23.82 125.076 25.05C125.846 25.05 126.726 25.05 127.406 25.05C129.206 26.18 130.945 26.65 132.985 26.46C133.705 26.03 134.535 25.55 135.395 25.04C136.025 25.07 136.735 24.94 137.295 25.17C138.405 25.64 139.505 25.51 140.595 25.45C142.365 25.17 143.025 23.37 144.525 22.61C144.815 22.69 145.135 22.74 145.415 22.87C146.275 23.23 147.215 23.31 148.015 22.96C148.965 22.55 149.935 22.75 150.985 22.52C151.455 22.13 152.005 21.67 152.545 21.22C153.765 21.74 154.735 20.86 155.885 20.79C156.095 21.01 156.315 21.24 156.495 21.43C156.435 21.88 156.395 22.26 156.355 22.6C156.565 22.73 156.695 22.81 156.955 22.97C157.145 22.65 157.485 22.34 157.505 22.02C157.535 21.39 157.384 20.76 157.324 20.12C157.314 19.97 157.385 19.82 157.425 19.62C157.685 19.38 157.985 19.11 158.285 18.84C158.955 18.78 159.584 18.72 160.124 18.68C160.624 18.35 161.024 18.08 161.354 17.86C162.154 17.86 162.874 17.86 163.564 17.86C164.814 18.75 165.664 19.91 166.404 21.01C168.464 21.28 170.364 21.53 172.344 21.79C172.844 22.2 173.404 22.65 173.944 23.1C175.284 23.1 176.574 23.1 177.894 23.1C178.174 22.98 178.454 22.8 178.764 22.73C180.174 22.43 181.314 21.8 181.964 20.43C182.244 19.85 182.784 19.45 183.404 19.19C184.064 18.91 184.704 18.56 185.274 18.28C186.274 18.28 187.154 18.28 188.034 18.28C188.713 17.97 189.373 17.67 189.983 17.39C190.753 17.39 191.473 17.39 192.193 17.39C192.713 17.84 193.203 18.26 193.573 18.58C194.343 18.78 194.953 18.97 195.583 19.1C196.273 19.25 196.963 19.34 197.713 19.47C197.783 20.38 197.833 21.17 197.903 22C198.443 22.51 198.953 23 199.373 23.4C199.993 23.3 200.453 23.23 200.833 23.17C201.503 23.7 202.063 24.15 202.603 24.59C203.063 24.57 203.453 24.55 203.853 24.53C205.143 23.33 206.413 22.17 208.433 22.86C209.063 23.5 209.743 24.18 210.353 24.8C210.183 25.49 210.043 26.03 209.923 26.52C210.763 27.96 212.323 27.85 213.463 28.48C214.363 28.38 215.263 28.66 216.143 28.16C216.203 27.34 216.262 26.55 216.322 25.77C217.082 24.97 217.812 24.21 218.522 23.46C218.622 22.88 218.722 22.33 218.842 21.68C219.092 21.43 219.382 21.16 219.562 20.98C220.412 20.7 221.092 20.47 221.622 20.29C222.582 20.29 223.382 20.29 224.082 20.29C225.112 20.97 226.042 21.59 226.922 22.17C228.452 21.99 228.722 20.85 229.032 19.89C230.192 18.72 231.272 17.64 232.322 16.57C232.872 16.36 233.392 16.16 233.842 15.99C234.232 15.25 234.572 14.6 234.722 14.32C235.972 12.76 236.972 11.5 237.982 10.24C238.032 9.67 238.072 9.11 238.112 8.66C238.602 7.72 239.032 6.87 239.492 5.97C240.522 5.67 241.732 5.58 242.622 5C243.952 4.15 245.451 3.93 246.831 3.29C247.811 3.94 248.741 4.55 249.551 5.09C250.161 5.2 250.631 5.29 251.101 5.37C251.441 5.88 251.751 6.35 252.131 6.93C252.851 7.22 253.671 7.55 254.541 7.9C255.081 8.4 255.671 8.94 256.141 9.37C257.231 9.74 258.251 9.3 259.211 9.78C259.341 10.48 259.471 11.17 259.591 11.79C260.131 12.06 260.561 12.28 260.611 12.3C262.751 12.71 264.371 12.19 266.191 11.73C266.421 11.52 266.781 11.2 266.921 11.06C267.131 10.21 267.261 9.69 267.381 9.21C267.981 9.09 268.451 9 268.961 8.91C269.951 7.85 271.071 6.93 272.381 6.46C272.981 5.89 273.501 5.39 274 4.91C274.49 4.75 274.95 4.6 275.06 4.56C276.12 3.93 276.5 3 277.52 2.76C278.22 2.98 278.98 3.22 279.65 3.43C280.14 3.87 280.56 4.24 280.99 4.62C281.58 4.62 282.14 4.62 282.74 4.62C283.18 4.33 283.65 4.03 283.96 3.83C285.72 3.38 287.12 4.41 288.59 4.23C289.23 4.74 289.79 5.19 290.36 5.66C291.49 5.4 292.56 5.15 293.74 4.87C294.66 6.06 296.39 6.38 296.96 8.01C297.87 7.88 298.71 7.16 299.41 7.87C300.02 8.91 299.03 9.66 299.23 10.66C299.37 10.84 299.57 11.08 299.77 11.33C300.27 11.43 300.74 11.51 301.23 11.61C301.52 11.98 301.82 12.35 302.16 12.77C302.74 12.92 303.349 13.07 303.959 13.22C304.679 12.16 305.349 11.17 305.999 10.22C306.759 10 307.439 9.81 308.139 9.61C308.399 9.91 308.609 10.14 308.759 10.33C308.839 11.06 308.909 11.69 308.989 12.34C309.269 12.54 309.519 12.72 309.799 12.92C310.319 12.59 310.789 12.3 311.199 12.04C311.829 12.04 312.379 12.04 312.849 12.04C313.339 12.37 313.739 12.64 314.079 12.87C314.949 12.94 315.749 13 316.519 13.06C317.049 13.67 317.519 14.22 318.019 14.81C318.379 14.81 318.769 14.81 319.199 14.81C319.749 14.35 320.309 13.9 320.809 13.49C322.179 13.44 323.279 12.99 324.069 11.97C324.799 11.02 325.449 10.01 326.149 9.03C326.239 8.91 326.399 8.83 326.619 8.66C326.829 8.65 327.139 8.64 327.559 8.62C328.079 9.2 328.599 9.79 329.199 10.46C330.408 10.53 331.678 10.61 332.868 10.41C333.618 9.75 334.278 9.17 334.838 8.68C335.658 8.52 336.288 8.58 336.778 9.11C337.278 9.65 337.998 9.44 338.588 9.66C339.188 9.89 339.758 10.2 340.298 10.46C341.148 10.53 341.938 10.59 342.718 10.66C343.238 11.47 343.698 12.21 344.128 12.89C345.728 12.8 345.988 12.7 347.078 11.83C347.438 11.54 347.818 11.28 348.258 10.97C348.728 11.47 349.128 11.86 349.488 12.29C349.848 12.72 350.098 13.25 350.508 13.62C351.448 14.47 351.918 15.56 352.088 16.36C352.688 17.29 353.088 17.88 353.438 18.5C353.788 19.11 354.078 19.75 354.348 20.28C354.198 20.71 354.098 21 354.018 21.24C354.628 22.83 356.408 22.56 357.188 23.56C357.888 23.61 358.448 23.66 358.898 23.69C359.398 24.02 359.788 24.28 360.158 24.52C360.608 24.4 360.987 24.3 361.437 24.17C362.187 24.87 362.947 25.59 363.597 26.2C364.687 26.83 365.657 27.38 366.657 27.96C367.247 27.48 367.797 27.02 368.267 26.63C369.637 26.36 370.887 26.11 372.237 25.85C372.997 25.15 373.817 24.38 374.617 23.64C375.897 23.69 377.107 23.38 378.447 24.01C378.567 24.9 379.047 25.69 379.697 26.43C380.197 27.01 380.327 27.88 380.677 28.6C380.887 29.03 381.277 29.37 381.467 29.81C381.647 30.23 381.667 30.72 381.747 31.12C383.117 31.78 384.177 30.93 385.267 30.73C385.817 30.28 386.307 29.86 386.757 29.49C387.397 29.49 387.956 29.49 388.556 29.49C389.166 30.01 389.776 30.53 389.976 30.7C390.406 32.25 390.686 33.25 390.876 33.89C391.686 34.94 392.236 35.73 392.856 36.46C393.316 37.01 393.786 37.62 394.386 37.98C395.666 38.75 396.586 39.84 397.466 40.85C397.566 41.76 397.646 42.54 397.716 43.27C398.546 43.5 398.796 42.78 399.316 42.63C399.846 42.47 400.386 42.36 400.606 42.31C401.396 42.41 401.876 42.47 402.166 42.51C403.516 42.22 404.276 41.33 405.066 40.69C405.646 40.59 406.116 40.52 406.606 40.44C406.976 40.01 407.326 39.6 407.676 39.21C408.136 39.35 408.516 39.47 408.976 39.61C409.836 39.32 410.726 38.96 411.656 38.71C412.306 38.53 412.946 38.62 413.356 39.28C413.936 41.14 414.256 43.02 413.976 44.97C413.896 45.58 412.976 45.85 413.286 46.62C413.666 46.95 414.066 46.9 414.406 46.65C414.936 46.28 415.416 45.91 416.126 45.86C416.746 45.82 417.356 45.54 417.885 45.39C419.525 45.81 421.055 46.21 422.555 46.6C423.025 49.65 424.385 51.95 427.025 53.11C428.145 53.17 429.015 53.22 429.945 53.27C430.595 53.92 431.215 54.55 431.875 55.22C431.835 56.88 432.675 58.13 433.705 59.07C433.915 59.7 434.075 60.15 434.165 60.42C435.065 61.27 435.815 61.98 436.645 62.76C437.025 62.82 437.495 62.9 437.945 62.97C438.425 63.27 438.895 63.55 439.305 63.81C439.815 63.45 440.215 63.18 440.655 62.88C441.105 62.92 441.575 62.96 442.045 62.99C442.505 63.64 442.945 64.21 443.325 64.82C443.565 65.22 443.705 65.68 443.905 66.17C444.505 66.17 445.055 66.17 445.655 66.17C446.005 65.96 446.404 65.71 446.864 65.43C447.424 66.15 447.954 66.84 448.444 67.46C448.734 67.44 448.884 67.43 449.034 67.41C449.264 67.39 449.494 67.36 449.534 67.35C450.534 68.27 451.424 69.08 452.204 69.8C452.334 70.68 452.434 71.38 452.504 71.81C453.804 72.94 454.894 73.89 455.944 74.8C456.434 74.97 456.874 75.12 457.284 75.26C458.024 76.76 459.214 77.73 460.284 78.72C460.854 78.81 461.324 78.89 461.964 78.99C462.494 79.65 463.084 80.39 463.634 81.08C464.234 81.23 464.764 81.36 465.314 81.5C465.394 82.23 465.464 82.86 465.544 83.53C465.964 83.9 466.364 84.27 466.734 84.6C467.234 84.46 467.614 84.36 468.244 84.19C468.724 84.68 469.284 85.24 469.844 85.81C470.724 89.59 470.084 93.33 470.364 97.12C471.734 98.29 473.124 99.49 474.394 100.59C474.754 102.01 475.663 103 475.873 104.28C475.883 104.34 475.983 104.39 476.093 104.48C476.443 104.48 476.843 104.48 477.203 104.48C477.443 104.31 477.633 104.16 477.833 104.03C478.093 103.87 478.373 103.73 478.783 103.51C479.393 104.1 479.973 104.66 480.303 104.98C480.463 105.84 480.543 106.3 480.643 106.86C481.283 106.72 481.803 106.6 482.383 106.48C482.803 106.69 483.223 106.91 483.743 107.18C484.203 108.03 484.693 108.94 485.463 110.35C485.693 110.56 486.343 111.17 486.983 111.78C487.643 112.41 488.083 113.17 488.213 114.08C488.493 116 489.593 117.62 489.993 119.58C492.373 119.42 494.593 119.69 496.783 120.23C497.113 120.46 497.433 120.7 497.743 120.92C499.813 120.39 499.853 120.39 501.203 120.94C501.523 121.77 501.043 122.74 501.673 123.49C503.932 124.83 506.542 125.5 508.432 127.22C510.132 127.49 511.702 127.74 513.342 128.01C513.892 128.52 514.482 129.07 514.952 129.51C516.182 129.85 517.262 130.15 518.302 130.44C519.132 131.74 519.802 133.01 519.872 134.45C520.282 134.84 520.632 135.17 520.912 135.43C521.502 135.52 521.972 135.6 522.362 135.66C523.262 136.36 524.082 136.99 524.832 137.57C525.332 138.45 524.802 139.43 525.412 140.31C526.162 140.37 526.952 140.42 527.742 140.48C528.862 140.85 528.782 142.09 529.442 142.86C530.492 142.86 531.531 142.86 532.451 142.86C533.671 143.9 534.771 144.83 536.141 146C536.341 146.49 536.661 147.31 537.031 148.23C537.501 148.62 538.051 149.09 538.561 149.52C538.651 150.04 538.731 150.51 538.791 150.88C539.761 152.19 541.421 152.27 542.391 153.4C542.671 153.73 543.241 153.81 543.801 154.05C545.311 154.05 546.921 154.05 548.471 154.05C549.321 155.15 550.101 156.16 550.981 157.3C552.011 157.3 553.131 157.3 554.161 157.3C554.831 157.86 555.391 158.31 555.851 158.69C557.141 159.04 558.411 158.5 559.491 159.09C561.24 162.4 562.13 163.56 565.4 165.51C565.79 165.28 566.19 165.04 566.59 164.81C567.26 165.37 567.92 165.84 568.21 166.71C568.08 167.2 567.94 167.73 567.79 168.28C568.67 169.18 569.39 170.16 570.56 170.65C571.8 171.18 573.03 171.75 574.37 172.35C575.83 172.19 576.62 170.79 577.87 169.96C578.22 170.05 578.59 170.14 579.07 170.26C579.37 171.01 579.65 171.76 579.96 172.49C580.01 172.61 580.2 172.67 580.37 172.78C580.88 172.5 581.42 172.22 582.05 171.87C582.72 172.71 583.31 173.45 583.95 174.26C584.72 174.3 585.52 174.35 586.43 174.4C586.82 174.73 587.24 175.09 587.44 175.25C587.58 176.24 587.67 176.86 587.79 177.7C589.32 177.12 590.789 177.07 592.319 177.45C592.409 178.18 592.479 178.81 592.539 179.35C592.859 179.83 593.129 180.23 593.269 180.43C593.649 181.7 592.969 182.95 594.039 183.85C594.269 183.91 594.499 184.02 594.729 184.01C596.039 183.95 597.069 184.49 597.949 185.41C598.789 186.28 599.639 187.13 600.569 188.06C600.069 189.05 600.129 190.06 600.379 191.17C601.079 191.04 601.679 190.93 602.289 190.82C602.689 191.19 603.039 191.51 603.429 191.87C603.649 192.78 603.889 193.72 604.579 194.41C605.129 194.65 605.769 194.74 606.129 195.11C607.069 196.07 608.239 196.54 609.439 196.87C610.099 197.57 610.709 198.22 611.299 198.84C611.339 199.64 611.369 200.36 611.419 201.21C611.839 201.87 612.289 202.63 612.799 203.35C613.399 204.2 613.219 205.21 613.429 206.21C613.999 206.74 614.579 207.28 615.019 207.7C615.959 207.78 616.749 207.68 617.389 207.95C618.569 208.44 619.719 208.22 620.898 208.1C621.228 209.03 621.538 209.92 621.808 210.67C622.898 211.66 624.148 211.63 625.378 211.81C627.498 214.45 630.298 215.85 633.598 216.17C634.218 217.03 634.558 218 635.558 218.39C635.938 218.39 636.338 218.39 636.588 218.39C637.268 218.02 637.818 217.71 638.428 217.38C639.288 218.1 640.088 218.76 640.798 219.35C641.478 219.35 642.038 219.35 642.518 219.35C643.008 219.02 643.398 218.75 643.818 218.47C644.218 218.47 644.658 218.37 645.018 218.49C646.608 219.02 648.187 219.61 649.447 220.07C650.797 221.02 650.967 222.29 651.407 223.34C652.137 223.82 652.807 224.26 653.557 224.76C655.477 224.7 657.497 225.01 659.427 224.24C659.917 224.67 660.317 225.08 660.777 225.38C661.227 225.67 661.737 225.86 662.307 226.13C662.197 226.59 662.117 226.97 661.997 227.49C662.157 227.89 662.357 228.4 662.567 228.91C662.597 228.97 662.697 229 662.637 228.96C664.187 229.17 665.617 229.37 666.907 229.55C668.097 229.03 669.187 228.56 670.067 228.17C671.127 228.17 671.937 228.17 672.737 228.17C673.437 228.4 674.117 228.63 674.387 228.72C676.157 229.54 676.297 231.38 677.966 232.07C678.946 231.92 680.116 231.73 681.346 231.54C681.806 232.02 682.236 232.48 682.556 232.83C682.636 233.81 682.706 234.6 682.766 235.33C683.396 235.78 683.916 236.15 684.476 236.54C684.536 237.52 684.596 238.48 684.656 239.44C685.066 240.92 686.136 241.71 687.436 242.14C688.556 242.14 689.596 242.14 690.606 242.14C691.146 241.67 691.636 241.26 692.146 240.82C692.886 240.82 693.606 240.82 694.376 240.82C694.736 241.06 695.136 241.34 695.526 241.6C696.086 241.71 696.626 241.82 697.126 241.92C697.546 242.51 697.916 243.02 698.196 243.41C700.316 244.28 702.676 243.83 704.386 245.35C704.286 245.9 704.196 246.35 704.116 246.81C704.576 246.99 704.965 247.09 705.315 247.28C705.725 247.51 706.105 247.81 706.365 247.99C707.035 247.99 707.515 247.99 707.935 247.99C708.465 247.65 708.935 247.34 709.295 247.11C709.765 247.11 710.085 247.11 710.395 247.11C710.815 247.4 711.215 247.67 711.255 247.7C713.045 248.17 714.435 248.53 716.175 248.99C716.605 248.99 717.425 249.06 718.225 248.97C718.855 248.9 719.455 248.65 720.025 248.49C720.705 248.69 721.305 248.86 721.715 248.98C723.125 248.72 723.825 247.74 724.715 247.13C725.165 247.13 725.565 247.13 725.975 247.13C726.545 247.59 727.095 248.05 727.725 248.56C729.245 248.37 730.735 248.61 732.245 249.38C732.335 249.58 732.465 249.86 732.595 250.15C732.755 250.51 732.914 250.86 733.085 251.26C733.615 251.32 734.084 251.4 734.554 251.43C735.034 251.46 735.524 251.44 735.824 251.44C737.444 251.98 738.514 252.98 739.294 254.22C739.744 254.92 740.274 255.49 740.874 256.03C740.984 256.13 741.164 256.14 741.394 256.22C741.814 255.95 742.284 255.66 742.794 255.33C744.344 255.5 745.584 254.85 746.604 253.69C746.924 253.33 747.294 253 747.654 252.69C747.764 252.6 747.944 252.59 748.154 252.52C748.424 252.76 748.704 253.02 749.014 253.29C749.394 253.35 749.794 253.41 750.174 253.47C750.654 253.78 751.114 254.08 751.384 254.26C752.504 254.26 753.384 254.26 754.184 254.26C755.494 253.29 755.794 251.46 757.424 251.01C758.794 251.11 759.944 252.2 761.334 251.86C761.854 251.52 762.324 251.22 762.614 251.03C763.803 251.03 764.763 251.03 765.543 251.03C766.463 251.57 767.223 252.01 767.943 252.43C768.673 252.43 769.323 252.39 769.963 252.44C770.663 252.5 771.363 252.64 772.073 252.74C772.253 252.37 772.423 252.02 772.623 251.61C773.293 251.47 773.983 251.33 774.443 251.24C775.503 251.54 776.353 251.78 777.193 252.03C777.333 252.07 777.443 252.22 777.563 252.32C777.653 252.79 777.743 253.26 777.873 253.94C778.533 254.55 779.213 255.41 780.083 255.95C781.813 257.01 783.343 258.28 784.773 259.64C785.413 259.64 785.973 259.64 786.563 259.64C787.123 259.18 787.673 258.72 788.143 258.33C789.533 258.07 790.842 258.43 792.072 258.08C792.812 257.38 793.512 256.71 794.222 256.06C794.332 255.96 794.512 255.96 794.782 255.87C795.282 256.28 795.832 256.72 796.422 257.2C797.482 257.44 798.572 257.7 799.652 257.94C800.382 258.78 801.112 259.63 801.822 260.45C801.892 261.14 801.962 261.77 802.032 262.48C802.362 262.68 802.682 262.88 802.982 263.06C803.652 262.53 804.212 262.08 804.862 261.55C805.772 261.71 806.702 261.87 807.742 262.06C808.942 261.4 810.312 261.63 811.612 261.67C812.342 262.27 812.602 263.26 813.742 263.54C814.502 263.52 815.372 262.67 816.502 263.39C816.902 263.98 817.392 264.7 817.832 265.34C817.922 265.93 818.002 266.4 818.082 266.95C819.042 267.78 820.011 268.62 821.191 269.64C821.281 269.79 821.541 270.19 821.731 270.5C823.541 270.41 825.211 270.33 826.811 270.26C827.221 269.98 827.541 269.75 827.881 269.53C827.941 269.49 828.031 269.5 828.111 269.49C829.871 269.98 831.361 269.99 833.081 269.58C833.691 269.44 834.341 269.42 834.831 269.36C836.571 270.36 838.151 271.27 839.801 272.22C840.231 271.95 840.701 271.65 841.131 271.38C842.061 271.33 842.931 271.28 843.801 271.23C844.851 268.58 846.081 266.17 848.511 264.48C850.11 265.2 851.79 265.05 853.77 264.95C854.03 264.68 854.41 264.29 854.69 263.99C854.73 263.1 854.7 262.44 854.82 261.82C854.96 261.12 855.24 260.44 855.41 259.92C856.34 258.71 857.17 257.63 858.02 256.53C858.3 254.85 858.87 253.3 859.93 252.36C861.35 251.72 862.45 251.22 863.4 250.8C863.81 250.29 864.11 249.92 864.38 249.58C865.17 249.58 865.89 249.58 866.51 249.58C867.01 249.9 867.41 250.16 867.76 250.39C868.3 250.25 868.76 250.09 869.23 250.01C869.7 249.93 870.18 249.92 870.51 249.89C870.9 249.6 871.16 249.42 871.49 249.17C871.88 249.4 872.28 249.64 872.61 249.83C872.69 250.75 872.77 251.54 872.84 252.34C873.16 252.55 873.42 252.71 873.6 252.82C874.56 252.64 874.81 251.57 875.73 251.53C876.06 251.74 876.39 251.96 876.83 252.24C878.14 251.66 879.5 251.05 880.81 250.47C881.719 251 882.549 251.48 883.299 251.91C885.599 251.88 887.759 251.96 889.719 253.39C890.419 253.36 891.209 253.32 891.889 253.29C892.529 252.46 893.069 251.77 893.499 251.21C894.379 250.92 895.069 250.69 895.319 250.61C897.039 250.45 898.299 250.32 899.729 250.19C899.859 250.23 900.159 250.33 900.279 250.36C901.689 249.95 902.919 249.6 903.929 249.31C904.929 248.56 905.829 248.01 906.579 247.3C907.329 246.59 907.899 245.69 908.579 244.91C908.949 244.49 909.388 244.14 909.728 243.82C910.308 243.82 910.768 243.82 911.148 243.82C911.508 244.48 911.808 245.02 912.068 245.47C912.948 245.67 913.658 245.75 914.378 245.36C915.238 244.47 915.318 242.94 916.718 242.32C917.188 242.45 917.718 242.6 918.238 242.75C918.968 242.56 919.658 242.37 920.298 242.2C920.908 242.38 921.438 242.61 921.978 242.69C922.528 242.77 923.108 242.71 923.668 242.71C924.818 243.36 925.938 243.98 927.078 244.62C927.618 244.66 928.168 244.7 928.378 244.71C929.358 245.54 930.098 246.16 930.668 246.64C931.108 248.2 930.558 249.62 931.148 251.02C931.688 251.25 932.298 251.44 932.838 251.77C933.368 252.09 933.827 252.55 934.357 252.98C934.687 252.78 934.928 252.64 935.318 252.41C934.798 251.87 934.388 251.46 933.988 251.05C934.568 250.37 935.197 250.42 935.867 250.56C936.247 250.82 936.648 251.09 936.828 251.22C937.848 251.45 938.617 251.67 939.407 251.8C940.187 251.93 940.977 251.98 941.557 252.04C942.277 252.55 941.667 253.54 942.637 253.73C943.197 253 943.777 252.25 944.357 251.49C945.687 251.49 946.967 251.49 948.267 251.49C948.637 251.8 948.997 252.11 949.277 252.35C949.787 252.42 950.187 252.47 950.477 252.52C951.057 253.01 951.557 253.43 951.697 253.55C954.747 254.87 957.547 255 960.437 254.79C961.037 254.52 961.697 254.23 962.227 253.99C964.966 254.75 967.656 254.09 969.896 254.4C971.316 255.1 972.386 255.63 973.886 256.37C974.246 256.82 974.906 257.62 975.546 258.44C976.146 259.21 976.816 259.85 977.696 260.34C979.166 261.15 980.636 261.95 982.206 262.33C982.826 263.08 983.096 264.01 983.966 264.4C984.516 264.51 985.056 264.62 985.566 264.72C985.896 265.16 986.186 265.54 986.516 265.97C987.216 266.24 987.956 266.53 988.696 266.81C989.886 268.47 991.146 270.02 991.766 271.85C992.176 272.16 992.486 272.41 992.776 272.63C992.886 273.14 992.996 273.6 993.056 273.89C993.766 274.3 994.305 274.63 994.865 274.93C995.065 275.03 995.305 275.06 995.505 275.11C996.115 274.63 996.675 274.19 997.135 273.82C999.615 273.82 1001.96 273.82 1004.33 273.82C1005.05 274.63 1005.98 275.04 1006.9 275.52C1007.8 275.99 1008.46 276.9 1009.7 277.12C1010.62 276.68 1011.72 276.5 1012.98 276.75C1013.45 277.14 1014 277.6 1014.52 278.02C1014.99 278.02 1015.46 278.15 1015.78 278C1016.88 277.47 1018.03 277.24 1019.21 276.96C1020.43 276.67 1021.57 276.65 1022.89 276.74C1023.76 277.64 1024.79 278.48 1025.51 279.53C1026.27 280.64 1026.73 281.94 1027.32 283.15C1028.65 283.53 1029.95 283.91 1031.3 284.3C1031.92 284.02 1032.57 283.72 1033.26 283.41C1033.73 283.46 1034.21 283.5 1034.68 283.55C1034.75 283.56 1034.8 283.65 1034.86 283.7C1035.5 284.86 1035.36 286.45 1036.92 287.22C1037.43 287.27 1038.06 287.32 1038.42 287.35C1040.16 288.22 1041.54 289.2 1043.21 289.43C1043.83 290 1044.42 290.54 1045 291.07C1045.45 291.13 1045.87 291.1 1046.23 291.24C1046.67 291.42 1047.04 291.75 1047.45 291.99C1047.58 292.07 1047.76 292.07 1047.98 292.12C1048.38 291.99 1048.83 291.83 1049.5 291.61C1050.19 292.11 1051.13 292.25 1052.12 292.07C1052.58 291.77 1053.05 291.47 1053.54 291.16C1053.94 291.2 1054.33 291.25 1054.48 291.26C1055.2 292.41 1055.76 293.38 1056.39 294.29C1056.71 294.75 1057.17 295.13 1058 294.96C1058.5 294.57 1059.12 294.08 1059.64 293.67C1060.35 293.67 1060.9 293.67 1061.38 293.67C1062.03 294.18 1062.59 294.62 1063.07 295C1064.08 295.05 1064.96 295.09 1065.8 295.13C1066.35 295.6 1066.84 296.02 1067.18 296.32C1068.66 296.81 1069.95 297.23 1071.27 297.67C1071.68 298.02 1072.1 298.38 1072.59 298.79C1074.22 298.12 1075.61 296.56 1077.7 297.2C1077.95 297.61 1078.16 298.05 1078.47 298.41C1078.77 298.77 1079.17 299.06 1079.56 299.42C1081.08 299.32 1082.62 299.67 1083.89 299.08C1084.95 299.26 1085.81 299.41 1086.67 299.56C1087.61 300.04 1087.94 300.98 1088.38 301.84C1088.61 302.29 1088.86 302.68 1089.54 302.72C1090.03 302.32 1090.58 301.86 1091.07 301.46C1092.52 301.34 1092.52 301.34 1093.54 301.94C1093.47 303.04 1094.31 303.9 1094.63 304.94C1095.06 306.3 1096.08 306.86 1097.28 307.12C1098.84 307.45 1100.44 307.59 1102.24 307.85C1102.94 308.23 1103.66 309.1 1104.95 309.08C1105.43 308.7 1105.99 308.25 1106.6 307.77C1107.02 307.7 1107.49 307.63 1108.03 307.54C1108.42 307.2 1108.83 306.81 1109.27 306.47C1109.45 306.33 1109.71 306.29 1110.02 306.18C1110.53 306.48 1111.08 306.8 1111.72 307.18C1112.67 307.18 1113.72 307.17 1114.77 307.18C1115.89 307.2 1116.9 306.31 1118.27 306.9C1118.48 307.04 1118.88 307.31 1119.27 307.58C1119.84 307.64 1120.4 307.69 1120.91 307.74C1121.25 308.04 1121.54 308.31 1121.81 308.56C1122.82 308.56 1123.86 308.8 1124.73 308.51C1126.26 308 1127.75 308.21 1129.13 308.19C1129.72 308.55 1130.18 308.83 1130.67 309.13C1131.41 308.45 1132.06 307.86 1132.71 307.26C1133.22 307.26 1133.7 307.26 1134.2 307.26C1134.96 308.01 1135.7 308.78 1136.71 308.79C1137.58 309.61 1138.34 310.33 1139.12 311.06C1140.38 311.06 1141.58 311.06 1142.64 311.06C1143.25 311.45 1143.72 311.75 1144.08 311.98C1145.04 311.98 1145.84 311.98 1146.62 311.98C1147.06 311.68 1147.46 311.41 1147.87 311.13C1149.3 311.11 1150.64 310.65 1152 310.26V0H0V69.77Z" fill="#4F5565"/>
</svg>
