<svg width="1152" height="171" viewBox="0 0 1152 171" fill="none" xmlns="http://www.w3.org/2000/svg">
<path d="M0 146.55C0.570005 148.22 0.750085 149.88 0.0800788 151.61C-0.019922 151.86 0.129933 152.22 0.179933 152.59C0.529936 152.85 0.920096 153.13 1.3401 153.44C2.81011 153.44 4.27995 153.44 5.65996 153.44C6.58997 152.81 7.39997 152.25 8.14997 151.74C9.52999 151.59 10.83 151.45 11.92 151.33C13.13 150.33 14.1401 149.49 15.1901 148.63C16.8701 148.63 18.5102 148.63 20.2802 148.63C21.5102 147.83 22.9101 147.4 24.6301 147.8C25.4901 148.24 26.5101 148.76 27.3801 149.2C28.5601 151.03 29.6102 152.7 30.7002 154.33C31.0702 154.88 31.5603 155.33 32.4803 155.25C33.1303 154.49 33.8503 153.64 34.5203 152.85C35.7903 152.61 36.9104 152.41 37.7804 152.24C38.8904 151.34 39.7703 150.61 40.6703 149.89C40.7903 149.79 40.9702 149.76 41.1302 149.69C42.5903 149.61 44.0704 149.52 45.3105 149.45C46.3505 148.78 47.1604 148.25 47.9604 147.72C48.6704 147.96 49.2904 148.17 49.9704 148.4C51.1604 148.03 52.4004 147.64 53.7004 147.24C54.6604 146.42 55.6605 145.57 56.5205 144.84C57.7005 144.66 58.6604 144.5 59.6704 144.35C60.3804 143.64 61.0706 142.94 61.5806 142.43C61.8906 141.37 62.1307 140.59 62.3707 139.78C63.1107 139.11 63.8306 138.45 64.5406 137.81C65.4706 137.81 66.2807 137.81 67.0907 137.81C68.6007 138.63 69.6607 139.87 70.5907 141.1C70.8007 141.87 70.9706 142.5 71.2706 143.59C73.1107 144.47 73.5707 147.04 75.5607 148.51C76.1907 148.28 76.7806 147.98 77.4106 147.87C78.3806 147.7 79.3808 147.73 80.3408 147.53C81.3008 147.34 82.2006 146.85 83.1606 146.71C84.2706 146.55 85.4707 146.34 86.4307 147.28C86.8407 148.52 87.0308 149.91 88.8308 150.49C90.3309 150.54 92.1409 150.6 93.8209 150.65C94.6409 151.19 95.3308 151.64 96.0008 152.08C96.3608 151.9 96.5308 151.63 96.4308 151.3C96.1508 150.37 95.5107 149.53 95.9107 148.13C96.1307 147.72 96.5208 146.99 96.9308 146.28C97.0108 146.15 97.1909 146.08 97.3309 145.96C98.0609 145.52 98.9008 145.61 99.7108 145.61C100.751 145.6 101.591 145.02 102.531 144.77C103.341 144.56 104.171 144.57 104.971 144.85C105.581 145.06 106.181 145.3 106.711 145.5C108.631 144.24 110.401 143.06 112.191 141.9C112.301 141.83 112.511 141.91 112.711 141.93C113.291 142.45 113.881 142.98 114.431 143.47C115.321 143.59 116.131 143.71 116.491 143.76C117.981 144.28 118.511 145.72 120.111 145.28C120.961 144.54 121.951 143.68 122.741 142.99C123.981 142.54 124.941 142.57 125.911 142.92C126.991 143.3 128.071 143.69 129.431 144.17C130.491 145.3 131.731 146.62 132.971 147.94C133.081 148.06 133.131 148.23 133.211 148.38C133.391 149.74 133.781 150.97 135.381 151.47C136.271 151.53 137.261 151.59 138.201 151.65C140.721 152.58 142.971 153.92 145.261 155.48C146.271 155.02 147.291 154.32 148.491 154.74C149.591 155.11 150.171 156.37 151.381 156.42C151.611 156.42 151.791 156.46 151.941 156.41C152.721 156.16 153.491 155.89 154.311 155.61C156.051 155.32 157.901 155.8 160.061 155.11C161.281 153.24 163.621 152.33 165.521 150.95C166.131 151.12 166.611 151.25 167.021 151.37C168.791 150.81 170.501 150.26 172.231 149.71C173.081 150.29 173.892 150.85 174.742 151.43C175.202 151.43 175.692 151.43 176.342 151.43C177.612 150.31 178.952 149.12 180.472 147.77C182.072 149.29 183.552 148.13 185.412 147.55C187.742 147.55 190.382 147.55 192.642 147.55C193.612 147.18 194.222 146.95 194.892 146.69C195.882 147.33 196.832 147.94 197.852 148.59C199.812 148.54 201.792 148.49 203.772 148.43C203.922 148.43 204.072 148.3 204.222 148.23C204.482 148.03 204.772 147.87 204.992 147.63C205.212 147.39 205.352 147.08 205.522 146.81C205.672 145.51 205.832 144.22 205.942 143.21C206.832 141.81 207.852 141.42 209.082 141.88C210.012 142.22 210.862 142.77 212.002 142.42C212.742 141.91 213.552 141.35 214.222 140.88C215.352 140.66 216.392 140.64 217.262 140.24C218.702 139.59 220.132 139.59 221.812 139.78C223.312 140.76 224.802 142.11 227.022 142.59C227.452 142.57 228.102 142.53 228.692 142.5C229.582 141.9 230.392 141.34 231.142 140.83C232.822 141.22 234.412 141.59 236.092 141.98C237.372 143.12 238.722 144.31 240.052 145.49C241.312 145.49 242.452 145.49 243.692 145.49C244.302 144.97 244.942 144.47 245.542 143.9C246.902 142.61 248.492 141.8 250.352 141.63C251.192 141.55 251.932 141.21 252.702 140.94C255.022 140.14 257.382 139.42 259.772 138.65C260.692 138.96 261.612 139.27 262.462 139.56C263.872 139.63 265.182 139.69 266.182 139.74C267.512 140.19 268.482 141.12 269.612 140.1C269.462 139.79 269.332 139.5 269.182 139.21C268.962 138.8 268.742 138.39 268.542 138.03C270.002 135.91 271.132 133.68 273.352 132.13C274.442 131.75 275.662 131.27 276.912 130.9C277.352 130.77 277.863 130.88 278.103 130.88C279.063 131.4 279.222 132.44 280.222 132.57C280.872 132.72 281.482 132.52 282.022 132.11C282.672 131.62 283.232 130.98 284.033 130.83C285.083 130.83 286.063 130.82 287.053 130.84C287.203 130.84 287.353 130.97 287.533 131.05C289.463 132.27 290.652 134.42 292.692 135.54C293.223 135.58 293.712 135.65 294.203 135.66C295.683 135.68 297.173 135.67 298.713 135.67C299.743 135.25 300.793 134.8 301.963 134.65C303.243 134.48 304.483 133.96 305.743 133.61C306.823 133.31 307.793 132.45 309.303 132.98C310.873 134.03 312.163 135.79 313.923 137.26C314.683 137.62 315.573 138.05 316.543 138.51C317.273 138.26 318.043 138.01 319.153 137.63C320.463 137.63 322.113 137.63 323.603 137.63C325.453 136.58 327.163 136.33 328.943 137.3C329.223 137.45 329.563 137.49 329.753 137.54C331.193 137.54 332.503 137.54 333.913 137.54C334.653 136.89 335.353 136.19 336.133 135.6C337.043 134.91 338.033 134.32 338.883 133.76C339.683 132.13 340.543 130.74 342.113 129.97C346.623 129.6 346.623 129.6 348.903 130.23C349.493 132 347.663 133.14 347.683 134.74C347.933 135.55 348.573 135.74 349.233 135.55C350.483 135.19 351.693 134.7 352.843 134.29C354.543 131.69 356.703 129.69 358.803 127.99C360.633 127.42 361.843 129.02 363.553 128.54C364.363 128.01 365.313 127.39 366.193 126.82C367.313 126.82 368.303 126.82 369.223 126.82C370.183 127.28 371.073 127.71 371.943 128.12C372.833 128.92 373.693 129.69 374.413 130.34C375.753 131.02 376.923 131.62 378.173 132.26C378.683 132.82 379.293 133.39 379.763 134.06C380.603 135.27 381.353 136.55 382.153 137.79C383.323 139.62 384.843 141.11 386.653 142.29C386.833 142.41 387.233 142.2 387.673 142.12C387.923 141.08 388.033 139.9 388.493 138.9C389.003 137.8 388.873 136.63 389.273 135.55C389.363 135.3 389.743 135.16 389.993 134.97C391.123 134.97 392.103 135.98 393.333 135.49C394.154 135 395.173 134.77 395.713 134C395.963 133.29 396.174 132.68 396.334 132.23C397.604 131.34 398.754 130.82 400.124 130.68C401.244 130.56 402.334 130.09 403.794 129.68C405.414 129.68 407.393 129.69 409.383 129.67C409.703 129.67 410.014 129.51 410.514 129.38C411.384 128.64 412.374 127.78 413.364 126.94C414.734 126.82 416.024 126.7 417.014 126.61C418.074 126.01 418.604 125.41 418.734 124.53C418.854 123.69 419.154 122.94 420.044 122.19C420.814 121.82 421.854 121.32 422.664 120.92C424.574 120.83 426.214 120.76 427.774 120.69C428.074 120.35 428.294 120.11 428.494 119.87C428.994 118.28 428.304 116.54 429.444 114.59C431.354 113.5 433.624 112.21 436.284 111.54C437.234 110.74 438.234 109.89 439.324 108.97C441.444 108.94 443.574 108.82 445.624 109.02C447.064 109.67 448.464 110.21 449.524 111.32C451.094 111.87 452.124 113.33 453.914 113.97C455.324 113.39 456.894 112.96 458.514 112.69C459.764 112.48 461.024 111.86 461.984 110.66C462.084 110.32 462.324 109.86 462.354 109.38C462.484 107.31 463.304 105.57 464.744 104.1C465.204 103.63 465.744 103.17 466.014 102.6C467.024 100.42 468.834 98.98 470.584 97.48C470.804 97.29 471.194 97.32 471.524 97.24C472.994 97.7 473.634 99.31 475.254 99.9C475.874 99.9 476.694 99.9 477.584 99.9C478.714 98.97 479.844 98.03 480.834 97.2C481.864 97.06 482.674 96.96 483.454 96.85C484.454 96.2 485.364 95.46 486.394 94.98C487.694 94.38 487.964 92.88 489.234 92.13C490.774 92.13 492.424 92.13 493.934 92.13C494.874 92.32 495.534 92.96 496.444 92.82C497.714 92.15 498.694 90.96 500.344 90.84C501.134 90.79 501.684 89.95 501.954 89.04C502.034 87.63 502.124 86.16 502.194 84.97C502.904 83.64 503.694 82.84 504.934 82.25C505.594 82.25 506.414 82.25 507.224 82.25C508.064 82.83 508.874 83.39 509.784 84.01C510.514 84.01 511.335 84.01 512.095 84.01C513.365 83.37 514.305 82.49 514.815 81.23C514.915 80.39 515.005 79.57 515.085 78.94C516.115 77.42 517.034 76.06 517.934 74.73C519.594 74 521.195 74.01 522.785 74.69C523.395 74.95 523.994 75.21 524.884 75.06C526.074 74.63 527.424 73.92 529.384 74.5C530.115 74.62 530.625 76.04 531.915 75.99C533.675 75.62 533.615 73.64 534.465 73.03C535.645 72.28 536.475 71.76 537.175 71.32C537.705 70.25 538.155 69.37 538.355 68.97C538.865 67.54 538.555 66.48 539.335 65.27C540.555 63.99 542.025 62.44 543.415 60.99C543.605 59.83 543.755 58.87 543.905 57.93C544.635 56.58 546.135 55.86 546.545 54.37C546.805 52.89 546.435 51.37 546.875 50.04C548.695 47.92 548.695 47.92 552.805 45.55C554.415 45.5 556.065 45.45 557.675 45.4C559.345 44.56 560.965 43.75 562.605 42.93C563.515 41.97 564.415 41.02 565.115 40.28C565.595 38.91 565.545 37.64 566.475 37.13C569.275 35.8 572.125 35.62 574.835 34.61C577.695 34.5 580.675 34.7 583.475 34.47C584.525 33.94 585.415 33.5 585.815 33.3C587.765 31.48 589.335 30.02 590.305 29.12C591.385 27.67 591.095 26.45 592.115 25.87C593.385 25.7 594.685 25.54 595.715 25.4C596.775 24.66 597.485 23.99 597.975 23.01C598.125 22.11 598.275 21.15 598.455 20.07C598.915 19.68 599.395 19.27 599.915 18.82C600.765 19.11 601.515 19.42 602.305 19.61C603.095 19.8 603.915 19.85 604.745 19.96C605.865 21 606.915 22.04 608.045 23.01C608.385 23.3 608.915 23.38 609.335 23.54C610.225 22.94 611.035 22.38 611.925 21.78C612.855 21.75 613.845 21.77 614.825 21.68C616.165 21.56 617.415 21.96 618.695 22.22C619.935 21.66 621.266 21.68 622.586 21.69C625.396 21.7 628.195 21.69 631.036 21.69C632.216 22.65 633.365 23.58 634.385 24.42C635.515 24.63 636.545 24.66 637.435 25.02C638.535 25.47 639.626 25.68 640.806 25.65C641.796 25.63 642.786 25.65 643.696 25.65C645.466 24.69 647.176 24.32 649.006 25.17C649.216 25.27 649.596 25 649.896 24.91C650.766 24.09 651.006 22.91 651.376 22.26C651.886 20.98 651.536 19.91 652.176 18.98C652.746 17.6 654.536 18.06 655.386 17.03C655.876 14.8 656.136 12.47 658.116 11.08C663.146 10.64 664.336 10.68 665.136 11.34C665.456 12.01 665.816 12.73 666.206 13.54C666.676 13.42 667.256 13.44 667.556 13.16C669.266 11.61 670.886 9.98 672.926 8.84C673.466 8.54 673.826 7.9 674.146 7.55C674.446 6.58 674.686 5.8 674.866 5.24C675.916 3.76 677.226 3.73 678.566 4.02C679.516 4.23 680.366 4.77 681.386 4.88C682.506 5 683.606 5.37 684.736 5.64C685.916 5.09 687.106 4.53 687.906 4.16C689.286 3.86 690.266 3.7 691.206 3.43C692.306 3.11 693.406 2.75 694.466 2.31C695.766 1.77 696.976 1.91 698.296 2.33C700.346 2.98 702.286 3.84 704.236 4.79C705.556 4.79 706.866 4.79 708.126 4.79C708.656 4.57 709.096 4.35 709.566 4.2C710.026 4.06 710.516 4 711.076 3.88C713.126 4.85 715.206 5.83 717.166 6.75C718.306 6.75 719.286 6.75 719.906 6.75C721.966 6.05 723.676 5.47 725.546 4.84C726.876 4.84 728.366 4.84 729.356 4.84C730.966 4.56 731.906 3.6 733.176 4.01C734.496 4.61 735.846 5.22 737.046 5.77C740.846 5.96 744.476 5.68 747.886 5.93C749.876 6.75 750.016 8.57 750.737 9.69C750.827 10.97 750.896 11.96 750.946 12.67C751.306 13.77 751.927 14.28 752.817 14.65C754.037 14.71 755.346 14.78 756.667 14.85C758.417 16.01 760.526 15.51 762.147 15.94C764.547 17.63 765.987 19.96 768.147 21.32C769.877 20.77 771.437 20.27 773.087 19.75C776.137 19.75 779.267 19.75 782.517 19.75C783.877 20.62 785.577 20.6 786.847 20.89C788.137 21.62 788.877 22.5 790.117 22.75C791.917 23.11 793.487 24.05 794.747 25.43C795.307 26.05 796.017 26.46 796.787 26.8C797.687 27.2 798.537 27.72 799.567 28.27C800.357 29.1 801.267 30.05 802.077 30.89C802.287 31.7 802.447 32.34 802.627 32.97C802.667 33.13 802.777 33.26 802.897 33.48C803.177 33.79 803.447 34.26 803.857 34.5C805.807 35.67 807.417 37.39 809.807 37.85C810.737 38.03 811.577 38.7 812.107 38.97C813.717 40.22 814.597 41.72 816.137 42.37C817.147 42.58 818.187 42.38 819.307 43.12C820.307 44.05 821.497 45.18 822.517 46.13C823.577 46.42 824.357 46.64 824.887 46.79C826.777 48.31 828.037 50.12 829.957 51.36C832.417 51.2 834.727 52.05 837.037 52.95C837.887 53.71 838.737 54.47 839.597 55.24C841.457 55.43 843.267 55.4 844.967 56.2C845.837 56.61 846.927 56.43 847.847 55.94C848.917 55.38 850.037 55.28 851.207 55.56C852.297 56.06 853.087 56.88 853.677 57.89C853.887 58.52 854.087 59.13 854.307 59.81C855.347 60.25 856.367 60.78 857.447 61.11C858.637 61.47 858.897 62.93 860.227 63.22C860.767 63.22 861.428 63.22 862.038 63.22C862.968 62.74 863.847 62.29 864.717 61.82C864.857 61.74 864.968 61.6 865.278 61.32C865.478 60.96 865.738 60.35 866.128 59.83C866.508 59.32 867.018 58.9 867.478 58.45C869.058 58.45 870.538 58.45 871.738 58.45C873.698 59.21 875.347 59.98 876.388 61.69C876.828 63.02 877.288 64.42 877.738 65.77C877.738 67.15 877.698 68.48 877.748 69.79C877.798 71.1 877.538 72.43 878.108 73.85C878.358 74.1 878.668 74.49 879.068 74.76C879.308 74.93 879.678 74.91 880.048 74.99C880.828 74.46 881.638 73.91 882.458 73.36C883.628 73.26 884.768 73.15 885.918 73.05C887.708 71.86 889.778 72.42 891.718 72.1C893.228 71.4 894.758 70.77 896.388 71.73C898.318 72.88 899.298 74.83 900.508 76.64C901.538 77.14 902.568 77.65 903.658 78.18C905.948 78.18 908.258 78.18 910.368 78.18C911.768 78.84 912.958 79.4 914.178 79.97C916.468 80.07 918.558 81.23 920.848 81.45C920.998 81.46 921.138 81.6 921.328 81.7C922.368 82.69 923.588 83.57 924.208 84.97C924.308 86.13 924.398 87.28 924.478 88.29C925.208 89.62 926.138 90.49 927.368 91.09C929.098 91.94 930.208 93.29 930.528 95.24C930.548 95.38 930.738 95.49 930.828 95.61C931.508 95.98 932.098 95.57 932.718 95.44C933.818 95.76 934.918 96.09 936.048 96.43C939.308 99.43 942.278 102.76 945.368 105.53C946.568 106.03 947.578 106.02 948.408 106.71C949.408 107.55 950.538 108.24 951.648 108.94C952.618 109.55 953.578 110.36 954.648 110.6C956.618 111.04 958.268 112.18 960.028 112.74C960.948 112.96 961.818 112.75 962.548 113.19C966.218 116.42 967.228 117.45 967.708 118.48C968.178 119.73 967.648 121.13 968.468 122.66C968.908 123.89 970.558 123.51 971.928 124.34C972.388 124.82 973.069 125.52 973.579 126.06C973.969 127.59 974.098 128.98 975.668 129.52C976.578 129.67 977.549 129.82 978.379 129.95C979.519 130.9 980.528 131.74 981.428 132.49C982.428 132.62 983.349 132.52 984.039 132.88C985.439 133.6 986.879 133.67 988.369 133.67C989.359 133.67 990.349 133.69 991.339 133.74C991.659 133.76 991.969 133.91 992.429 134.04C993.309 134.81 994.299 135.67 994.989 136.27C997.269 137.42 999.149 138.45 1001.1 139.33C1003.06 140.21 1004.84 141.37 1006.41 142.46C1007.65 142.54 1008.64 142.61 1009.53 142.67C1010.39 143 1011.16 143.3 1011.7 143.51C1014.11 143.51 1016.25 143.51 1018.33 143.51C1018.87 143.3 1019.33 143.13 1019.78 142.93C1020.73 142.5 1021.83 142.33 1022.67 142.78C1024.23 143.6 1025.87 143.5 1027.5 143.67C1028.69 144.23 1029.89 144.79 1031.12 145.37C1033.22 145.56 1035.25 146.1 1037.1 147.21C1037.2 148.89 1038.16 150 1039.36 150.95C1039.74 151.25 1040.24 151.4 1040.65 151.67C1041.06 151.94 1041.42 152.28 1041.74 152.53C1042.42 153.77 1043.04 154.92 1043.61 155.94C1045.09 156.73 1046.75 156.3 1047.99 157.27C1049.47 157.38 1050.95 157.48 1052.05 157.56C1053.19 157.9 1053.97 158.14 1054.76 158.35C1054.91 158.39 1055.09 158.32 1055.32 158.29C1056.6 157.7 1057.94 157.08 1059.4 156.42C1060.14 156.61 1060.93 156.81 1061.76 157.03C1062.93 156.52 1064.13 156 1065.35 155.47C1068.33 155.47 1071.31 155.47 1074.28 155.47C1075.1 155.47 1075.94 155.43 1076.97 156.02C1077.69 156.71 1078.63 157.64 1079.61 158.52C1079.97 158.84 1080.43 159.07 1080.78 159.29C1082.01 159.39 1083.15 159.48 1084.04 159.55C1085.39 160.38 1086.44 161.25 1087.65 161.71C1089.11 162.26 1089.75 163.77 1091.12 164.31C1094.13 164.57 1097.11 164.16 1099.76 164.5C1100.83 164.88 1101.6 165.16 1102.34 165.43C1104.88 165.43 1107.35 165.43 1109.29 165.43C1110.75 165.88 1111.73 166.08 1112.62 166.49C1113.65 166.97 1114.59 167.64 1115.6 168.25C1116.56 168.25 1117.65 168.52 1118.51 168.19C1120.07 167.61 1121.75 167.59 1123.26 166.97C1124.37 166.52 1125.47 166.37 1126.64 166.38C1127.63 166.39 1128.62 166.38 1129.27 166.38C1130.37 166.8 1131.14 167.1 1131.6 167.28C1133.58 167.35 1135.22 167.41 1136.74 167.47C1138.32 168.67 1139.77 169.76 1141.86 170.33C1142.72 170.33 1143.87 170.37 1145.03 170.32C1146.36 170.27 1147.65 170.44 1149.01 170.95C1150 170.47 1151 169.98 1152 169.51V0H0V146.55Z" fill="#4F5565"/>
</svg>
