<svg fill="none" height="89" viewBox="0 0 1152 89" width="1152" xmlns="http://www.w3.org/2000/svg"><path d="m0 0v64.6505h1.80141c.20015-.2001.30023-.3002.40031-.4003h1.00078c.20016-.2002.40031-.3002.60047-.5004h2.50196c.20015-.2001.40031-.3002.50039-.5004h3.00234c.20014.2002.40034.3003.50044.5004h.8006c.6004-.5004 1.0008-.9007 1.4011-1.2009.1001-.5004-.2002-1.0008.3002-1.301h2.7021c.4003-.5004.8006-1.0008 1.201-1.5012h1.7013c.3002.3002.6005.8006.9007.9007.9007.3002 1.4011.9007 1.8014 1.7013.3002.7006.9007 1.301 1.8014 1.5012.5004.1001.9007.5004 1.5012.9007.8006.1001 1.7013-.1001 2.5019.1001 0 .7005.5004 1.1008.9007 1.4011.5004.4003.7006.9007.9007 1.4011h6.1048c.2002-.2002.3002-.3003.4003-.4004h2.9023c.1001 0 .1001.1001.3002.2002.2002.2002.4003.5004.7006.8006h1.0008c.2001-.2001.4003-.3002.5003-.5004h1.0008l.7006.7006c.1001.3002.1001.5004.2001.7005.5004.1001.9007.1001 1.201.1001.3002.3002.6004.6005.9007.9007h1.6012c.5004-.7005 1.0008-1.4011 1.4011-2.0016h9.0071c.3002-.2001.4003-.3002.6004-.5003h3.4027c.2001.1.3002.3002.6005.5003h1.6012c.3002-.9007 1.6013-.9007 2.1016-1.7013.1001-.3002.1001-.5004.2002-.8006.8006-.4003 1.1009-1.5012 2.0016-1.6013 1.0007-1.0007 2.0015-2.0015 3.0023-3.0023.1001-.7006.2002-1.1009 1.0008-2.4019 0-.6005 0-1.301 0-1.9015.2002-.2001.3002-.3002.4003-.4003 0-.5004 0-1.0008 0-1.5012.4003-.4003.8006-.8006 1.301-1.2009h4.5035c.4004.7006 1.201 1.0008 1.9015 1.301.6005.3003 1.1009.7006 1.6013 1.201h1.4011c.6004 0 1.1008-.1001 1.7013.1.2002.2002.4003.4004.6005.7006-.7006.4003-.5004.9007-.5004 1.4011 0 .1001.1001.1001.1001.2001.2001.2002.5003.4004.6004.6005h2.0016c.7005-.7005 1.301-1.301 2.0015-2.0016.6005-.6004 1.3011-1.301 1.9015-1.9014 1.1009 0 1.3011-1.1009 2.1017-1.5012.5004-.2002.7005.4003.8006.4003h2.3018c.3002-.5004.6005-.9007.8006-1.4011.3003-.6005.5004-1.2009 1.1009-1.5012h.9007c.2002-.2001.4003-.3002.6005-.5004h4.0034c.7-.7005 1.301-1.301 1.901-2.0015h1.401c.601.6004 1.201 1.2009 1.802 1.7013.1.6005-.2 1.2009.2 1.7013.5.3003.8-.1 1.101-.4003h1.701c.3.4003.801 1.0008 1.201 1.5012h1.701c.601-.7006 1.301-1.301 1.902-2.0016h3.302c.1-.2001.401-.7005.601-1.0007h3.603c.3.2001.4.3002.5.4003h4.504c.2-.2002.3-.3003.5-.5004h2.002c.2-.2002.3-.3003.4-.4003h2.001c1.001.7005 1.502 1.8014 2.002 2.9022h1.601c.2-.2001.3-.3002.401-.4003h1c.501-.6005 1.101-1.2009 1.702-1.9015 0-.1.1-.3002.1-.7005h2.101c.2-.2002.301-.3003.401-.4003h2.101c.401.4003.601.6004.901.9007h2.002c.2-.2002.4-.3003.6-.5004h1.501c.2-.4003.801-.6005.701-1.201.5-.4003.8-1.0007 1.501-1.401.2.2001.5.4003.801.6004h1.901c.2.2002.5.5004.701.7006 0 .6004.1 1.1008.1 1.6012.2.2002.3.3003.4.4003.1.6005-.2 1.1009.2 1.7014.2 0 .3.1.501.1.2-.1.4-.3002.7-.5004h1.902c.2-.2001.3-.3002.5-.5003h1.501c.4-.3003.701-.7006 1.101-1.0008h2.002c.5-.5004 1-1.0008 1.401-1.4011.8 0 1.1-.7006 1.601-1.1009h1.001c.2-.2001.4-.3002.5-.5004h1.601c.301.7006.901.5004 1.501.4003.301-.3002.601-.6004.901-.9007.601 0 1.101-.2001 1.702.1001 0 .4003.1.8006.1 1.201.5.5003 1.1 1.1008 1.501 1.5011.6.3003 1.001.5004 1.501.8007h1.401c.601.6004 1.201 1.301 1.902 1.9014h1.401c.1-.1.3-.3002.4-.4003h3.102c.301.3003.601.6005.901.9007h1.101c.2.3003.5.5004.801.9007.4.6005 1.1.7006 1.601 1.0008.4.3002 1.101.3002 1.601-.4003h3.503c.8-.8006.8-.8006 1.501-1.0008.6.6005 1.301 1.301 2.002 2.0016.8-.3003 1.301.5004 2.201.6005.401-.5004.901-1.1009 1.201-1.5012h1.601c.601.4003.701.9007.901 1.4011.701-.3003.601-1.1009 1.101-1.5012s1.001-.7005 1.501-1.0008h1.902c.3.2002.4.3003.7.5004h2.502v2.7021c.501.2002.601.9007 1.301.7006 1.001-1.0008 2.002-2.0016 3.003-3.0024h2.501c.301.5004.501 1.0008.801 1.4011v1.1009c.5.5004.901 1.0008 1.201 1.4011h1.001c.6-.7006 1.301-1.4011 2.001-2.0016.801.1001 1.301.9007 2.202.4003.2-.3002.4-.7005.901-1.4011.3-.3002.8-.8006 1.301-1.301.1-.1001.3-.1001.7-.2001.201.3002.501.7005.601 1.0007 1.201.1001 2.202.6005 3.002 1.3011v1.401c.2.2002.3.4004.501.6005 0 .4003.1.8006.1 1.201h2.301c.301-.9007 1.502 0 1.802-1.0008h2.001c.701-.4003 1.201-.6005 1.702-.9007h.9c.801.8006 2.102.8006 2.803 1.8014v.9007c.3.3002.5.5004.7.7005h2.002c.6-.3002.7-1.0008 1.101-1.5011.4-.5004.9-1.0008 1.501-1.5012h2.602c.3-.5004.5-1.0008.901-1.5012.4-.5004.8-.9007 1.501-1.1009.5-.1.7-1.0007 1.401-.9007.3.3003.7.7006 1.101 1.0008h1.901c.1.2002.4.7006.501.9007h2.702c.5-.5004 1-1.0008 1.401-1.5011.8.6004.9 1.7013 1.801 2.3018.1.1.3.2001.501.3002.4-.2002.9.1001 1.401-.2002.2-1.1008.5-2.2017 1.401-2.9022h2.001c.301.3002.501.5004.701.7005v1.0008c.1.1001.3.3002.3.3002.4.8007 0 1.4011.4 1.9015h1.502c.8-.8006 1.701-1.7013 2.501-2.5019h2.002c1.001-1.0008 1.902-1.9015 2.902-2.9023h2.102c.4.4003.6.6005.901.9007.2-.2002.5-.5004.7-.7006 0-.3002 0-.6004 0-1.0007.601-.6005 1.201-1.1009 1.902-1.8014.4 0 1-.2002 1.501.1.2.2002.4.4004.6.6005v4.5035c.301.3003.601.5004.801.7006h4.003c.1.1.3.3002.5.5004h3.003c.5.6004 1.001 1.0007 1.601 1.6012.5-.5004 1.001-1.1008 1.601-1.6012h.801c1.001-1.0008 1.901-1.9015 2.902-2.9023.501-.2002 1.001-.5004 1.601-.7006.201.4004.301.8007.501 1.1009.3.4003.7.7006.901.9007.7-.6005 1.301-1.1008 1.901-1.6012-.2-.7006.601-.9007.5-1.6013-.1-.5004.301-1.1008.601-1.5012.4-.4003.3-.9007.6-1.301.401-.4003.401-1.0008.701-1.4011.3-.5004.7-.9007 1.001-1.301 0-.3002 0-.7005 0-.9007.4-.4003.7-.7005 1.001-1.0008 0-.3002 0-.7005 0-1.2009 1.601.3002 1.301-1.5012 2.301-2.1017h1.501c.101.1001.301.2002.401.4004.4.6004.8 1.2009.901 1.9014 0 .1001.1.1001.2.2002.4.4003.7.7005 1.101 1.1009h3.502c.2-.2002.3-.3003.501-.5004h1c.201-.3003.501-.6005 1.301-.3003.101.1001.401.6005.601.9007h1.301c.7.5004 1.201.9007 1.501 1.201v1.6012c.3.3003.5.5004.701.7006h3.002c.2-.2002.4-.3003.701-.6005.7.6005 1.701.7006 2.201 1.6013h1.001c.2.2001.4.3002.601.5003h.8c.4.4004.901.9008 1.501 1.5012.401 0 .901.1001 1.201-.5004.501.2002 1.101-.1 1.702.2002 0 .4003.1.8006.1 1.2009.7.7006 1.301 1.301 2.001 1.9015.1.1001.2.1001.3.2002.301-.3003.601-.6005.901-.9007h2.702c.2.3002.501.7005.701 1.0007h1.601c1.001-1.0007 1.001-1.0007 1.401-1.0007.3.3002.601.5004.901.7005v.8006c.7.8007 1.301 1.3011 2.001 2.0016h.801c.4.4003.601.6005 1.001 1.0008h1.501c.1 0 .1.1001.3.2001v1.4011c0 .1001.2.3003.2.4003h1.001c.2.2002.4.3003.601.5004h1c.301.3003.601.7006.901.9007.4.3003.2.8007.501 1.1009.3.3002.5.7005 1 .5004.401-.5004 1.101-.8006 1.201-1.4011.1-.5004.501-.8006 1.001-1.1009.801.4003 1.301-.9007 2.202-.4003.2-.2001.4-.3002.6-.5004h1.501c.301.3003.701.7006 1.001 1.0008h1.001c1.501-1.5012 3.002-3.0023 4.503-4.5035h3.503c.2-.2002.401-.3002.601-.5004h1.501c.7-.7005 1.301-1.301 1.901-1.9015h3.303c0 .4003.1.8006.1 1.201.2.2001.5.5003.701.7005h.5c.3 1.0008 1.101 1.5012 1.801 2.3018v1.5012c.401.2001.801.4003 1.401.7005h2.302c.601-.3002 1.101-.6004 1.702-1.0008h2.502c.5.9007 1.501 1.1009 2.301 1.5012.401-.4003.701-.8006 1.001-1.0008h.601c.4-.4003.8-.8006 1.2-1.2009.101-.4003-.2-.8006.201-1.2009h3.102c.2.2001.3.3002.4.4003h1.502c.9-.5004 1.401-1.5012 2.401-2.0016 1.001-.5004 1.902-1.1009 2.803-1.7013.5-.3003.9-.2002 1.601-.4003.2-.2002.5-.6005.6-.9007h1.702c.1.3002.2.6004.4.9007h1.001c.5.5004 1.001.9007 1.301 1.2009.1.6005-.1 1.0008.3 1.301.5.4003 0 1.0008.601 1.6013 0 0 .2.2001.4.3002h1.501c.701-.5004.701-1.301 1.301-1.8014.6-.4003.5-1.4011 1.301-1.7013.601.2001 1.201.7005 1.902.6004.4.5004 1.1.8007 1.2 1.4011-.6.6005-1.1 1.1009-1.601 1.6013.401.4003.601.6004.901.9007h1.101c.6.7005 1.301 1.4011 1.901 2.0015h2.602c.2-.2001.301-.3002.401-.4003h1.701c.6.8007 1.601 1.201 1.801 2.3018.501.4003.801 1.0008 1.502 1.201.5.2001 1 .6004 1.601.4003.2.2001.4.3002.6.5004h5.204c.1 0 .301.1001.501.2001 0 .4003.1.8007.1.8007.5.7005.9 1.2009 1.101 1.5011h3.202c.3-.3002.501-.5004.701-.7005.1-.4003-.201-.9007.2-1.201.3-.2001.3-.6004.3-.9007 0-.2001.1-.4003.2-.7005h1.902c.6.4003 1.201.7005 1.701 1.0008h2.002c.7-.7006 1.301-1.301 2.001-2.0016h1.001c.2.2002.5.5004.7.7006-.1.7005.301 1.2009.501 1.8014.2.5004.5.8006 1.101 1.1008.2-.1001.5-.3002.9-.6004h1.902c.3-.3003.4-.4004.7-.7006 0-.5004.101-1.1008.101-1.6012.4-.3003.8-.1001 1.2-.1001.201.2001.401.3002.501.4003.2-.2002.4-.3002.5-.4003h1.602c.2.6005.4 1.1008.9 1.4011.601 0 1.101.2001 1.702-.1001.1-.1001.3-.2002.4-.3002h2.001c.201.2001.401.3002.601.5004h2.502c.1.2001.1.5003.2.7005.6.6005 1.201 1.2009 1.801 1.8014h1.402c.2.2002.4.5004.8.8006v2.0016c.3.3002.601.5004.701.7005h2.502c1-.3002 1.401-.4003 2.001-.6004.401-.4003.901-1.0008 1.301-1.4011h1.702c.9.7005 1 1.8014 1.601 2.602.2.3003.2.8006.3 1.4011.2.1001.6.4003.901.6005v1.5012c.2.3002.4.5003.4.6004v1.301c.901 1.1009 1.001 2.7021 2.602 3.4027.2-.2002.5-.4003.701-.5004h1c.301.3002.501.5004.701.7006.1 1.1008-.1 2.2017.1 3.1024.601.3002.901 0 1.101-.3003h2.102c.3.3003.5.5004.7.8007v.8006c.3.4003.5.7005.701.9007h5.904c.1.2002.401.7005.501.9007h1.601c.3-.3002.6-.6005.901-.9007h1.201c.6-.6005 1.301-1.301 2.001-2.0016h2.402c.3.3003.6.6005.901.9007h3.502c.201-.2001.401-.3002.401-.4003.7-.4003.8.2002 1.201.4003.4.1001.8-.2001 1.201.2002.4.6005 1.401-.1001 1.701.7005 0 0 .1.1001.2.1001h1.501c.2 0 .3-.1001.501-.1001.4-.4003.9-.9007 1.301-1.4011.5.3003.7-.3002 1.101-.5003.3.1.8-.2002 1.1.2001.1.3002.1.5004.201.8006h1.801c.6-.7005 1.301-1.301 1.901-2.0015h1.001c.501-.5004 1.001-1.0008 1.301-1.301.501-.2002.801-.4004 1.401-.6005h.801c.2-.2002.4-.3002.6-.5004h3.003c.1.1001.2.3002.4.3002.1.1001.3.1001.5.2002.601-.3002.901-.9007 1.301-1.201.101-.3002.101-.5003.201-.7005.6 0 1.201-.1001 1.601-.1001.8-.7005 1.401-1.301 2.102-1.9015h.5c.1.2002.3.5004.7 1.0008 0-.1001 0 .1001 0 .3002.801.4004 1.502.8007 2.402 1.201h4.304c.2-.2002.5-.5004.7-.7006 0-.3002 0-.6004 0-1.0007.401-.4004.801-.8007 1.401-1.201h.801c.4 0 .801-.1001 1.301.2002.2.2001.5.4003.5.7005.1.6005.601.8006 1.101 1.201 1.001.7005 2.302 1.1008 2.902 2.3018v.9007c.801.8006 1.502 1.5011 2.202 2.2017h1.001c.4.4003 1.001.7005 1.201 1.2009.2.6005.5 1.0008 1.101 1.301.3-.2001.6-.4003.901-.5004h1.501c.5.3003.7.9008 1.201.9008h.3c.8-.8007 1.701-1.6013 2.502-2.502h1.101c.2.3002.6.6005.7.9007.1.6005.501.8006.801 1.1009h1.401c.4-.3003.6-.5004.801-.7006 0-.7005 0-1.4011 0-2.0015.2-.2002.5-.5004.7-.7006h1.101c.5.7006 1.101 1.5012 1.701 2.4019v3.3026c0 .1.1.1.2.2001h.601c.7-1.2009 2.202-1.5012 3.102-2.602.1-.1001.1-.3002.1-.4003-.3-.5004-.7-1.1009-.6-1.4011.901-.9007 1.401-1.4011 2.002-2.0016h1.401c.3.3002.6.6005.9.9007h1.001c.3-.3002.701-.7005 1.001-1.0008h3.002c1.501 1.0008 1.501 1.0008 3.203 1.1009 0 .2002.1.4003.1.7005.2.2002.4.4004.7.7006h1.101c.2-.2002.401-.5004.701-.9007 0-.5004 0-1.301 0-1.9015.3-.3002.6-.5004.8-.7005h4.404c.3-.3003.6-.5004.8-.7006 0-.4003 0-.7005 0-1.1009.901-.2001.301-.9007.501-1.4011.5-.5003.901-.9006 1.401-1.401v-.2002c0-.2002 0-.4003 0-.4003.3-.6005.5-.9007.7-1.1009h1.402c.6-.3002 1.1-.6004 1.801-1.0008h2.302c.2-.2001.4-.3002.6-.5003h.501c.8-.8007 1.701-1.7014 2.502-2.502.7.2002 1.401-.1001 2.301.2002.201.2001.401.6004.601.8006h4.704c.8-.8006 1.601-1.7013 2.401-2.502h1.702c.2-.3002.5-.7005.7-1.0008h2.602c.301-.3002.601-.6004 1.001-1.0007h2.602c.1-.5004.1-.9007.1-1.0008.501-.6005.901-1.1009 1.201-1.5012h1.401c.601-.5004 1.001-.9007 1.101-1.0008.4-.9007.701-1.5011 1.001-2.0015l.1.1c.3-.4003.5-.8006.701-1.1008.5.2001.9.4003 1.2.5004-.1.1-.1.1001-.2.2001.501.3003 1.001.7006 1.301.9007 0 .5004 0 .9007.1 1.201.601.4003 1.201.8006 1.802 1.1008h2.502c.4-.7005 1.001-.5004 1.601-.4003.801.6005.701 2.1017 2.102 2.0016.1.5004.1.9007.1 1.2009.2.2002.4.4003.6.6005.3.2002.601.1001.801-.1001 0-.3002 0-.7005 0-.8006.3-.6005.5-1.0008.7-1.4011h.901c.5-.3002.701-.8006 1.001-1.301.3-.6005.901-1.0008 1.401-1.4011 0-.4003 0-.7006 0-1.0008.4-.4003.801-.8006 1.001-1.0008 1.201-.6005 2.101-1.0008 3.002-1.5012.5-.3002.901-.2001 1.401-.2001.3.3002.601.6005.901.9007h2.001c.401-.6005 1.201-.4003 1.602-1.0008h3.903c.5-.4003.9-.8006 1.201-1.2009.1-.3003.1-.6005.2-.8007h1.001c.3.4004.7.7006.9 1.0008h1.401c.401-.4003.901-.9007 1.402-1.5011h1.501c.6.6004 1.201 1.301 1.801 1.9014h.901c.5-.5004 1.001-.9007 1.401-1.2009 0-.5004 0-1.0008 0-1.5012.6-.4003.4-1.0008.4-1.1008.801-.9007 1.301-1.6013 1.802-2.1017h1.601c.5.6005 1.101 1.0008 1.701 1.201v.8006c.701.8006 1.301 1.4011 1.802 1.9015h4.003c.2-.3003.6-.5004.7-.8006.1-.9008.901-1.1009 1.301-1.7014.501.1001.701-.3002 1.001-.6004.3-.3003.801-.6005.801-1.201 0-.2001.4-.7005.7-.7005.801 0 1.001-.7006 1.602-1.1009h1.901c.2-.2001.4-.5004.6-.5004.401 0 .601-.2001.801-.4003s.4-.4003.601-.6005h3.502c.401-.4003.701-.7005.901-1.0007.2.2001.4.3002.5.5003h2.002c.2-.2001.4-.3002.5-.5003h1.502c.5.5003 1 1.0007 1.501 1.5011h.5c.2.2002.4.5004.701.8007 0 .5003.1 1.0007.1 1.6012.3 0 .6.1001.7 0 .701-.7005 1.501-1.1009 2.402-1.5012.3-.1.601-.5004.901-.8006 0-.6005 0-1.1009 0-1.5012.3-.3002.5-.5004.8-.7005h1.001c.401-.3003.601-.8006 1.101-.9007.2.2001.501.5004.701.7005v.9007c.4.7006 1.301.7006 1.801 1.301h2.402c1.101 1.1009 2.102 2.1017 3.202 3.2025v.5004c.401.3003.601.9007 1.201.8007.501-.5004 1.001-1.1009 1.402-1.5012h2.401c.201-.3002.501-.7006.701-1.0008.801.2002 1.201-.2001 1.801-.5004h1.501c.601-.6004 1.201-1.301 1.902-2.0015h.901c.5-.5004 1-1.0008 1.501-1.5012h1.501c.3.3002.701.7005 1.101 1.0008h1.901c.201.2001.401.3002.501.4003h1c.301-.2002.401-.3003.501-.4003h2.602c.4.5004 1.001.8006 1.101 1.301.2.7005.7.9007 1.001 1.301.4.4003.8.8006 1.201 1.301h1.1c.301.4003.901.7006 1.001 1.201.2.7005.701 1.1008 1.101 1.5011.1.1001.3.2002.3.2002h2.002c.2-.2002.3-.3003.4-.4003.401.6004 1.101.4003 1.601 1.0008.1.2001.601 0 .901 0 .5.4003.901.9007 1.301 1.2009v.5004c.601.8006 1.701.9007 2.302 1.7013 1.101.2002 1.501 1.2009 2.202 1.7013.1.5004-.201 1.0008.3 1.3011h1.001c.8-.9008 2.101-1.1009 2.802-2.4019 0-.2002 0-.6005 0-.9007.1-.1001.3-.2002.4-.4003.1-.3003.2-.6005.3-.9007h1.602c.6 1.0007.9 2.4018 2.201 3.0023h.901c.701-.7005 1.201-1.301 1.801-1.8014.101-.1001.301-.1001.401-.1001.8.7006 1.001.9007 1.301 1.9015 1.001 1.0008 1.801 1.8014 2.502 2.502h2.001c.801-.8007 1.602-1.6013 2.402-2.4019h1.902c.1.1001.3.3002.4.4003h2.602c.3-.3002.601-.8006.901-.9007.4-.1001.8-.2002 1.001-.6005h1c.201-.2001.501-.5004.701-.7005 0-.3003 0-.6005 0-.9007.8-.8007 1.601-1.6013 2.402-2.4019.4.2002.6-.3002.9-.5004h1.502c.2.2002.4.3002.5.5004 1.001.2002 1.601-.8006 2.502-.5004.801-.5004.701-1.6012 1.501-2.0016h1.501c.2.2002.401.3003.501.5004h1.401c.4-.2001.6-.4003.8-.5004.401.2002.601.4004 1.001.6005h7.306c.3.3002.6.6005.901.9007h4.003c.2.2002.4.3002.6.5004h1.001c.4.4003.801.8006 1.301 1.2009v.5004c.5.3003 1.201.4003 1.501 1.0008 0 .6005.1 1.1009.1 1.5012 0 .1001.1.1001.2.2001h.501c.6-.3002.7-1.0007 1.101-1.5011h1.201c.6-.5004 1.1-.9007 1.501-1.201 0-.4003 0-.8006.5-.8006.4.2002.801.4003 1.201.6005.5-.5004.901-.9007 1.301-1.301 0-.5004 0-1.0008 0-1.5012 0-.6005-.2-1.1009.2-1.8014h2.903c.1 0 .3.2001.4.3002v1.5012c.2.2001.3.4003.5.6005v.8006c.501.5004.801 1.0008 1.201 1.4011.501-.4003.901-.8007 1.301-1.201 0-.4003 0-.7005 0-1.0007.801-1.0008 2.202-1.0008 3.003-2.0016 0-.3002 0-.6005 0-.9007.8-.8006 1.601-1.6013 2.301-2.4019h.901c.801-.3002 1.401-.9007 2.002-1.5012.1.1001.2.2002.2.2002.4-.2002.7-.4003 1.001-.5004 0-.5004 0-.8006.1-1.1009.9-.7005 1.201-1.7013 1.601-2.602.2-.1001.5-.1001.7-.2001.301-.3003.601-.6005.901-.9007h1.201c.2.3002.5.7005.701 1.0007h2.602c.8 1.3011 2.602 1.201 3.402 2.502h1.702c.2-.3002.5-.7006.7-1.0008.701.1001 1.301-.2001 1.802.3002v1.0008c.2.2002.5.5004.7.7006h1.001c.3-.3003.7-.6005 1.001-1.0008 1.301 1.301 2.502 2.5019 3.703 3.7029.1.4003-.201.8006.2 1.2009h1.101c.3-.3002.5-.5004.7-.8006 0-1.2009 0-2.3018 0-3.6028.3-.2002.801-.1001 1.101-.5004.2-.3002.801-.1001 1.001-.5004.5-.8006 1.501-1.2009 2.302-1.6013h1.501c.4-.5003.8-1.0007 1.201-1.5011h5.604c.3-.3003.501-.5004.701-.7006 0-.2001 0-.3002 0-.5004.4-.4003.8-.8006 1.201-1.2009h2.001c.2-.2002.4-.3002.601-.5004h.5c.701-.7005 1.401-1.4011 2.102-2.1016.2-1.1009 1.301-1.6013 1.801-2.3018h1.401c.501.3002.701.4003 1.001.6004.6-.7005 1.201-1.301 1.801-2.0015 0-.1001 0-.4003 0-.7006.601-1.0008 1.501-1.4011 2.502-1.8014h.801c.5-.7005 1.001-1.4011 1.401-2.0015h2.502c.5-.5004 1.001-1.0008 1.501-1.5012h1.001c.2.2001.4.3002.5.5004h1.501c.701-.7006 1.301-1.301 2.002-2.0016h1.001c.4-.3002.7-.7005 1.101-1.0008h2.502c.4-.3002.2-1.0008.7-1.2009.501-.2002.4-.8006.701-1.2009.3-.4004.7-.7006 1.101-1.1009h3.002c.2.2001.4.3002.5.5004h1.602c.1-.2002.1-.4003.3-.8006.5-.4004 1.101-1.0008 1.801-1.7014h2.302c.4-.6004 1.201-.5004 1.601-1.0008.1-.2001.601 0 1.001 0 .3.7006 1.201.8007 1.201 1.8015.6.6004 1.101 1.2009 1.301 1.401 1.201.6005 1.901.9007 2.602 1.3011.6-.6005 1.201-1.3011 1.902-2.0016.5.2002.7-.4003 1.201-.5004h1.3c.601-.6005 1.201-1.301 1.802-1.8014.7-.6005 1.101-1.4011 2.001-1.7013.701-.3003 1.201-1.1009 1.802-1.6013.1-.8006.4-1.301 1.301-1.4011.7.8007 1.701 1.4011 2.001 2.502.501.2001.701-.3003 1.001-.5004.401.1001.801-.2002 1.201.2001v1.7014c.501.4003 1.001.8006 1.501 1.301v2.0016c.301.3002.501.6004.701.8006h1.101c.3-.4003.8-.6005.7-1.301.301-.3003.601-.5004.901-.8007.2-.3002.5-.3002.801-.4003.4-.1001.5-.6004 1.1-.4003.201.2002.301.3002.501.5004h2.001c.601-.3002.701-.9007.901-1.5012h4.303c.601-.3002.801-.4003 1.101-.6004.301.2001.401.4003.601.6004.7 0 1.401.1001 2.101 0 .401-1.1008.801-2.0015 1.602-2.7021 0-.7005 0-1.301 0-2.0015.6-.5004.5-1.4011 1.301-1.8015h3.002c.3.5004.801.4004 1.201.7006s.5.9007 1.301.8006c.1-.1001.5-.3002.6-.6004.301-1.201 1.402-1.7014 2.102-2.6021.801-.20014 1.401-1.10084 2.502-.60045 0 .50039.1 1.10085.1 1.50115.4.5004.801.9007 1.201 1.301h1.099c.4-.6004 1-.4003 1.5-.5004.3-.3002.6-.6004.9-.9007h2.21c.4.5004.9 1.0008 1.3 1.5012.4-.7005 1-.5004 1.9-.6005.1-.2001.4-.6004.6-.9007 1 .1001 1.7.4004 2.6 1.0008h2.1c.3-.8006 1.3-.9007 1.9-1.4011 1 .1001 1.71-.80059 2.81-.60044.2 0 .3.10008.4.10008.2.20016.5.50036.7.70056.1.1001.3.1001.4.2001.7-.2001.8-.8006 1.2-1.40105.4-.60047 1-1.10086 1.6-1.60125h1.5c.2.20016.4.30023.5.50039.4-.10008.8.20016 1.3-.30023 0-.60047 0-1.4011 0-2.00157.3-.30023.6-.50039.8-.70055h.8c.6-.50039 1-.9007 1.4-1.10086 0-.50039-.1-.9007.1-1.10086.5-.50039.5-1.40109 1.21-1.70133h2.5c.2.20016.4.30024.6.5004h1.4c.6.40031.7 1.00078.9 1.40109.3.60047 1.2.40031 1.6 1.00078.2-.20015.4-.30023.5-.50039h6.31c.1 0 .2 0 .1 0 .6.50039 1 .9007 1.4 1.20094v1.50117c1.1 1.10086 2.1 2.10164 3.2 3.2025h2.9c.5.30022.7 1.00082 1.4 1.00082.5-.3003 1-.4003 1.4-.80066.5-.30023.8-.80062 1.31-1.30102.7.10008 1.4 0 2 0 .2.20016.3.40032.4.5004h1.7c.2.30023.5.70054.7 1.00078h2.6c.2-.20016.3-.30024.5-.50039h1.4c.4-.10008.6-.40032 1-.50039.4-.10008.7-.60047 1.1-.90071h.9c.3.20016.61.40031.91.70055.5-.50039 1-1.00078 1.4-1.4011.6-.50039.5-1.40109 1.3-1.70132h.9c.2-.20016.4-.30024.5-.5004h1.5c.1.10008.3.30024.5.5004h8.51c.4.40031.7.70054 1 1.00078h.9c.3-.30024.7-.50039.7-.50039.2-.70055-.1-1.20094.4-1.4011s.7.30024 1.1.50039h2.8c.1.20016.3.70055.5 1.00078.7 0 1.2.10008 1.6-.60046h2.01c.2-.20016.3-.30024.4-.40032h3c.3-.70055.7-1.40109 1-2.00156h1.6c.2.40031.7.50039.7 1.00078 0 .40031.3.70055.6.70055 1.1.40031 1.7 1.30101 2.4 2.00156.1.10008.2.10008.3.20016.2-.20016.5-.50039.7-.70055 0-.50039 0-1.00078 0-1.40109.3-.30024.5-.5004.7-.70055h1.61c.1.20015.2.40031.2.60047-.1.40031-.7.60047-.5 1.20094.3.30023.8.70054 1.2 1.10086.1-.10008.3-.20016.5-.40032h1c.2-.20015.4-.30023.5-.50039h2c.2.20016.4.30024.5.50039h1c.5-.80062 1.4-1.00078 2.1-1.50117h1.4c.6.60047 1.3 1.30102 2.01 2.00156.6-.20015 1.3.30024 1.8-.50039.6 0 1.1-.10007 1.3-.10007.6.30023.9.40031 1.2.60046.4-.40031.8-.70054 1.1-1.10086h2.5c.2.20016.4.30024.5.5004h1.5c.1-.10008.3-.30024.4-.40032h2.1c.2.20016.3.30024.4.40032h1.51c.3.30023.7.70054 1 1.00078.3.30023.6.40031 1 .60047.4.20015.7.60046 1 .9007.6 0 1.1.10008 1.5-.50039h3.3c.6-.30024.9-.40031 1.2-.60047.6.70055 1.2 1.30102 1.8 1.90151v.9007c.2.2001.5.4003.81.8006h2.2c.6.6005 1.3 1.301 2 2.0016.3-.2002.6-.5004.9-.5004.4-.1001.8 0 1.1-.3003v-13.1102zm958.949 16.2127s-.3 0-.3-.9007c.2-.1001.5-.3003 1.101-.7006.3 0 .3.3002.3.8006-.1.2002-.4.4004-1.101.8007z" fill="#4f5565"/></svg>