<svg width="1152" height="169" viewBox="0 0 1152 169" fill="none" xmlns="http://www.w3.org/2000/svg">
<path d="M1150.2 0H0V17.273C0.798752 16.3744 1.19813 15.0764 2.59594 14.6771C3.3947 14.6771 4.29329 14.7769 5.29173 14.6771C6.39002 14.5772 7.28861 15.0764 8.3869 15.1763C9.38533 14.8768 10.3838 14.4774 11.4821 14.1778C12.3807 14.1778 13.5788 14.1778 14.5772 14.1778C15.2761 13.6786 15.7753 13.1794 16.2746 12.8799C17.1732 12.78 17.9719 12.8799 18.571 12.5803C19.9688 11.8814 21.2668 12.4805 22.4649 12.8799C23.1638 13.7785 24.1622 13.7785 25.0608 13.8783C26.5585 14.1778 27.9563 14.6771 29.3541 15.1763C29.454 15.2761 29.6537 15.2761 29.7535 15.376C30.1529 15.7753 30.5523 16.0749 31.0515 16.5741C32.0499 16.4743 32.9485 16.8736 33.7473 17.4727C34.7457 18.2715 35.7441 19.0702 36.5429 19.6693C37.5413 20.0686 38.3401 20.468 39.039 20.7675C39.3385 21.4665 39.5382 22.0655 39.8378 22.6646C40.936 22.7644 41.7348 23.4633 42.4337 24.1622C43.6318 24.4618 44.7301 24.6615 46.0281 24.961C46.4275 25.3604 46.9267 25.7597 47.5257 26.1591C48.025 25.8596 48.4243 25.5601 49.0234 25.1607C49.3229 25.1607 49.7223 25.0608 50.1217 25.1607C50.9204 25.3604 51.6193 25.5601 52.5179 25.8596C53.5164 26.9579 54.5148 28.0562 55.5133 29.2543C56.5117 29.7535 57.61 30.2527 58.7083 30.7519C59.9064 31.7504 60.9048 32.9485 61.3042 34.6459C61.5039 35.5445 62.0031 36.2434 62.9017 36.6427C63.3011 36.6427 63.7005 36.6427 64 36.6427C64.7988 36.0437 64.7988 35.0452 65.1981 34.2465C65.897 33.7473 66.4961 33.1482 67.195 32.9485C68.493 32.649 69.092 31.5507 69.9906 30.8518C70.0905 30.4524 70.2902 30.053 70.39 29.454C70.7894 29.0546 71.2886 28.5554 71.7878 27.9563C73.4852 28.156 74.9828 27.0577 76.6802 27.5569C76.78 27.6568 76.9797 27.7566 77.1794 27.9563C77.4789 28.156 77.6786 28.2558 77.8783 28.3557C80.7738 28.7551 83.2699 27.5569 85.766 27.3573C88.0624 25.8596 90.3588 24.4618 92.6552 23.064C94.752 23.2636 96.8487 23.5632 99.0452 23.7629C100.443 24.7613 101.242 26.4587 103.339 26.9579C104.637 26.1591 106.334 26.6583 108.031 26.3588C109.129 25.5601 110.228 24.7613 111.526 23.8627C113.123 25.0608 115.02 25.3604 116.917 25.8596C117.516 25.6599 118.215 25.4602 118.914 25.1607C119.413 24.7613 119.913 24.3619 120.212 24.0624C120.811 23.9626 121.111 24.4618 121.71 23.7629C122.109 22.7644 122.708 21.5663 123.207 20.3682C123.807 20.1685 124.206 20.0686 124.605 19.869C125.604 19.17 126.303 18.1716 126.802 16.9735C126.902 16.6739 127.201 16.4743 127.401 16.2746C128.1 16.1747 128.699 16.1747 129.298 16.0749C130.097 15.4758 130.895 14.8768 131.295 14.5772C132.393 13.3791 133.092 12.5803 133.991 11.7816C134.09 11.4821 134.09 10.9828 134.19 10.6833C135.289 9.0858 136.986 8.98596 138.384 8.48674C140.381 9.68487 141.179 11.8814 142.877 13.3791C143.276 13.1794 143.676 12.9797 144.075 12.78C144.175 11.6817 144.374 10.5835 145.373 9.68487C146.371 9.48518 147.569 9.18565 149.167 8.78627C149.766 8.08736 150.465 7.18877 151.264 6.29017C153.161 5.49142 154.958 4.69267 156.555 3.3947C157.754 3.79407 158.952 3.89392 160.25 3.69423C160.749 3.3947 161.148 3.09516 161.548 2.89548C162.646 2.89548 163.844 2.89548 164.743 2.89548C166.14 3.09516 166.839 4.0936 167.738 4.79251C170.034 3.89392 172.63 3.99376 174.527 2.4961C175.626 2.4961 176.624 2.4961 177.523 2.4961C178.122 3.19501 178.621 3.69423 179.12 4.29329C179.919 4.29329 180.718 4.49298 181.317 4.29329C182.515 3.79407 183.713 3.99376 184.911 3.89392C186.509 3.89392 188.106 3.99376 189.604 3.29485C190.502 3.59438 191.301 3.89392 192.1 4.19345C192.399 4.89235 192.599 5.49142 192.899 5.99064C193.498 6.19033 193.997 6.39002 194.496 6.5897C195.495 8.18721 195.495 8.18721 197.092 9.18565C197.791 10.5835 199.089 11.4821 200.087 12.6802C200.287 13.1794 200.487 13.6786 200.686 14.1778C201.285 14.3775 201.785 14.5772 202.184 14.6771C203.582 15.8752 204.68 17.273 206.178 18.2714C207.476 19.0702 208.374 20.2683 208.574 21.9657C208.774 23.5632 210.072 24.5616 211.27 25.4602C211.869 25.5601 212.468 25.5601 212.967 25.5601C215.363 27.1576 217.36 29.0546 219.058 31.1513C220.056 31.4509 220.356 30.4524 220.955 30.3526C221.654 30.3526 222.153 30.3526 222.652 30.3526C223.551 30.8518 223.95 31.4509 224.05 32.3495C224.05 32.5491 224.349 32.7488 224.449 32.9485C224.849 33.0484 225.348 33.248 226.047 33.4477C226.246 33.6474 226.546 34.1466 226.945 34.546C227.544 34.9454 228.144 35.3448 228.842 35.5445C229.841 35.844 230.839 36.0437 232.137 36.2434C232.437 36.5429 232.836 37.0421 233.435 37.741C233.635 39.039 234.434 40.1373 235.532 41.1357C236.031 41.6349 236.431 42.234 236.93 42.8331C237.429 43.2324 238.028 43.6318 238.627 44.131C240.225 45.6287 241.423 47.4259 242.821 49.0234C243.42 49.7223 243.919 50.4212 244.418 51.1201C244.418 51.22 244.518 51.22 244.618 51.3198C245.217 51.5195 245.816 51.7192 246.415 51.9189C248.711 52.0187 251.108 51.6193 254.003 53.0172C254.802 53.4165 256 54.6147 256.799 55.5133C258.197 57.7098 258.097 60.0062 258.995 61.9033C259.594 62.0031 260.094 62.103 260.693 62.2028C261.491 63.1014 262.29 64.0998 263.388 65.298C263.488 65.3978 263.888 65.5975 264.187 65.7972C264.686 66.4961 264.986 67.0952 265.485 67.7941C265.485 68.3931 265.585 69.1919 265.585 69.7909C266.084 71.0889 266.883 72.0874 268.081 72.7863C268.58 73.0858 268.98 73.4852 269.279 73.9844C269.778 74.7831 270.078 75.6817 270.477 76.5803C270.777 77.1794 271.176 77.6786 271.875 77.9781C272.474 77.9781 273.273 78.078 273.872 78.078C274.371 78.3775 274.871 78.6771 275.27 78.9766C276.168 78.9766 276.967 79.1763 277.566 78.7769C278.465 77.6786 279.164 76.78 280.062 75.7816C280.162 75.0827 280.462 74.3838 281.46 73.7847C282.858 73.4852 284.356 72.6864 285.953 72.7863C286.652 73.0858 287.051 73.585 287.351 74.1841C287.95 75.2824 288.849 75.9813 290.047 76.4805C290.746 76.78 291.345 76.9797 292.144 77.3791C292.543 77.6786 293.042 78.078 293.342 78.3775C294.34 78.5772 295.039 78.7769 295.838 78.9766C297.535 78.2777 299.232 78.5772 301.229 78.5772C301.629 78.8767 302.028 79.2761 302.228 79.4758C302.328 80.4743 302.427 81.1732 302.427 81.7722C302.927 82.1716 303.326 82.6708 303.825 83.0702C304.524 83.3697 305.123 83.6693 305.822 83.8689C306.521 84.0686 307.22 84.2683 307.819 84.468C308.019 84.7675 308.218 84.9672 308.418 85.1669C309.117 85.1669 309.716 85.1669 310.315 85.1669C310.714 84.7675 311.114 84.3682 311.513 83.9688C311.713 83.7691 311.813 83.5694 311.913 83.3697C312.512 81.4727 313.81 80.5741 315.507 79.8752C316.106 79.975 316.605 79.975 317.105 80.0749C318.003 81.3728 318.802 82.571 319.601 83.7691C319.8 84.8674 319.9 86.0655 320.2 87.1638C320.399 87.8627 320.599 88.5616 321.398 88.8611C323.095 89.5601 324.693 88.3619 326.29 88.5616C327.289 88.961 328.387 89.3604 328.686 90.4586C328.986 91.5569 329.785 92.156 330.583 92.8549C331.782 92.8549 332.98 92.8549 334.178 92.8549C334.777 93.3541 335.376 93.8533 335.975 94.3526C336.874 94.3526 337.672 94.3526 338.471 94.3526C339.27 94.7519 339.669 95.5507 340.668 95.1513C341.067 94.7519 341.666 94.3526 342.165 93.8533C343.563 93.7535 344.661 94.3526 345.76 94.8518C346.359 95.5507 347.058 96.2496 347.457 96.9485C347.956 97.7473 348.456 98.3463 349.254 98.7457C350.053 99.2449 350.752 99.9438 351.151 100.842C351.451 101.641 351.85 102.44 352.15 103.039C353.548 104.537 354.846 105.835 356.243 107.232C357.841 107.133 359.538 106.434 361.236 106.833C363.432 107.931 365.03 109.729 367.027 110.527C367.626 111.725 368.125 112.824 368.524 113.922C368.924 113.922 369.123 114.022 369.423 114.022C370.222 113.523 370.92 112.824 371.819 112.424C372.817 111.925 373.516 111.226 374.016 110.228C375.114 110.527 375.813 109.729 376.711 109.229C377.909 109.828 379.407 109.629 380.605 110.627C380.905 111.027 381.204 111.526 381.304 111.626C382.602 112.424 383.7 112.924 384.599 113.523C385.098 114.421 385.398 115.22 385.797 115.919C385.797 116.917 385.897 117.816 385.897 118.615C386.596 119.314 387.295 120.012 387.894 120.612C388.892 120.811 389.791 121.011 390.49 121.211C392.587 120.711 394.583 120.112 396.98 120.312C397.978 120.711 399.176 121.111 399.875 121.41C401.573 121.71 402.771 122.009 403.47 122.109C405.866 123.707 407.863 125.005 410.059 126.502C410.259 126.802 410.658 127.301 411.058 127.9C411.856 127.9 412.655 128 413.753 128C414.153 128.399 414.652 128.998 415.051 129.398C415.451 130.496 415.75 131.495 416.15 132.393C416.749 132.593 417.248 132.792 417.847 132.992C418.246 133.891 418.646 134.789 419.145 135.888C420.343 135.988 421.641 136.187 423.039 136.287C423.738 135.488 424.736 134.789 425.435 133.591C425.435 132.992 425.335 132.193 425.435 131.495C425.535 131.095 425.835 130.696 426.034 130.296C427.832 130.296 429.529 130.296 431.226 130.296C432.125 130.796 432.924 131.794 434.221 131.594C435.819 130.596 436.718 128.599 438.814 127.9C439.913 128.399 441.111 128.899 442.109 129.298C443.008 130.197 443.807 130.895 444.505 131.594C445.204 131.594 445.803 131.594 446.402 131.594C447.101 130.995 447.8 130.396 448.399 129.897C449.997 129.598 451.594 130.097 452.892 129.398C453.691 129.598 454.39 129.697 455.189 129.897C455.788 130.396 456.287 130.796 456.686 131.095C457.485 131.095 458.284 131.195 458.983 131.195C459.582 131.794 460.181 132.293 460.78 132.792C461.479 132.992 462.178 133.292 462.977 133.491C463.676 133.491 464.474 133.591 465.273 133.292C466.371 132.892 467.47 132.992 468.668 132.992C469.766 133.591 470.864 134.19 472.062 134.889C472.362 134.889 472.661 134.889 472.961 134.889C473.46 134.59 473.959 134.29 474.459 133.891C475.657 133.991 476.855 133.891 478.053 134.19C478.752 134.29 479.451 134.49 480.15 134.49C481.548 134.49 482.846 134.49 483.844 134.49C486.24 134.19 487.738 133.092 488.936 131.794C490.434 131.295 491.632 131.994 492.93 132.094C493.729 131.794 494.527 131.395 495.126 131.195C496.824 131.395 498.222 131.594 499.919 131.794C501.117 132.094 502.615 132.493 504.412 132.892C505.211 133.791 506.309 134.989 507.507 136.287C508.006 136.287 508.605 136.287 509.204 136.487C509.803 136.686 510.402 136.886 511.101 136.886C511.9 136.886 512.599 137.285 513.298 137.885C513.797 138.284 514.197 138.783 514.596 139.083C515.794 139.282 516.892 139.482 518.091 139.782C520.786 138.783 523.682 138.184 526.477 137.785C527.076 138.184 527.576 138.484 528.075 138.883C530.471 138.883 532.967 138.883 535.264 138.883C536.661 139.782 536.961 141.479 538.559 142.178C539.257 142.178 540.156 142.178 541.055 142.278C544.05 142.777 543.95 142.777 546.746 142.278C547.245 142.178 547.944 142.078 548.443 142.278C549.741 142.877 550.939 142.577 552.237 142.577C553.136 141.978 554.034 141.279 554.833 140.68C554.933 139.981 555.033 139.482 555.133 139.183C555.632 137.984 556.63 137.885 557.429 137.585C558.228 137.186 558.927 136.786 559.725 136.287C559.825 135.488 559.925 134.59 560.025 133.891C561.123 132.892 562.122 131.994 562.92 131.195C564.318 130.895 565.616 130.596 567.114 130.296C567.813 129.298 568.612 128.3 569.41 127.301C569.71 125.504 570.908 124.406 572.306 123.307C573.604 123.307 575.002 123.307 576.299 123.307C576.899 122.908 577.498 122.608 577.997 122.309C578.097 121.91 578.197 121.61 578.197 121.31C578.197 119.813 578.995 118.715 580.094 117.816C580.992 117.017 581.991 116.318 583.089 115.519C584.886 115.519 586.783 115.519 588.58 115.519C589.279 115.22 589.878 115.02 590.477 114.821C590.577 114.821 590.577 114.721 590.577 114.721C590.977 113.722 591.376 112.824 591.775 112.025C591.875 110.527 592.175 108.83 592.674 108.131C593.073 107.732 593.573 107.332 594.172 106.733C594.87 106.833 595.569 107.033 596.268 107.133C596.668 106.833 597.067 106.633 597.367 106.334C599.463 105.934 601.26 107.133 603.357 107.232C603.856 106.933 604.256 106.633 604.755 106.334C605.554 106.334 606.253 106.334 606.952 106.334C608.05 107.332 609.148 108.231 610.246 109.129C611.744 107.931 613.042 106.933 614.54 105.735C615.339 105.735 616.237 105.735 617.036 105.735C617.535 105.236 618.034 104.836 618.334 104.636C620.031 104.037 621.329 103.638 622.827 103.039C623.326 102.24 623.925 101.441 624.424 100.643C625.223 100.044 625.922 99.5444 626.421 99.0452C628.318 98.7457 629.816 99.5445 631.513 99.844C632.412 99.2449 633.111 98.2465 634.608 98.0468C635.807 98.0468 637.304 98.0468 638.902 98.0468C639.9 98.0468 640.998 98.0468 641.997 98.4462C642.496 98.6459 643.195 98.4462 643.594 98.4462C644.992 97.3479 646.19 96.4493 647.189 95.7504C647.888 95.6505 648.487 95.6505 648.986 95.6505C650.883 94.3526 652.88 93.6537 654.877 93.1544C655.076 92.6552 655.276 92.156 655.476 91.6568C656.474 91.2574 657.672 90.858 658.571 90.4586C659.969 90.4586 661.267 90.4586 662.465 90.4586C663.563 91.0577 664.861 91.3572 665.66 92.5554C665.959 93.454 666.259 94.3526 666.558 95.351C667.557 95.8502 668.356 96.649 669.454 96.9485C670.153 97.1482 670.652 97.6474 671.251 98.1466C671.85 98.546 672.349 99.1451 672.749 99.4446C673.148 100.443 673.348 101.142 673.947 101.741C674.446 102.24 674.746 102.939 674.945 103.638C675.145 104.437 675.544 104.936 676.343 105.435C677.242 105.335 678.14 106.434 679.339 105.735C679.638 105.435 679.938 105.036 680.337 104.537C681.335 104.537 682.434 104.537 683.332 104.537C683.931 104.037 684.431 103.638 684.93 103.239C685.828 103.139 686.727 103.039 687.526 103.438C688.524 103.838 689.523 103.738 690.621 103.438C691.519 103.139 692.518 103.139 693.417 103.538C694.415 103.938 695.314 104.237 696.412 104.636C696.811 104.636 697.41 104.736 697.909 104.736C698.509 105.236 699.008 105.635 699.507 106.034C700.006 106.034 700.505 106.134 700.905 106.034C702.402 105.635 703.8 105.136 705.298 105.036C705.797 105.036 706.197 104.736 706.596 104.437C706.995 104.237 707.395 103.938 707.894 103.538C709.392 104.636 711.089 104.037 712.686 103.638C713.285 104.137 713.885 104.636 714.384 105.036C714.983 105.036 715.582 105.036 716.081 105.036C717.08 104.337 717.978 103.738 718.877 103.239C719.476 103.239 719.975 103.239 720.374 103.239C720.874 103.538 721.373 103.838 721.772 104.137C722.471 104.137 723.07 104.137 723.669 104.137C724.268 103.838 724.867 103.638 725.267 103.438C726.165 103.638 726.764 103.738 727.264 103.838C728.062 104.537 728.761 105.236 729.36 105.735C729.46 106.434 729.66 107.033 729.76 107.532C731.158 108.231 732.256 109.229 733.055 110.427C734.153 112.125 735.75 113.423 737.148 114.821C737.348 115.02 737.548 115.12 737.747 115.22C738.346 115.22 739.045 115.22 739.844 115.22C740.842 114.621 741.941 114.022 742.939 113.423C743.738 113.423 744.437 113.323 745.136 113.323C745.735 112.924 746.134 112.624 746.434 112.524C748.131 112.324 749.529 112.624 751.026 113.323C751.326 114.122 751.825 115.02 752.225 116.119C752.724 116.218 753.323 116.318 753.622 116.318C754.521 115.819 755.32 115.32 756.019 114.821C756.817 114.821 757.616 114.92 758.315 114.92C759.114 115.719 759.413 116.518 759.613 117.417C759.713 117.616 759.913 117.816 760.012 118.016C760.612 118.115 761.211 118.315 761.81 118.415C762.209 118.814 762.509 119.214 762.808 119.713C763.507 119.713 764.206 119.713 764.905 119.713C765.404 119.713 765.903 119.613 766.303 119.813C767.401 120.312 768.499 120.112 769.597 120.112C770.796 120.112 771.994 120.212 773.192 120.012C773.791 119.314 774.29 118.615 774.889 117.916C775.488 117.217 775.289 116.019 776.387 115.519C777.186 115.32 777.885 115.02 778.484 114.821C779.182 115.02 779.881 115.22 780.381 115.519C781.179 115.919 781.878 116.418 782.477 117.017C783.276 117.816 784.574 117.816 785.273 118.615C785.872 118.615 786.371 118.715 786.87 118.715C787.27 119.014 787.769 119.314 788.268 119.613C789.367 119.613 790.465 119.613 791.663 119.613C792.162 119.913 792.661 120.212 792.961 120.412C793.76 120.512 794.459 120.612 795.058 120.811C795.757 121.011 796.456 121.111 797.055 121.71C797.154 121.91 797.454 122.009 797.654 122.009C798.652 121.91 799.251 122.708 800.15 123.108C801.048 123.108 802.047 123.108 803.045 123.108C804.044 124.106 804.044 124.106 804.643 125.704C805.242 126.303 806.24 127.101 806.939 127.7C807.139 128.3 807.239 128.699 807.339 129.098C808.337 130.396 809.835 131.095 811.033 132.193C811.931 132.193 812.73 132.193 813.529 132.193C813.928 132.593 814.228 133.092 814.527 133.292C815.526 133.591 816.424 133.791 817.123 134.19C819.32 135.488 821.916 135.988 824.112 137.385C824.512 137.585 825.011 137.585 825.51 137.685C826.509 136.387 827.507 134.989 828.406 133.891C829.704 133.392 830.702 132.992 831.8 132.593C832.399 132.992 832.899 133.292 833.298 133.491C833.997 133.491 834.496 133.491 834.895 133.491C835.694 132.393 836.493 131.395 837.591 130.696C838.39 130.696 839.089 130.596 839.688 130.596C840.487 130.197 841.086 129.897 841.385 129.797C843.682 129.298 844.68 130.796 846.078 131.594C847.076 131.295 848.075 130.796 849.373 131.295C849.872 131.894 850.571 132.693 851.17 133.392C852.268 133.192 853.267 133.092 854.066 132.892C855.363 133.392 856.262 133.791 857.161 134.19C857.66 134.889 858.159 135.488 858.658 136.187C860.156 136.187 861.055 137.585 862.752 137.186C863.451 136.686 864.349 136.087 865.148 135.388C866.147 134.59 867.245 134.19 868.343 134.49C869.242 134.989 870.041 135.488 870.739 135.888C871.638 135.888 872.437 135.888 873.236 135.888C875.632 136.087 877.729 136.786 879.226 138.883C879.526 139.282 879.725 139.682 879.925 139.981C881.622 140.281 882.721 141.878 884.418 141.778C885.716 142.877 887.314 142.977 888.711 143.576C890.509 143.476 892.306 143.775 894.003 143.176C894.602 142.977 895.301 143.176 896 143.176C896.599 143.675 897.198 144.275 897.597 144.574C897.797 145.473 897.897 146.072 897.997 146.671C898.496 146.771 898.895 146.97 899.395 147.07C899.994 146.471 900.593 145.872 901.192 145.373C901.491 145.073 901.891 144.574 902.29 144.374C903.588 143.676 904.487 142.477 905.485 141.479C905.485 139.282 906.783 138.084 908.281 136.886C908.98 136.886 909.778 136.886 910.378 136.886C910.877 137.186 911.376 137.485 911.775 137.785C913.173 137.785 914.571 137.785 915.569 137.785C918.365 138.583 920.861 139.183 923.357 139.881C924.156 141.479 925.654 142.777 925.953 144.175C926.952 145.273 927.651 146.072 928.349 146.871C930.147 147.47 932.044 147.37 933.741 147.569C935.139 148.967 935.139 148.967 935.638 151.264C937.136 152.562 938.234 154.459 940.431 155.158C941.129 155.158 941.928 155.158 942.727 155.158C944.924 156.056 947.02 156.955 949.017 157.853C950.315 160.05 951.613 161.947 952.012 164.144C952.212 164.343 952.312 164.543 952.412 164.643C953.51 165.441 954.608 166.24 955.307 167.438C955.507 167.938 956.106 168.237 956.406 168.537C957.204 168.636 957.903 168.836 958.702 168.936C959.501 168.037 960.299 167.139 961.098 166.34C962.796 166.54 964.393 167.139 966.29 167.239C966.59 166.939 966.989 166.54 967.089 166.34C967.289 165.441 967.388 164.942 967.488 164.443C969.485 162.846 971.881 162.147 974.078 161.048C975.076 161.048 976.075 161.048 976.973 161.048C977.672 161.348 978.371 161.647 979.17 162.047C979.869 161.947 980.668 161.947 981.367 161.647C982.265 161.448 983.064 161.448 983.863 161.548C984.562 162.047 985.061 162.546 985.66 162.945C987.757 162.646 988.655 160.849 990.153 159.75C991.351 159.351 992.549 158.852 993.847 159.151C995.644 159.451 996.243 161.148 997.641 161.947C998.54 161.747 999.339 161.647 1000.04 161.448C1001.54 162.346 1002.83 163.145 1004.03 163.844C1004.53 163.445 1004.93 163.245 1005.33 162.945C1005.83 162.646 1006.23 162.246 1006.63 162.047C1006.83 161.448 1006.93 161.048 1007.13 160.549C1007.63 160.25 1008.02 159.95 1008.32 159.75C1009.12 158.452 1009.82 157.454 1010.72 156.156C1010.72 156.056 1010.82 155.657 1010.92 155.257C1011.72 154.558 1012.42 153.76 1013.12 153.161C1014.91 152.462 1016.61 151.663 1018.01 150.465C1019.11 150.465 1020.11 150.465 1021 150.465C1021.7 149.966 1022.2 149.466 1022.7 149.167C1023.4 149.167 1024 149.167 1024.4 149.167C1024.9 149.466 1025.3 149.766 1025.8 150.066C1026.4 149.966 1027 149.966 1027.59 149.766C1029.09 149.466 1031.59 149.367 1033.09 149.766C1034.88 150.265 1036.78 150.465 1038.58 150.764C1039.58 149.666 1040.47 148.568 1041.37 147.569C1043.07 146.571 1044.97 146.471 1046.56 145.872C1047.96 144.574 1049.16 143.076 1050.66 142.278C1051.26 141.379 1051.36 140.381 1052.36 139.881C1053.15 139.881 1054.05 139.881 1055.05 139.881C1055.75 140.281 1056.55 140.78 1057.35 141.279C1057.75 141.279 1058.05 141.279 1058.35 141.279C1058.85 140.88 1059.44 140.381 1059.94 139.981C1060.44 139.981 1060.94 139.881 1061.44 139.981C1061.94 140.081 1062.54 140.281 1062.94 140.381C1063.74 139.981 1064.24 139.382 1065.14 139.382C1066.03 139.282 1066.83 138.983 1067.73 138.683C1068.03 138.384 1068.33 137.984 1068.63 137.585C1069.43 137.385 1070.13 137.186 1070.83 136.986C1072.32 137.485 1073.32 138.084 1073.72 139.682C1074.02 140.78 1074.82 141.778 1075.32 142.577C1075.62 143.476 1075.22 144.374 1076.02 144.973C1078.12 144.674 1081.11 144.574 1082.81 145.173C1084.01 144.973 1085.1 144.774 1086.4 144.574C1087.3 143.376 1089.2 143.176 1090.3 141.878C1091.19 141.878 1092.09 141.878 1092.79 141.878C1093.39 141.479 1093.89 141.179 1094.29 140.88C1095.29 140.88 1096.29 140.88 1097.19 140.88C1098.68 139.981 1098.98 138.583 1099.18 137.285C1100.58 135.888 1100.58 135.888 1102.08 135.788C1103.18 136.587 1104.27 137.385 1105.37 138.184C1106.47 138.184 1107.47 138.184 1108.57 138.184C1109.07 138.683 1109.47 139.183 1109.87 139.582C1110.07 140.181 1110.27 140.68 1110.46 141.279C1112.06 141.679 1113.66 141.978 1115.06 142.777C1115.36 142.877 1115.66 142.977 1115.96 142.977C1117.15 142.977 1118.05 143.476 1118.95 144.374C1119.15 144.574 1119.45 144.774 1119.65 144.874C1120.45 144.874 1121.15 144.874 1121.95 144.874C1123.15 143.975 1124.24 143.076 1125.44 142.178C1125.64 142.078 1125.94 141.978 1126.24 141.978C1126.54 141.579 1126.84 141.179 1127.14 140.88C1127.84 140.68 1128.54 140.381 1129.24 140.181C1130.33 140.181 1131.43 140.081 1132.43 140.181C1133.53 140.381 1134.63 140.68 1135.63 141.08C1136.52 141.479 1137.42 142.078 1138.32 142.677C1140.82 143.176 1143.11 141.978 1145.41 142.178C1146.01 142.577 1146.41 142.777 1147.01 143.176C1148.61 143.176 1150.3 143.176 1152 143.176V0H1150.2Z" fill="#4F5565"/>
</svg>
