<svg width="1152" height="89" viewBox="0 0 1152 89" fill="none" xmlns="http://www.w3.org/2000/svg">
<path d="M0 87.0762C1.06995 87.6162 2.09991 88.1362 3.04987 88.6262C5.13978 88.8061 7.05969 88.7861 9.01961 87.9962C10.3795 87.4462 11.9795 87.5662 13.3894 88.3062C14.3194 88.7961 15.3093 88.7761 16.4493 88.6061C19.0192 87.3562 21.7091 86.0363 24.019 84.9163C25.5889 84.5963 26.7988 84.9463 28.1988 84.2063C29.5587 83.0164 31.0287 81.3565 33.2986 80.9465C34.2385 81.2265 35.2285 81.4165 36.1184 81.8264C37.1584 82.2964 38.1083 82.9564 39.1183 83.5064C39.2483 83.5764 39.4483 83.5164 39.7283 83.5164C40.6882 82.7364 41.7082 81.8964 42.7481 81.0665C42.8781 80.9665 43.0481 80.9265 43.4681 80.7265C43.8681 80.7265 44.5281 80.7465 45.188 80.7265C46.018 80.7065 46.838 80.6465 47.4279 80.6165C50.7778 78.9266 50.7778 78.9266 53.4677 75.1667C55.2676 74.5668 57.1575 73.9368 59.1674 73.2668C60.0474 72.4268 61.0073 71.5069 61.9773 70.5869C62.4773 70.1069 63.0473 69.817 63.9272 70.007C65.0372 71.0869 66.5471 71.7369 68.077 72.0469C68.917 72.8168 69.657 73.4968 70.5869 74.3468C73.3668 75.2967 75.6067 77.7466 78.7266 78.7266C79.3666 78.6566 80.1465 78.7866 80.6665 78.4766C82.2964 77.4966 84.2263 77.7566 85.9363 77.0367C87.7962 76.2567 89.8961 76.7767 91.886 76.7067C93.046 76.6667 94.2159 76.6967 95.1459 76.6967C95.8558 76.4067 96.2958 76.1267 96.7758 76.0467C98.0757 75.8167 99.3957 75.6667 100.766 75.4767C101.546 74.9468 102.366 74.3867 103.136 73.8568C104.545 73.6868 105.865 73.4968 107.305 74.1768C107.785 74.6267 108.375 75.2167 109.005 75.7667C109.745 76.4167 110.515 77.0467 111.235 77.6566C112.185 77.6566 113.045 77.7766 113.845 77.6266C114.975 77.4166 116.055 77.0167 117.055 76.7167C117.975 77.0167 118.755 77.2666 119.615 77.5366C120.565 76.9267 121.525 76.3067 122.475 75.6967C124.295 75.8667 125.715 76.6567 127.004 77.7666C127.754 78.4166 128.524 79.0366 129.254 79.6565C130.194 79.6565 131.044 79.7565 131.854 79.6265C132.824 79.4766 133.764 79.1266 134.634 78.8866C136.284 79.4666 137.824 80.0765 139.414 80.5465C140.194 80.7765 141.054 80.7765 141.744 80.8665C142.684 81.5065 143.504 82.0664 144.324 82.6164C144.854 82.5464 145.334 82.4764 145.914 82.4064C146.394 81.1765 146.924 79.9765 147.314 78.7266C147.564 77.9366 147.504 77.0766 147.214 76.2667C146.994 75.6567 146.774 75.0367 146.504 74.2968C147.794 72.7968 149.354 71.9969 150.943 71.7369C152.883 72.0569 154.123 73.4668 155.843 73.4468C161.243 68.787 163.023 67.9271 166.723 65.9771C167.393 65.1572 168.223 64.1272 169.133 63.0073C169.793 62.7773 170.563 62.4973 171.343 62.2273C173.342 61.3973 173.212 58.6275 175.332 57.8475C176.092 58.0675 176.882 58.2975 177.772 58.5474C179.612 57.4175 180.872 55.6076 182.732 54.0677C183.552 53.6777 184.592 53.1777 185.402 52.7877C186.842 52.6677 188.012 52.5377 189.132 53.0077C189.742 53.2577 190.312 53.6377 191.132 53.2977C191.712 52.8977 192.382 52.4177 193.082 51.9677C193.202 51.8877 193.402 51.9178 193.582 51.8878C195.441 52.4877 197.321 53.0877 199.041 53.6377C199.561 53.4977 199.881 53.4277 200.201 53.3277C200.671 53.1677 201.121 52.9877 201.681 52.7777C203.831 54.3076 206.081 55.6776 208.541 56.4975C210.711 55.6476 212.771 55.2776 214.901 56.3076C216.151 56.9175 217.501 56.6975 218.87 56.4875C219.66 55.9576 220.48 55.3976 221.3 54.8376C222.13 55.0676 222.92 55.2776 223.64 55.4776C224.49 55.1876 225.27 54.9176 225.74 54.7576C227.06 54.6476 227.87 55.5976 228.97 55.1376C229.4 54.9576 229.92 55.4476 230.12 55.8976C230.39 56.4975 230.5 57.1575 230.71 57.7875C230.99 58.6275 231.59 59.1774 232.61 59.5874C233.73 59.5874 235.06 59.6074 236.39 59.5674C236.7 59.5574 237.01 59.3574 237.85 59.0574C238.42 58.4575 239.33 57.4975 240.21 56.5676C240.78 55.0876 241.59 53.8377 241.869 52.3077C242.019 51.4878 242.819 50.9778 243.919 50.7078C245.019 50.7078 246.349 50.7078 247.639 50.7078C248.529 51.2578 249.359 51.7778 250.339 52.3877C251.189 51.3578 252.129 51.9578 253.099 52.2577C253.789 51.8578 254.499 51.4578 255.169 51.0778C255.369 51.1778 255.579 51.2078 255.659 51.3278C256.129 52.0077 256.559 52.7077 257.029 53.3877C257.789 54.4876 258.759 54.8276 260.069 54.4176C260.539 54.2677 260.979 54.0076 261.529 53.7677C262.109 53.7377 262.779 53.7177 263.439 53.6477C264.089 53.5777 264.729 53.4577 265.059 53.4077C266.108 52.7377 266.508 52.0378 266.638 51.1678C266.798 50.0978 267.338 49.3178 268.818 48.6779C271.318 48.7779 274.298 48.4279 277.248 48.8679C278.548 50.0878 279.758 51.2278 280.878 52.2677C281.898 52.7577 282.798 53.1877 283.208 53.3877C285.318 54.0277 286.628 53.0277 288.367 52.6477C289.237 52.6477 290.397 52.6477 291.207 52.6477C292.827 52.1277 294.107 51.7877 295.337 51.2978C296.567 50.8078 297.737 50.1778 298.457 49.8378C300.457 49.4778 302.007 49.9778 303.607 49.1379C304.107 48.5079 304.717 47.7279 305.377 46.888C306.047 46.538 306.787 46.148 307.547 45.758C309.027 45.688 310.526 45.608 311.796 45.548C313.096 44.918 313.906 44.0981 314.496 43.0081C314.656 42.0782 314.816 41.0982 314.996 40.0283C315.466 39.6183 315.956 39.1883 316.466 38.7383C317.176 38.7383 317.836 38.7283 318.506 38.7383C318.666 38.7383 318.826 38.7983 318.996 38.8383C319.976 39.4683 320.956 40.0783 321.926 40.7182C322.886 41.3582 323.836 42.0182 324.606 42.5382C325.526 42.5382 326.186 42.5382 326.806 42.5382C327.466 41.9182 328.056 41.3582 328.576 40.8782C330.246 40.2083 331.576 41.2582 333.076 41.4582C333.885 40.9182 334.705 40.3582 335.635 39.7383C336.545 39.7083 337.545 39.7083 338.535 39.6283C339.185 39.5783 339.865 39.4883 340.475 39.2583C341.255 38.9583 342.005 38.5883 343.005 38.8183C344.985 39.7483 347.085 40.7482 348.795 41.5482C350.685 41.7482 351.895 41.4182 352.645 39.7983C352.735 38.8283 352.845 37.6784 352.955 36.5584C353.905 35.7684 354.525 35.5584 355.175 35.8584C356.075 36.2884 356.965 36.7484 358.124 37.3184C359.544 38.8283 361.144 40.5282 362.794 42.2981C364.004 42.3581 364.774 43.4981 366.224 43.4181C367.294 42.6282 368.494 41.7582 369.564 40.9682C370.134 39.1383 369.634 37.5384 369.354 35.9284C369.804 34.9885 370.564 34.3585 371.474 33.8685C372.614 33.5185 373.744 33.4886 374.994 34.3485C376.364 36.3084 377.524 38.8183 380.063 39.6083C381.883 39.5083 382.983 38.1783 384.573 38.1283C385.223 38.5683 385.913 39.0283 386.623 39.5083C387.103 39.5083 387.593 39.5083 387.893 39.5083C389.623 38.4783 391.183 37.5484 392.733 36.6384C394.823 36.6384 396.823 36.6384 398.433 36.6384C399.603 36.2484 400.403 35.7084 401.163 35.7684C403.262 35.9384 405.032 34.8485 406.982 34.5085C408.712 33.3886 410.832 33.6685 412.702 32.8586C414.222 32.1986 415.952 32.6686 417.622 33.1586C419.642 31.7786 421.702 30.3887 423.622 29.0787C424.282 27.9088 424.772 26.7988 426.211 26.8288C427.311 27.1288 427.841 28.5987 429.341 28.2688C429.501 27.8888 429.751 27.4688 429.871 27.0088C430.041 26.3689 430.071 25.6989 430.241 25.0589C430.371 24.5789 430.651 24.149 430.801 23.669C431.001 23.039 431.141 22.399 431.241 22.0391C432.061 20.8891 432.971 20.5291 434.031 20.6491C434.681 20.7191 435.321 20.9291 435.951 21.1091C436.431 21.2391 436.891 21.4291 436.941 21.4391C438.691 21.7491 440.051 21.3891 441.111 21.769C442.621 22.349 443.181 23.799 444.401 24.159C445.151 24.009 445.781 23.879 446.451 23.739C447.381 24.5789 448.251 25.3589 449.26 26.2688C450.14 26.6688 451.2 27.1488 452.11 27.5688C452.96 27.5688 453.63 27.5988 454.3 27.5588C454.62 27.5388 454.93 27.3888 455.25 27.2988C456.4 26.1289 457.07 24.4889 458.69 23.799C459.69 23.539 460.67 23.499 461.74 24.0189C463.25 25.3789 464.86 26.8288 466.47 28.2588C466.58 28.3588 466.78 28.3488 466.96 28.3988C468.51 27.9488 470.05 27.1188 471.919 28.1188C474.179 30.0087 476.129 32.5586 478.519 34.3785C479.619 34.5085 480.279 33.8985 481.039 33.5985C481.809 33.2886 482.559 32.9386 482.959 32.7586C485.429 32.2886 487.099 34.0785 488.969 33.6585C490.529 34.3785 491.889 34.9985 493.209 35.6084C493.949 35.5784 494.609 35.5484 495.268 35.5184C495.968 35.0285 496.648 34.5485 497.328 34.0785C497.948 33.9985 498.628 34.4385 498.948 34.1285C500.178 33.0086 500.218 31.3586 502.218 30.7187C503.328 30.5487 504.968 30.5287 506.578 30.8286C507.148 31.3286 507.628 31.7986 508.158 32.1986C509.488 33.1886 510.788 34.2385 512.198 35.0885C513.028 35.5885 514.048 35.7784 514.998 36.0784C515.788 36.3384 516.678 36.4084 517.358 36.8284C518.737 37.6684 520.237 37.5684 521.717 37.6984C522.037 37.7284 522.347 37.8784 522.937 38.0583C523.807 38.9383 524.857 39.9983 525.727 40.8682C526.037 41.9382 526.267 42.7281 526.437 43.3481C527.647 44.6281 528.927 45.258 530.437 45.378C531.387 44.1781 531.087 42.2082 533.067 41.8382C533.777 42.0182 534.557 42.2182 535.317 42.4082C535.817 41.9382 536.277 41.5182 536.717 41.1082C538.317 41.7282 538.077 43.9181 539.967 44.4181C541.326 44.0581 542.906 43.6381 544.476 43.1981C544.616 43.1581 544.716 42.9781 544.866 42.8281C545.026 42.0482 545.186 41.2382 545.356 40.4483C545.806 39.8483 546.406 39.5283 547.086 39.7683C548.016 40.0982 548.946 40.4982 549.796 40.9982C550.786 41.5882 551.566 42.5081 552.716 42.8981C553.806 43.2681 554.856 43.7481 555.806 44.1381C556.496 45.478 557.286 46.578 558.486 47.228C559.196 47.6179 560.046 47.7479 560.866 48.0079C562.156 48.9979 563.305 50.1878 564.765 51.0478C566.305 51.9577 567.535 53.3977 568.665 54.3976C571.615 55.0976 573.845 53.8277 576.185 53.1177C576.865 52.0877 577.415 51.0478 578.175 50.1778C578.915 49.3378 579.865 48.6779 580.685 47.9679C580.375 46.568 580.375 46.568 581.255 45.648C581.975 45.718 582.815 45.698 583.605 45.898C584.395 46.098 585.095 46.658 586.395 46.438C588.014 45.828 590.024 45.068 591.714 44.4381C593.364 42.9681 594.684 41.7482 595.534 40.0383C595.954 39.1883 596.844 38.5783 597.514 37.8684C598.594 37.6984 599.574 37.5384 600.444 37.4084C601.754 36.8084 602.964 36.2584 604.174 35.7084C605.854 35.8284 606.684 34.1585 608.324 33.7685C609.873 34.5485 611.643 34.8785 613.493 34.4185C614.093 34.1385 614.793 33.9685 615.283 33.5485C617.463 31.7086 620.273 30.8887 622.453 29.0587C622.803 28.7587 623.383 28.7288 623.843 28.5688C624.303 28.3988 624.763 28.2288 625.203 28.0588C625.833 27.2288 626.443 26.4489 626.973 25.7589C627.833 25.3289 628.573 24.9589 629.193 24.6589C630.703 24.6589 632.033 24.6589 633.172 24.6589C634.292 25.0389 635.122 25.7189 636.642 25.3589C637.282 25.0189 638.362 24.5589 639.312 23.909C640.262 23.259 641.082 22.409 641.672 21.8891C643.632 21.2791 645.272 20.9291 646.772 20.2491C648.052 19.6691 649.332 19.5891 650.662 19.5292C650.992 19.5191 651.312 19.4092 651.612 19.3492C652.862 18.8592 653.932 17.9892 655.401 17.7992C655.821 18.1892 656.261 18.6692 656.771 19.0492C656.981 19.2092 657.361 19.1392 657.711 19.1692C658.061 18.4592 658.411 17.7292 658.751 17.0192C659.531 16.6593 660.271 16.3193 660.941 15.9993C661.501 15.0793 661.951 14.1594 663.521 13.5794C666.131 13.5794 669.281 13.4494 672.451 13.6494C674.801 14.9393 677.291 15.8493 680.17 16.5993C683.04 16.5993 686.21 16.5993 689.29 16.5993C690.22 17.1693 691.05 17.6792 691.93 18.2192C693 17.3292 694.01 16.4793 694.96 15.6893C696.98 15.4893 698.56 16.8593 700.43 16.7093C700.58 16.6993 700.73 16.8393 701.07 16.9993C701.919 17.7292 702.929 18.5892 703.949 19.4692C705.169 19.4692 706.319 19.4692 707.479 19.4692C709.199 18.4792 710.629 16.9693 712.639 16.6593C713.619 16.6093 714.399 16.9793 714.819 17.7292C715.559 19.0492 716.319 20.3291 717.849 21.3191C719.319 21.4491 720.689 22.369 721.959 23.409C723.179 23.519 724.329 23.629 725.488 23.729C727.338 24.7789 729.328 24.6689 731.228 24.4889C732.138 24.2989 732.818 23.679 733.558 23.799C734.308 24.0589 734.928 24.2689 735.508 24.4689C736.578 23.779 737.508 23.059 738.538 22.549C739.718 21.969 740.988 21.5591 742.188 21.0991C743.238 20.2491 744.258 19.4191 745.288 18.5792C748.707 18.5792 752.047 18.5792 755.077 18.5792C758.237 17.4192 758.237 17.4193 761.667 18.3892C762.587 17.7992 763.547 17.1893 764.127 16.8193C766.177 16.2193 767.467 17.3092 768.827 17.5192C770.267 17.5192 771.617 17.6792 772.926 17.4793C774.546 17.2293 776.086 16.5293 777.756 16.3493C778.396 16.2793 778.986 15.8693 779.616 15.6393C779.926 15.5293 780.266 15.4993 780.586 15.3893C780.736 15.3393 780.846 15.1893 780.986 15.0893C782.016 13.6694 782.356 13.3394 783.486 12.7295C784.046 12.9194 784.666 13.1294 785.286 13.3494C786.406 13.0794 787.516 12.7094 788.646 12.5794C789.676 12.4694 790.516 11.8495 791.486 11.6995C792.626 11.5195 793.796 11.4895 794.985 11.3895C796.235 10.2296 797.455 9.0996 798.705 7.92965C800.315 7.14968 801.955 6.35971 803.685 5.51975C804.465 5.71974 805.245 5.90974 806.175 6.14973C806.985 5.45976 807.875 4.70981 808.785 3.94984C810.015 3.55986 811.265 3.14987 812.505 2.75989C813.155 2.95988 813.785 3.15986 814.445 3.36985C815.195 3.15986 815.984 2.94986 816.874 2.70987C817.864 3.53984 818.874 4.38981 819.934 5.27977C821.494 4.20982 822.944 3.06987 825.864 2.4099C826.174 2.3399 827.364 3.04988 828.704 3.50986C829.944 3.55985 831.274 3.60985 832.474 3.65984C833.374 4.00983 834.144 4.3098 834.914 4.60979C835.924 4.2698 836.864 3.95981 837.914 3.60983C839.794 3.59983 841.793 3.46984 843.773 3.70983C844.633 4.2998 845.453 4.86978 846.183 5.36976C846.933 5.54975 847.573 5.70977 848.303 5.88976C848.943 6.59973 849.733 7.24967 850.253 8.07964C850.783 8.9296 851.243 9.80958 851.973 10.5096C853.293 11.7795 854.593 13.0694 855.763 14.2094C859.103 15.0093 861.743 16.8293 864.382 18.0092C865.682 19.2092 866.782 20.2191 867.882 21.2391C869.572 21.5491 869.522 23.749 871.132 24.199C871.802 23.749 872.492 23.289 873.192 22.819C874.172 22.669 875.142 22.509 875.262 22.489C877.052 21.949 877.502 20.7791 878.642 20.8091C878.952 20.9291 879.362 20.9691 879.542 21.1891C880.052 21.8291 880.442 22.569 880.932 23.229C881.622 24.159 882.292 25.1389 883.732 25.4189C885.282 24.6389 887.052 24.3289 889.241 24.8789C890.511 25.6389 892.081 26.5589 893.631 27.4788C894.781 27.7088 895.991 27.4088 897.411 28.0288C899.981 30.1587 902.281 33.0686 904.931 35.2585C905.501 35.3985 905.811 35.4985 906.141 35.5585C907.881 35.8584 909.271 34.4985 910.98 34.5485C911.42 34.5585 911.88 34.2185 912.21 34.0885C912.56 33.2586 912.09 32.6886 911.94 32.0586C911.82 31.5486 912.01 31.0986 912.51 30.8087C913.48 30.5187 914.47 30.5287 915.4 30.9987C916.84 31.7186 918.21 31.6786 919.73 31.1086C921.74 30.3487 923.75 29.5187 926.09 29.4287C927.19 28.5987 928.26 27.4488 929.91 27.4588C931.05 26.8088 932.44 26.5389 933.299 25.2589C933.849 24.059 933.729 22.289 934.979 21.929C936.949 21.2991 938.009 22.649 939.659 22.489C940.159 22.299 940.919 21.9791 941.699 21.6991C942.479 21.4191 943.279 21.1991 944.059 20.9191C945.209 20.5091 946.329 20.4491 947.209 20.8991C948.859 21.899 949.669 23.509 951.209 24.189C951.929 23.929 952.329 23.399 952.569 22.759C952.799 22.139 952.849 21.4391 953.149 20.8691C953.349 20.4891 953.849 20.2591 954.289 19.9091C955.359 20.8091 956.368 21.649 957.378 22.489C958.958 22.559 960.448 22.629 962.288 22.709C963.858 24.6289 966.248 25.8489 968.418 27.3888C969.378 27.5388 970.358 27.6988 971.158 27.8288C972.008 28.4288 972.688 28.9087 973.478 29.4687C974.348 29.1987 975.268 28.7888 976.218 28.6388C977.378 28.4588 978.288 27.4888 980.107 27.8088C980.867 28.3388 981.687 28.8988 982.567 29.5087C983.677 29.5087 984.837 29.5087 985.807 29.5087C987.087 28.9188 987.877 28.0688 988.517 27.0788C988.877 26.5188 989.177 25.9189 990.417 25.5889C992.877 25.5889 995.877 25.5889 998.547 25.5889C999.647 25.1589 1000.42 24.8489 1001.12 24.5689C1003.06 24.5689 1004.89 24.5689 1006.61 24.5689C1008.66 23.429 1010.94 23.609 1012.93 22.729C1013.67 22.399 1014.56 22.599 1015.37 22.899C1016.93 23.469 1018.5 23.999 1019.92 24.4989C1022.06 24.4989 1024.06 24.4989 1026.09 24.4989C1026.63 24.059 1027.15 23.659 1027.65 23.229C1028.15 22.799 1028.64 22.359 1029.14 21.9191C1029.94 22.389 1030.64 22.799 1031.45 23.269C1034.6 21.4791 1038.01 20.2191 1041.53 19.2192C1042.41 18.4392 1043.28 17.6692 1044.06 16.9893C1045.45 16.5293 1046.7 16.1093 1048.31 15.5693C1049.29 15.5693 1050.62 15.5693 1051.89 15.5693C1054.78 13.3594 1057.99 11.9995 1061.08 10.5595C1063.04 10.5595 1064.87 10.5595 1066.68 10.5595C1068.74 9.48958 1070.87 9.39959 1073.05 9.74958C1074.17 10.0796 1074.74 11.4095 1076.16 11.3695C1077.2 10.9695 1077.85 9.92958 1078.79 9.25961C1079.17 8.98962 1079.67 8.88961 1080.1 8.70961C1080.99 9.31959 1081.81 9.87959 1082.55 10.3896C1083.83 10.6995 1084.94 10.5696 1086.04 10.0096C1087.14 9.4596 1088.28 9.44958 1089.24 9.82956C1091.69 10.9695 1091.97 13.7994 1094.17 15.1694C1095.4 15.5793 1096.81 16.0493 1098.19 16.5093C1099.55 16.5693 1100.87 16.6293 1102.21 16.6793C1103.4 17.6592 1104.56 18.5992 1105.65 19.4891C1108.28 19.5491 1110.77 19.6192 1113.08 19.6692C1114.09 20.3591 1114.91 20.9191 1115.55 21.3591C1117.18 21.869 1118.24 20.5191 1119.61 20.6591C1121.49 21.2591 1123.37 21.869 1125.12 22.429C1125.75 22.149 1126.19 21.8391 1126.67 21.7491C1129.08 21.3391 1131 20.1291 1132.67 18.4092C1132.99 18.0792 1133.5 17.9292 1133.96 17.6692C1134.43 17.9392 1134.91 18.0992 1135.26 18.4292C1136.84 19.9191 1138.37 21.4491 1139.94 22.949C1140.17 23.169 1140.51 23.269 1140.81 23.429C1141.3 23.429 1141.79 23.429 1142.19 23.429C1143.58 22.659 1144.57 21.3491 1146.24 21.3991C1147.06 20.8391 1147.88 20.2691 1148.68 19.7292C1149.69 19.5192 1150.71 19.4092 1151.43 18.4692C1151.62 18.0192 1151.81 17.5592 1152 17.0993V0H0V87.0762Z" fill="#4F5565"/>
</svg>
