<svg width="1152" height="117" viewBox="0 0 1152 117" fill="none" xmlns="http://www.w3.org/2000/svg">
<path d="M1151.99 0H0V27.84C0.129999 27.85 0.280032 27.87 0.410031 27.88C1.36002 28.5 2.17998 29.04 2.99997 29.58C5.06996 28.68 7.28998 28.71 9.28996 27.89C9.93995 28.13 10.5599 28.37 11.2899 28.64C12.6799 28.68 14.1799 28.71 15.6799 28.79C15.9899 28.81 16.2898 29 16.5998 29.12C17.2198 29.87 17.8599 30.63 18.4199 31.31C20.1599 31.73 21.7698 32.12 23.4397 32.52C24.7497 31.93 26.1198 31.33 27.2898 30.8C28.6798 30.71 29.8498 30.53 31.1598 31.22C31.6498 31.79 32.2698 32.52 32.9198 33.27C33.6598 32.79 34.3497 32.34 35.0097 31.9C36.0397 31.74 37.0197 31.59 37.4897 31.51C38.7197 31.03 39.0797 30 40.1297 30.23C41.1296 31.04 42.1597 31.87 43.1497 32.67C46.4396 32.67 49.6196 32.68 52.7996 32.66C53.1096 32.66 53.4196 32.46 53.7996 32.33C54.3796 31.61 54.9895 30.83 55.5695 30.1C56.7795 29.76 57.8995 29.44 59.0095 29.12C59.3295 29.23 59.6394 29.39 59.9594 29.44C60.7794 29.56 61.6194 29.6 62.4394 29.72C63.0894 29.81 63.7295 29.97 64.2695 30.08C64.6795 30.6 65.0095 30.97 65.2995 31.38C65.6795 31.92 66.0095 32.49 66.3994 33.03C66.4794 33.14 66.6994 33.16 66.8894 33.23C68.2994 32.97 69.7393 32.29 71.1993 33.15C72.2893 33.68 72.3994 35.17 73.7594 35.65C74.9394 35.7 76.2693 35.75 77.4393 35.79C78.8793 36.22 79.5694 37.74 81.3093 37.66C82.0393 37.41 82.9793 37.08 83.6793 36.84C85.2293 36.57 86.6092 37.02 87.8192 36.43C88.6692 35.73 88.9993 34.77 89.4193 33.87C89.5193 32.72 89.6292 31.56 89.7192 30.47C89.9592 30.36 90.1092 30.22 90.2192 30.24C91.1592 30.41 91.8192 30.1 92.2692 29.25C92.6492 28.52 92.4792 27.56 93.3392 26.94C93.7291 27.02 94.2192 27.06 94.6692 27.24C95.3692 27.52 95.9392 27.5 96.3892 26.82C96.5592 25.86 96.7392 24.88 96.8992 23.99C97.7692 23.02 98.5092 22.12 99.6391 21.65C100.859 21.15 102.079 20.62 103.239 20.13C105.169 17.49 106.939 15.47 107.779 14.95C110.059 16.84 112.339 18.72 114.519 20.52C114.649 21.86 114.759 23.02 114.859 24.08C116.109 25.6 117.269 27.01 118.449 28.4C118.519 28.48 118.769 28.41 118.989 28.41C119.589 27.66 120.219 26.9 120.799 26.17C121.759 25.69 122.659 25.25 123.619 24.78C125.069 24.71 126.559 24.64 127.969 24.58C128.809 24.13 129.549 23.74 130.089 23.46C130.939 22.58 131.179 21.49 132.409 20.94C133.589 20.57 134.999 19.9 136.449 19.76C137.829 19.63 138.979 18.69 140.289 18.76C141.889 18.85 143.089 17.6 144.559 17.74C145.259 17.88 145.869 18 146.329 18.09C147.739 16.95 147.529 15.2 148.469 14.03C149.549 13.58 150.319 14.65 151.319 14.61C152.529 14.57 153.609 14.97 154.649 15.55C155.379 15.96 156.139 16.29 156.889 16.66C157.099 16 157.489 15.5 158.199 15.13C159.079 15.3 160.049 15.46 161.009 15.68C162.119 15.93 163.229 16.23 164.429 16.52C165.559 15.46 166.579 14.34 167.759 13.43C169.069 12.42 170.528 11.61 171.948 10.69C173.278 10.69 174.619 10.69 175.799 10.69C176.739 11.03 177.518 11.31 178.288 11.59C180.488 11.59 182.668 11.59 184.698 11.59C187.678 10.54 187.678 10.54 190.708 11.07C191.988 9.25001 192.488 6.71 195.018 5.72C195.878 5.5 196.938 5.74 197.958 5.09C198.728 4.42 199.608 3.64999 200.438 2.92999C201.658 2.66999 202.858 2.58001 203.898 2.14001C205.368 1.52001 206.818 1.52001 208.338 1.73001C209.298 2.36001 210.268 3.00001 211.238 3.64001C212.208 4.28001 213.168 4.91999 214.128 5.54999C214.688 5.46999 215.238 5.51999 215.648 5.29999C217.248 4.44999 218.798 4.37999 220.448 5.17999C221.028 5.45999 221.728 5.50001 222.388 5.57001C223.218 5.66001 224.058 5.63 224.888 5.72C225.188 5.75 225.478 5.99 225.938 6.22C226.318 6.97 226.768 7.84999 227.038 8.35999C227.408 10.25 226.928 11.8 227.668 13.48C228.648 14.53 229.778 15.75 230.838 16.88C231.138 17.8 231.298 18.64 231.668 19.36C232.048 20.09 232.638 20.71 233.048 21.27C233.338 22.51 233.308 23.79 234.928 24.21C235.558 23.1 236.048 21.85 236.798 20.76C237.178 20.21 237.728 19.8 238.738 19.91C239.718 20.72 240.868 21.67 241.718 22.37C243.048 22.82 244.118 22.51 245.008 23.1C245.848 23.67 246.558 24.37 247.158 25.51C247.258 26.59 247.368 27.91 247.488 29.26C248.098 29.9 248.598 30.6 249.258 31.07C250.068 31.64 250.998 32.05 251.908 32.48C252.198 32.62 252.558 32.61 252.998 32.69C253.848 32.4 254.788 32.08 255.788 31.74C256.708 32.01 257.658 32.28 258.518 32.53C260.858 31.75 260.858 31.75 263.518 31.9C264.108 32.45 264.708 33.02 265.278 33.55C266.148 33.7 266.958 33.83 267.628 33.94C267.968 34.33 268.248 34.55 268.388 34.83C268.758 35.57 269.188 36.32 269.368 37.12C269.628 38.29 270.228 39.29 270.758 40.32C270.968 40.73 271.428 41.01 271.798 41.37C272.958 41.02 274.048 40.68 274.908 40.42C275.718 39.5 275.868 38.31 277.098 38.23C277.818 38.48 278.138 39.02 278.278 39.79C278.048 40.52 277.718 41.29 277.568 42.09C277.358 43.23 278.318 44.38 279.518 44.55C280.638 44.4 281.618 43.44 283.217 44.16C283.938 44.79 284.947 45.66 285.957 46.53C286.967 46.69 287.947 46.85 288.957 47.01C289.967 47.53 290.638 48.7 292.158 48.71C292.438 48.63 292.947 48.56 293.387 48.35C294.837 47.64 296.247 47.65 297.727 48.33C299.327 49.07 300.987 49.02 302.577 48.28C304.057 47.59 305.467 47.67 306.907 48.4C307.337 48.62 307.857 48.65 308.217 48.73C308.987 48.53 309.627 48.37 310.227 48.21C311.357 48.56 312.477 49.25 313.427 47.92C313.597 46.62 313.777 45.31 313.957 43.94C315.097 43.15 316.227 42.46 317.247 41.63C318.277 40.79 319.187 39.8 319.977 39.04C320.827 38.67 321.437 38.4 322.067 38.13C322.547 38.26 323.017 38.4 323.627 38.57C323.977 38.45 324.467 38.33 324.907 38.12C325.867 37.67 326.967 37.48 327.827 37.93C329.357 38.73 331.117 38.49 332.757 39.25C333.337 39.93 334.007 40.67 334.617 41.46C334.917 41.85 335.027 42.41 335.357 42.75C337.567 45.03 339.657 47.44 342.177 49.39C342.397 49.56 342.807 49.5 343.117 49.55C344.347 49.11 344.597 47.78 345.247 47.18C346.557 46.29 347.657 45.54 348.477 44.98C350.387 44.38 351.717 45.32 353.157 45.7C354.807 45.71 356.477 45.92 358.247 45.47C358.597 44.97 358.937 44.41 359.347 43.89C360.167 42.86 361.187 42.5 362.607 43.14C363.847 44.25 365.207 45.47 366.407 46.54C367.457 46.8 368.327 46.8 369.067 47.52C370.917 50.81 373.837 53.29 376.827 55.64C376.917 56.77 377.287 57.7 378.047 58.41C378.987 59.28 378.787 60.6 379.527 61.81C380.387 62.72 381.427 63.81 382.467 64.9C383.767 67.43 385.057 69.95 386.297 72.37C387.367 72.8 388.277 73.16 388.967 73.43C390.067 74.6 390.337 76.04 391.497 76.85C391.907 77.13 392.307 77.43 392.747 77.75C393.897 77.85 395.057 77.94 396.297 78.04C397.077 78.57 397.896 79.14 398.696 79.68C399.916 79.86 400.857 78.6 402.106 79.12C402.346 79.32 402.606 79.53 402.856 79.74C403.036 80.71 403.217 81.69 403.397 82.62C403.857 83.01 404.206 83.54 404.626 83.6C406.366 83.86 407.616 84.99 408.936 85.84C410.536 85.92 412.036 86 413.316 86.07C414.426 86.63 415.316 87.08 416.226 87.54C417.826 89.24 419.676 90.7 420.936 92.48C421.156 93.67 421.176 94.72 421.556 95.61C422.036 96.72 422.036 97.89 422.366 99C422.476 99.36 423.046 99.59 423.316 99.81C424.106 99.54 424.726 99.33 425.306 99.13C426.396 99.61 427.026 100.31 427.156 101.41C427.236 102.07 427.306 102.73 427.416 103.79C429.326 104.88 429.926 107.34 431.646 108.95C433.466 110.66 434.966 112.72 437.036 113.93C439.366 114.25 441.556 113.83 443.196 114.15C444.976 114.83 445.526 116.31 446.856 116.66C447.376 116.52 447.856 116.39 448.246 116.28C449.326 116.38 450.126 117.27 451.726 116.83C452.536 116.31 454.016 115.93 455.146 114.86C455.496 114.53 455.996 114.36 456.386 114.14C457.786 114.09 459.126 114.04 460.316 113.99C461.236 113.62 462.006 113.32 462.716 113.04C463.776 113.36 464.726 113.64 465.716 113.93C469.676 111.1 471.926 107.01 474.086 102.8C475.506 101.68 476.496 100.05 478.266 99.13C479.006 99.13 479.826 99.13 480.816 99.13C481.426 100.37 482.476 101.15 483.796 101.56C484.806 101.42 485.676 100.96 486.576 100.33C487.016 99.74 487.516 99.08 488.056 98.36C488.776 98.1 489.556 97.83 490.406 97.52C491.436 96.52 492.526 95.48 493.576 94.4C494.876 93.07 496.556 92.26 498.096 91.29C499.176 90.61 500.586 90.47 501.786 90.1C502.566 90.61 503.266 91.07 503.846 91.45C504.946 91.27 505.916 91.08 506.896 90.97C508.046 90.85 509.246 91.14 510.326 90.51C514.275 85.27 514.315 85.69 518.195 82.17C519.435 81.74 520.846 82 522.056 81.25C522.396 81.04 523.015 81.22 523.475 81.32C524.595 81.55 525.735 81.4 526.855 81.66C528.335 80.11 529.365 78.13 531.395 77.09C532.345 76.94 533.335 76.79 534.175 76.66C535.035 76.18 535.765 75.78 536.175 75.55C536.885 74.57 537.365 73.91 537.755 73.37C538.885 72.99 539.825 72.67 540.335 72.5C541.855 71.5 541.755 69.73 543.095 69.29C543.695 69.33 544.175 69.36 544.545 69.38C545.335 68.82 546.015 68.34 546.525 67.98C547.925 67.87 549.085 67.74 550.025 68.07C551.345 68.87 552.445 69.63 553.625 70.24C554.795 70.86 555.935 71.76 557.285 71.78C558.665 71.81 559.825 72.58 561.145 72.66C562.375 72.09 563.585 71.53 565.015 70.86C566.135 70.86 567.475 70.86 568.495 70.86C570.055 70.3 571.295 69.85 572.415 69.45C573.545 67.57 574.865 66.09 576.665 64.93C578.105 64.86 579.595 64.79 580.945 64.72C581.695 64.07 582.295 63.54 582.865 63.05C584.085 63.41 585.245 63.62 586.295 64.09C587.185 64.48 587.955 65.16 588.745 65.69C589.635 65.45 590.425 65.23 591.125 65.03C592.505 65.4 592.755 66.73 593.635 67.61C594.145 67.87 594.745 68.16 595.355 68.47C597.135 67.95 597.595 66.1 598.915 65.04C599.665 65.24 600.455 65.44 601.295 65.67C602.115 65.11 602.935 64.56 603.855 63.94C604.605 63.94 605.425 63.94 606.385 63.94C607.475 64.85 608.625 65.8 609.645 66.64C610.835 66.82 611.815 66.97 612.815 67.12C614.555 68.98 616.575 70.37 618.865 71.5C619.905 70.52 620.865 69.59 621.865 68.71C622.075 68.52 622.435 68.5 622.725 68.41C623.215 69.08 623.705 69.74 624.055 70.22C625.015 70.84 625.805 70.96 626.875 70.48C627.695 69.77 628.695 68.91 629.745 68C630.265 68.16 630.845 68.18 631.155 68.48C631.855 69.16 632.434 69.99 633.074 70.77C635.294 70.84 637.454 70.91 639.104 70.96C640.704 71.46 641.244 72.9 642.644 72.61C642.794 72.53 642.974 72.47 643.084 72.36C643.744 71.62 644.384 70.87 645.184 69.94C646.584 70.2 647.914 69.41 649.324 69.08C651.144 69.26 652.044 70.86 653.384 71.74C654.854 71.08 656.214 70.47 657.634 69.84C658.744 70.19 659.844 70.54 660.914 70.88C663.134 69.95 665.474 69.77 667.594 69.03C668.894 69.63 670.094 70.19 671.084 70.65C672.344 70.57 672.454 69.44 673.194 69.08C674.154 68.82 675.114 68.56 676.014 68.31C677.654 68.8 679.234 69.28 680.664 69.7C682.714 68.88 682.714 68.88 684.694 69.13C686.104 70.27 686.304 71.98 686.834 73.57C687.764 74.71 688.644 75.93 690.094 76.49C691.394 75.91 692.674 75.65 694.394 76.38C695.314 77 695.764 78.61 697.064 79.44C697.284 79.58 697.324 80.02 697.654 80.86C697.824 81.12 696.604 81.82 697.284 82.62C698.244 83.14 699.274 82.84 700.254 83C701.394 83.18 702.344 84.15 703.934 83.7C704.874 83.23 705.844 82.34 706.474 81.11C706.864 80.35 707.264 79.64 708.574 78.98C709.654 78.67 711.374 79.13 712.964 78.67C714.044 78.15 715.074 77.57 716.164 77.16C717.394 76.7 718.694 76.39 719.704 76.1C720.764 76.41 721.544 76.77 722.354 76.85C723.374 76.95 724.304 77.22 725.234 77.64C725.494 77.76 725.874 77.6 726.194 77.56C728.174 76.15 728.174 76.15 729.844 76.01C730.724 76.6 731.654 77.3 732.664 77.86C733.674 78.42 734.724 79.08 735.954 78.9C737.124 78.73 738.004 80.24 739.464 79.25C739.824 78.57 740.304 77.7 740.744 76.81C741.124 76.03 741.654 75.42 742.644 75.01C743.624 74.94 744.784 74.85 745.904 74.76C747.344 73.81 748.734 72.9 750.154 71.96C750.844 70.65 751.534 69.32 752.304 67.85C754.203 65.94 756.133 63.86 758.313 61.98C759.333 62.22 760.283 62.43 761.183 62.64C761.983 62.21 762.723 61.82 763.373 61.47C763.683 60.92 763.973 60.51 764.163 60.05C764.553 59.14 764.903 58.21 765.323 57.13C767.073 56.02 769.123 55.42 771.163 54.99C773.753 55.93 773.753 55.93 776.793 55.33C777.603 54.33 778.553 53.18 779.553 52.1C780.543 51.03 781.083 49.55 781.753 48.38C782.663 47.91 783.403 47.51 784.153 47.15C784.453 47.01 784.793 46.83 785.093 46.85C786.663 46.96 787.973 46.04 789.633 45.77C790.263 46.02 791.013 46.43 791.813 46.6C792.793 46.8 793.813 46.77 794.803 46.88C795.123 46.92 795.423 47.11 795.423 47.11C797.153 47.88 796.623 49.72 797.703 50.52C798.993 51.1 799.953 49.99 800.943 49.98C802.883 50.33 804.213 52.05 806.293 51.63C807.073 51.09 807.893 50.52 808.823 49.87C809.553 50.13 810.333 50.4 811.203 50.71C812.783 50.71 814.453 50.71 815.963 50.71C816.893 50.34 817.663 50.04 817.833 49.97C820.123 49.59 821.823 50.05 823.643 49.38C824.443 48.29 824.943 46.84 825.543 45.95C826.883 44.58 827.903 43.47 829.003 42.44C829.333 42.13 829.883 42.05 830.293 41.87C831.073 42.37 831.753 42.83 832.463 43.26C832.563 43.32 832.763 43.23 833.023 43.19C833.833 42.49 834.713 41.72 835.523 41.02C836.273 40.83 836.913 40.66 837.173 40.59C840.683 38.84 843.013 36.16 845.843 34.07C846.113 33.31 846.393 32.54 846.633 31.88C847.843 30.22 849.433 29.34 851.233 28.82C851.673 28.69 852.203 28.86 852.803 28.9C853.993 30.01 855.203 31.15 856.253 32.13C858.883 33.39 861.593 33.57 864.073 34.54C865.103 34.94 865.992 34.15 866.992 34.17C868.252 34.59 869.512 35 870.772 35.43C871.752 35.76 872.732 35.79 873.732 35.44C875.102 34.57 876.282 33.3 878.022 33.16C878.532 33.32 879.002 33.58 879.492 33.61C880.822 33.67 882.152 33.63 883.352 33.63C884.092 32.94 884.702 32.38 885.362 31.78C886.342 31.75 887.342 31.65 888.342 31.72C889.312 31.79 890.272 32.04 891.242 32.22C892.012 31.85 892.762 31.49 893.142 31.3C894.592 30.13 894.542 28.11 896.422 27.9C897.542 28.03 898.532 29 900.152 28.3C901.572 26.98 903.272 25.39 904.922 23.86C905.552 23.81 906.042 23.77 906.532 23.74C907.392 24.27 908.212 24.78 908.972 25.26C910.992 24.49 911.242 22.31 912.582 21.17C914.212 20.66 914.252 20.58 915.032 20.97C916.852 21.87 918.992 21.6 920.772 22.58C921.762 22.57 922.752 22.57 923.462 22.56C924.602 21.97 924.862 20.67 926.342 20.75C928.002 21.31 929.892 21.95 931.852 22.61C933.112 22.66 934.442 22.71 935.462 22.75C937.022 23.3 938.282 23.74 939.632 24.21C940.242 25.13 940.872 26.1 941.432 26.94C942.512 27.73 943.522 28.29 944.682 28.49C946.272 28.01 947.852 27.54 949.202 27.14C950.412 27.49 951.372 27.76 952.252 28.02C953.792 29.11 955.132 30.43 957.122 30.45C957.912 30.05 958.452 29.44 958.642 28.57C958.782 27.91 958.962 27.28 959.602 26.88C960.762 26.53 961.892 26.73 963.052 27.23C963.792 26.38 964.492 25.47 965.292 24.66C966.252 23.7 967.492 23.2 968.852 22.85C969.442 23.07 970.052 23.35 970.692 23.52C971.372 23.7 972.012 23.55 972.482 22.97C972.692 22.34 972.891 21.71 973.171 20.87C973.601 20.41 974.192 19.82 974.732 19.18C975.261 18.55 975.742 17.87 976.252 17.21C977.271 17.27 978.141 17.7 978.911 18.33C979.691 18.96 980.411 19.66 981.201 20.26C981.431 20.43 981.831 20.38 982.201 20.43C982.561 20.15 982.951 19.84 983.181 19.66C983.951 18.73 983.632 17.48 984.852 16.75C986.612 16.63 988.561 16.39 990.481 17.38C991.371 17.84 992.441 17.73 993.571 17.23C994.451 16.48 995.461 15.62 996.471 14.76C997.541 14.69 998.551 14.72 999.531 14.54C1000.5 14.36 1001.43 13.95 1002.39 13.71C1002.68 13.64 1003.03 13.83 1003.35 13.9C1004.75 14.46 1005.32 16.22 1006.9 16.43C1008.98 16.18 1008.67 13.6 1010.26 13.07C1011.61 13.15 1011.62 14.5 1012.41 15.06C1014.64 14.94 1015.75 13.06 1017.36 11.9C1018.45 11.61 1019.56 11.32 1020.61 11.05C1021.38 11.55 1022.07 12 1022.73 12.42C1023.43 12.3 1024.07 12.19 1024.69 12.08C1025.97 12.93 1027.25 13.7 1028.45 14.59C1029.64 15.48 1030.4 16.89 1032.04 17.49C1033.31 16.94 1034.68 16.34 1036.11 15.71C1036.88 15.67 1037.72 15.68 1038.54 15.57C1039.34 15.47 1040.12 15.24 1040.79 15.1C1041.8 15.67 1042.46 16.45 1043.52 16.64C1045.02 16.91 1046.33 17.64 1047.55 18.56C1049.96 20.35 1052.51 21.93 1054.28 22.77C1056.05 23.8 1055.96 25.22 1057.46 25.39C1059.23 23.61 1060.3 21.16 1061.6 19.1C1062.36 18.83 1062.8 19.06 1063.01 19.52C1063.28 20.12 1063.26 20.84 1063.9 21.38C1064.46 21.32 1065.09 21.26 1065.73 21.2C1066.36 21.97 1066.96 22.76 1067.61 23.51C1068.18 24.15 1068.87 24.6 1070.04 24.6C1071.3 23.98 1073 23.83 1074.42 22.98C1076.22 20.6 1076.51 17.68 1077.57 15.37C1078.89 14.22 1080.02 13.23 1081.15 12.26C1081.78 11.72 1082.42 11.19 1083.12 10.6C1085.3 10.68 1087.46 10.42 1089.67 10.78C1090.83 11.7 1091.9 12.81 1093.21 13.5C1094.59 14.22 1095.42 15.55 1096.76 16.25C1097.03 16.39 1097.39 16.35 1097.79 16.41C1099.96 14.91 1101.52 12.66 1103.73 10.95C1104.74 10.66 1105.85 10.35 1106.99 10.02C1107.69 10.48 1108.38 10.94 1109.13 11.43C1109.9 11.53 1110.73 11.63 1111.59 11.74C1112.16 12.01 1112.79 12.26 1113.36 12.6C1114.35 13.19 1115.3 13.85 1116.21 14.43C1118.89 13.63 1118.89 13.63 1121.12 14.14C1121.67 13.81 1122.23 13.46 1122.79 13.12C1126.05 13.73 1126.91 13.76 1132.72 13.45C1134.51 12.7 1134.5 12.7 1136.28 12.94C1138.75 15.37 1141.62 17.69 1143.48 20.95C1146.21 22.68 1146.21 22.68 1148.37 25.54C1149.74 25.59 1150.91 26.16 1152 26.92V0H1151.99Z" fill="#4F5565"/>
</svg>
